<svg width="168" height="168" viewBox="0 0 168 168" fill="none" xmlns="http://www.w3.org/2000/svg">
<rect width="168" height="168" rx="16" fill="white"/>
<path d="M18.1641 133.946V118.054H49.9478V149.838H18.1641V133.946ZM45.4073 133.946V122.595H22.7046V145.298H45.4073V133.946ZM27.2451 133.946V127.136H40.8668V140.757H27.2451V133.946ZM59.0289 147.568V145.298H54.4884V136.217H59.0289V122.595H63.5695V118.054H54.4884V113.514H36.3262V108.973H40.8668V104.433H31.7857V113.514H27.2451V108.973H18.1641V104.433H27.2451V95.3518H22.7046V99.8923H18.1641V90.8112H27.2451V95.3518H31.7857V99.8923H36.3262V95.3518H40.8668V99.8923H49.9478V95.3518H45.4073V90.8112H31.7857V86.2707H45.4073V81.7302H31.7857V77.1896H27.2451V81.7302H18.1641V68.1085H22.7046V72.6491H49.9478V68.1085H45.4073V63.568H36.3262V68.1085H31.7857V63.568H22.7046V54.4869H31.7857V63.568H36.3262V59.0275H45.4073V54.4869H49.9478V59.0275H45.4073V63.568H49.9478V68.1085H54.4884V59.0275H59.0289V54.4869H54.4884V40.8653H63.5695V45.4058H68.11V49.9464H63.5695V54.4869H68.11V81.7302H59.0289V77.1896H54.4884V81.7302H49.9478V86.2707H45.4073V90.8112H49.9478V95.3518H54.4884V99.8923H63.5695V95.3518H59.0289V90.8112H54.4884V86.2707H63.5695V95.3518H68.11V86.2707H72.6506V95.3518H77.1911V81.7302H81.7316V77.1896H86.2722V81.7302H81.7316V86.2707H86.2722V90.8112H99.8938V86.2707H95.3533V81.7302H90.8127V72.6491H86.2722V68.1085H90.8127V63.568H95.3533V59.0275H90.8127V54.4869H86.2722V63.568H81.7316V59.0275H77.1911V63.568H72.6506V59.0275H77.1911V54.4869H72.6506V40.8653H68.11V36.3248H72.6506V40.8653H77.1911V22.7031H81.7316V31.7842H90.8127V27.2437H86.2722V18.1626H95.3533V22.7031H90.8127V27.2437H99.8938V22.7031H104.434V18.1626H113.515V31.7842H104.434V27.2437H99.8938V36.3248H104.434V49.9464H108.975V45.4058H113.515V68.1085H122.596V63.568H118.056V54.4869H127.137V68.1085H136.218V63.568H131.678V54.4869H136.218V63.568H140.759V59.0275H149.84V68.1085H145.299V63.568H140.759V68.1085H136.218V81.7302H140.759V86.2707H136.218V90.8112H127.137V95.3518H122.596V99.8923H113.515V95.3518H108.975V90.8112H104.434V99.8923H108.975V104.433H122.596V108.973H131.678V104.433H127.137V99.8923H131.678V95.3518H136.218V99.8923H140.759V104.433H145.299V95.3518H140.759V90.8112H149.84V104.433H145.299V113.514H149.84V122.595H145.299V136.217H149.84V140.757H136.218V149.838H122.596V145.298H131.678V140.757H122.596V131.676H118.056V140.757H113.515V145.298H118.056V149.838H108.975V136.217H104.434V145.298H99.8938V140.757H95.3533V122.595H99.8938V136.217H104.434V122.595H108.975V113.514H104.434V108.973H99.8938V104.433H104.434V99.8923H99.8938V95.3518H95.3533V113.514H99.8938V118.054H90.8127V127.136H86.2722V136.217H90.8127V140.757H86.2722V145.298H95.3533V149.838H86.2722V145.298H81.7316V140.757H77.1911V149.838H59.0289V147.568ZM72.6506 140.757V136.217H77.1911V122.595H68.11V127.136H72.6506V131.676H63.5695V136.217H59.0289V140.757H63.5695V145.298H72.6506V140.757ZM136.218 136.217V131.676H140.759V122.595H145.299V118.054H140.759V104.433H136.218V118.054H140.759V122.595H136.218V127.136H131.678V140.757H136.218V136.217ZM113.515 133.946V131.676H108.975V136.217H113.515V133.946ZM86.2722 124.865V122.595H81.7316V127.136H86.2722V124.865ZM127.137 120.325V113.514H113.515V127.136H127.137V120.325ZM118.056 120.325V118.054H122.596V122.595H118.056V120.325ZM81.7316 115.784V113.514H90.8127V108.973H81.7316V104.433H77.1911V108.973H81.7316V113.514H72.6506V108.973H68.11V113.514H63.5695V108.973H59.0289V104.433H54.4884V99.8923H49.9478V104.433H45.4073V108.973H49.9478V104.433H54.4884V108.973H59.0289V113.514H63.5695V118.054H81.7316V115.784ZM68.11 102.163V99.8923H63.5695V104.433H68.11V102.163ZM90.8127 99.8923V95.3518H81.7316V99.8923H86.2722V104.433H90.8127V99.8923ZM118.056 93.0815V90.8112H113.515V95.3518H118.056V93.0815ZM127.137 88.541V86.2707H131.678V72.6491H127.137V77.1896H122.596V81.7302H118.056V77.1896H108.975V72.6491H104.434V68.1085H108.975V54.4869H104.434V49.9464H99.8938V45.4058H95.3533V49.9464H90.8127V36.3248H95.3533V40.8653H99.8938V36.3248H95.3533V31.7842H90.8127V36.3248H86.2722V49.9464H90.8127V54.4869H95.3533V49.9464H99.8938V63.568H95.3533V68.1085H90.8127V72.6491H95.3533V81.7302H99.8938V77.1896H108.975V81.7302H113.515V86.2707H122.596V90.8112H127.137V88.541ZM122.596 84.0004V81.7302H127.137V86.2707H122.596V84.0004ZM49.9478 79.4599V77.1896H54.4884V72.6491H49.9478V77.1896H45.4073V81.7302H49.9478V79.4599ZM63.5695 70.3788V68.1085H59.0289V72.6491H63.5695V70.3788ZM63.5695 47.6761V45.4058H59.0289V49.9464H63.5695V47.6761ZM81.7316 45.4058V40.8653H77.1911V49.9464H81.7316V45.4058ZM108.975 24.9734V22.7031H104.434V27.2437H108.975V24.9734ZM145.299 147.568V145.298H149.84V149.838H145.299V147.568ZM145.299 81.7302V77.1896H140.759V72.6491H145.299V77.1896H149.84V86.2707H145.299V81.7302ZM18.1641 34.0545V18.1626H49.9478V49.9464H18.1641V34.0545ZM45.4073 34.0545V22.7031H22.7046V45.4058H45.4073V34.0545ZM27.2451 34.0545V27.2437H40.8668V40.8653H27.2451V34.0545ZM118.056 34.0545V18.1626H149.84V49.9464H118.056V34.0545ZM145.299 34.0545V22.7031H122.596V45.4058H145.299V34.0545ZM127.137 34.0545V27.2437H140.759V40.8653H127.137V34.0545ZM54.4884 34.0545V31.7842H59.0289V36.3248H54.4884V34.0545ZM63.5695 29.5139V27.2437H59.0289V18.1626H63.5695V22.7031H68.11V18.1626H72.6506V22.7031H68.11V31.7842H63.5695V29.5139Z" fill="#0F172A"/>
</svg>
