<svg width="86" height="20" viewBox="0 0 86 20" fill="none" xmlns="http://www.w3.org/2000/svg">
<g id="Makro 1" clip-path="url(#clip0_552_5588)">
<path id="Vector" fill-rule="evenodd" clip-rule="evenodd" d="M33.2727 4.83866C33.2383 4.78746 33.1802 4.70959 33.1372 4.65945C33.105 4.62211 33.0899 4.61358 33.0577 4.57198C32.5782 3.95968 31.5215 3.53939 30.7679 3.39005C29.7628 3.19164 28.7222 3.23751 27.7558 3.55752C26.971 3.81674 26.383 4.21249 25.9089 4.86533C25.4069 5.5555 25.1747 6.35554 25.1747 7.29532V11.7276H27.6504V7.09265C27.6504 6.44408 27.9826 5.81044 28.5502 5.52883C29.1931 5.20988 30.1455 5.18748 30.8185 5.42856C31.2775 5.59283 31.5258 5.82325 31.7354 6.25527C31.9504 6.70009 31.9709 7.24946 31.9709 7.77642V11.7649H32.9018C33.0287 11.7649 33.0717 11.7457 33.1985 11.7457H34.1488C34.2757 11.7468 34.3187 11.7276 34.4466 11.7276V7.49907C34.4466 6.92944 34.6444 6.24994 34.9916 5.84245C35.6484 5.07227 37.5265 5.05307 38.2306 5.75818C38.3316 5.85951 38.3854 5.92138 38.4639 6.04299C38.6907 6.39501 38.7842 6.80783 38.7842 7.27719V11.7276H41.2417V7.09265C41.2417 6.07606 40.9471 5.30908 40.3935 4.57304L40.157 4.3085C39.4754 3.63219 38.3349 3.25137 37.3125 3.25137C36.7105 3.25137 36.3784 3.26097 35.8011 3.39538L35.0389 3.61833C34.6809 3.74633 34.2563 3.97355 33.9585 4.19009C33.8263 4.2861 33.7091 4.37783 33.5941 4.49304L33.2727 4.83973V4.83866ZM49.8438 9.75092H45.7846C45.4342 9.75092 45.1385 9.40637 45.117 9.00955C45.0977 8.6458 45.4008 8.27351 45.7846 8.27351L50.793 8.29165C50.793 8.6842 50.8414 8.95621 50.6941 9.24636C50.5436 9.54184 50.2018 9.75092 49.8438 9.75092ZM44.0345 3.37938V5.26322C44.0345 5.35495 44.2839 5.31869 44.4624 5.31869C45.2364 5.31869 49.5794 5.29202 49.9008 5.33575C50.5415 5.42322 50.7748 5.79338 50.7748 6.44515V6.51875C50.3491 6.51875 49.9513 6.53688 49.5084 6.53688H45.5986C45.1267 6.53688 44.8117 6.57209 44.4677 6.70863C44.2205 6.80676 43.9582 6.96037 43.7593 7.13212C43.5776 7.28892 43.5239 7.32626 43.353 7.54174C43.0552 7.91936 42.8606 8.48792 42.8606 8.99248C42.8606 9.66665 42.9326 10.0656 43.2852 10.6214C43.6411 11.1814 44.3957 11.7254 45.1514 11.7254H50.3093C50.9328 11.7254 51.5574 11.5089 52.0142 11.1825C52.197 11.0523 52.4475 10.8134 52.5894 10.6256C53.0237 10.0517 53.2698 9.47144 53.2698 8.67887V6.2222C53.2698 5.31228 52.8818 4.46211 52.2088 3.95008C51.4606 3.38045 50.4662 3.32284 49.4901 3.32284H44.0904C44.0474 3.32284 44.0345 3.33565 44.0345 3.37831V3.37938ZM55.4295 11.7265H57.9052V7.75615H59.6177C60.1681 7.75615 60.5594 7.86922 60.8658 8.29165C60.9281 8.37805 60.984 8.46019 61.0442 8.55833C61.0776 8.61166 61.0991 8.649 61.127 8.69807L61.4441 9.2709C61.471 9.32317 61.4893 9.36264 61.5215 9.4149L62.7836 11.7265H65.5764C65.5474 11.6732 65.5281 11.6252 65.4958 11.5665C65.4603 11.5014 65.4378 11.4715 65.4023 11.4001L64.0747 8.94981C64.0392 8.87941 64.0166 8.84847 63.9811 8.7834L63.807 8.45699C63.5941 8.02923 63.3351 7.55881 62.9825 7.26226C62.847 7.14812 62.4998 6.96144 62.2622 6.96144V6.9241C62.4116 6.9209 62.7298 6.7481 62.8363 6.68089C62.9857 6.58595 63.1684 6.42381 63.2813 6.29154C63.4329 6.11233 63.649 5.77738 63.793 5.5619L64.7981 4.08449C64.8594 3.99381 64.911 3.92661 64.9734 3.83381C65.0368 3.73993 65.2787 3.40498 65.2969 3.32391H62.5224C62.3536 3.57459 61.4721 4.924 61.2797 5.13841C61.2259 5.19921 61.1937 5.22481 61.1367 5.29202L60.9722 5.44243C60.783 5.61737 60.424 5.77951 60.0638 5.77951H57.9042V0H55.4284V11.7265H55.4295ZM81.8122 9.75092H79.8008C79.3343 9.75092 78.7893 9.45224 78.5237 9.11516C78.0787 8.55086 78.069 8.20417 78.069 7.38706C78.069 7.08731 78.0894 6.7673 78.1636 6.53902C78.3066 6.09953 78.6312 5.71231 79.043 5.50856C79.2451 5.40829 79.5074 5.29948 79.8008 5.29948H81.8681C82.6055 5.29948 83.3075 5.88832 83.4956 6.62115C83.5881 6.98171 83.5633 8.07723 83.4655 8.43459C83.3978 8.681 83.272 8.89221 83.1269 9.07675C82.8839 9.3861 82.3572 9.74879 81.8122 9.74879V9.75092ZM86.0014 6.84943V8.21804C86.0014 9.11516 85.5865 10.0283 84.9727 10.6331C84.3588 11.2369 83.4935 11.7276 82.612 11.7276H78.9817C78.2819 11.7276 77.452 11.3595 76.9392 10.9275C76.7586 10.775 76.5339 10.5659 76.3877 10.3846C76.1867 10.1371 76.0125 9.89813 75.8878 9.58771C75.5051 8.63833 75.5922 7.93856 75.5922 6.90704C75.5922 6.28514 75.7459 5.79018 75.9588 5.36775C76.0878 5.11174 76.3555 4.73519 76.5651 4.52931C77.1757 3.92874 77.8777 3.51592 78.7516 3.37405C79.2644 3.29084 81.4456 3.32391 82.053 3.32391C82.9484 3.32391 83.6225 3.45512 84.2868 3.89674L84.6964 4.19222C85.063 4.47277 85.4252 4.91866 85.6338 5.33149C85.7456 5.5523 85.823 5.74111 85.8886 6.00246C85.9552 6.26807 85.9864 6.55502 86.0004 6.8505L86.0014 6.84943ZM66.7869 7.23879V11.7265H69.2637V7.12785C69.2637 6.43661 69.5647 5.72511 70.2323 5.42856C70.4526 5.33042 70.6934 5.29948 71.0138 5.29948C72.1071 5.29948 73.2939 5.28562 74.3839 5.29948C74.4699 5.30055 74.5699 5.32402 74.5699 5.24401V3.37938C74.5699 3.33671 74.557 3.32391 74.514 3.32391H70.8644C70.143 3.32391 69.6507 3.36871 69.1067 3.55646C68.9799 3.60019 68.8681 3.6482 68.7541 3.70473C68.6402 3.76127 68.5359 3.81567 68.4327 3.88394C67.2868 4.64665 66.7869 5.82858 66.7869 7.23772V7.23879ZM10.6514 8.7354L10.6332 8.7258L10.6074 8.71833L10.5966 8.71087C10.4171 9.15676 10.2451 9.42771 10.057 9.80639L9.63235 10.5488C9.57107 10.6491 9.51517 10.7344 9.45497 10.8347C9.07442 11.4726 8.40685 12.342 7.92094 12.9148L6.48582 14.4285C6.40089 14.5138 6.32672 14.5672 6.24394 14.6504L5.62044 15.1955C5.17432 15.5891 4.36592 16.1598 3.86067 16.4969C3.80692 16.5332 3.76499 16.5545 3.71124 16.5886C3.65857 16.6228 3.62202 16.6601 3.55859 16.6772C3.59084 16.7241 3.62524 16.7508 3.67254 16.786C4.01117 17.0324 4.22724 17.2052 4.61854 17.4356C5.20872 17.7834 5.83329 18.0916 6.49334 18.3092C7.11254 18.5141 7.27595 18.5546 7.95427 18.6879C8.82825 18.8607 9.65492 18.8479 10.5396 18.7999C11.4899 18.7477 12.637 18.4042 13.4798 18.0596C13.798 17.9295 13.9646 17.8314 14.2462 17.6927C14.6332 17.5028 15.1697 17.1369 15.5147 16.883C15.6556 16.7785 15.6706 16.8084 15.662 16.5662L15.5706 15.7512C15.5266 15.4867 15.4782 15.2339 15.4072 14.9907C14.9848 13.5463 14.4096 12.5756 13.5013 11.3958L12.8638 10.6619C12.8133 10.6128 12.8025 10.5968 12.7595 10.5435C12.6112 10.359 12.0446 9.85226 11.821 9.64532C11.7737 9.60158 11.7415 9.58131 11.691 9.53438C11.649 9.49598 11.6146 9.47251 11.5695 9.43304C11.5265 9.39677 11.4921 9.36904 11.448 9.3317C11.2158 9.13756 10.7998 8.86127 10.6536 8.7354H10.6514Z" fill="#E31E25"/>
<path id="Vector_2" fill-rule="evenodd" clip-rule="evenodd" d="M10.6173 8.66068L10.6055 8.71722L10.6323 8.72469C10.656 8.71402 10.6506 8.70868 10.6506 8.73429C11.2515 8.73429 12.5233 8.98923 13.0876 9.10551C14.4196 9.37965 16.0407 9.98662 17.2414 10.5819C17.7392 10.8283 18.1272 11.0448 18.6088 11.3307C18.7604 11.4214 18.8969 11.5184 19.0474 11.5974C19.0496 11.5014 19.313 10.5616 19.3259 9.52793C19.3269 9.42019 19.3463 9.37539 19.3452 9.25165C19.3452 9.13111 19.3312 9.06924 19.3259 8.9743C19.299 8.48254 19.3151 8.40787 19.2388 7.87877C18.9797 6.09415 18.3154 4.66154 17.2973 3.34093C17.2103 3.22893 17.12 3.13292 17.0286 3.01665L16.604 2.55156C16.5491 2.49822 16.5083 2.45769 16.4545 2.40328L15.4913 1.58617C15.3817 1.50297 15.2667 1.43256 15.1527 1.34936C15.0366 1.26402 14.9227 1.19255 14.7937 1.11468C14.2304 0.772262 13.8283 0.570651 13.208 0.323172C13.0586 0.263435 12.4512 0.0394231 12.3061 0.0351562C12.3061 0.258101 12.3244 0.415977 12.3244 0.644255L12.3061 1.91899C12.2954 2.28274 12.1782 3.35693 12.1244 3.67802C12.0589 4.0663 11.9997 4.40019 11.9245 4.77354L11.3666 6.80565C11.2558 7.1342 11.1408 7.43715 11.014 7.7497C10.9484 7.91078 10.7054 8.51241 10.613 8.65962L10.6173 8.66068Z" fill="#FECC00"/>
<path id="Vector_3" fill-rule="evenodd" clip-rule="evenodd" d="M46.5282 15.5678C46.5282 15.0537 45.909 14.8329 45.5822 15.1838C45.4886 15.2841 45.4295 15.4174 45.4295 15.6041V18.3189C45.4295 19.0069 46.4325 19.0827 46.5239 18.3882C46.583 17.9413 46.4615 16.7807 46.5583 16.4287C46.6647 16.0425 46.8969 15.9742 47.2355 15.9742C47.9235 15.9742 47.7945 16.9044 47.7945 17.3781C47.7945 17.6938 47.7795 18.0458 47.7945 18.3573C47.802 18.5152 47.8665 18.6197 47.9439 18.7083C48.1256 18.9184 48.4954 18.9376 48.7126 18.7317C48.8147 18.6357 48.8523 18.5707 48.8813 18.4C48.9921 17.7322 48.7007 16.5065 49.0845 16.1268C49.2963 15.9177 49.9875 15.8313 50.1273 16.4329C50.1961 16.7274 50.1498 17.9445 50.1595 18.3584C50.1627 18.5035 50.2305 18.6347 50.3046 18.7136C50.611 19.0432 51.241 18.8384 51.241 18.3946V16.2527C51.241 15.907 51.1281 15.6308 50.9754 15.427C50.6121 14.9406 49.8338 14.8883 49.3543 15.1017C48.9082 15.3001 48.8835 15.4537 48.7093 15.57C48.5696 15.363 48.5352 15.2926 48.2965 15.1486C48.2159 15.0995 48.1116 15.0558 48.0063 15.0302C47.6322 14.9406 47.3097 14.9747 46.9786 15.1646C46.7668 15.2851 46.5755 15.538 46.5314 15.57L46.5282 15.5678ZM34.4075 16.9524C34.4075 16.4009 34.7677 15.8996 35.3202 15.8996C35.8728 15.8996 36.2512 16.3604 36.2512 16.897V16.9898C36.2512 17.5274 35.8878 17.9872 35.3019 17.9872C34.7515 17.9872 34.4086 17.4634 34.4086 16.9535L34.4075 16.9524ZM34.4258 15.5678C34.4258 15.0803 33.8582 14.8361 33.5088 15.1561C33.44 15.219 33.3465 15.3694 33.3465 15.4932V19.519C33.3465 19.7547 33.5927 19.999 33.8303 19.999C34.0023 19.999 34.17 19.9755 34.2882 19.8262C34.3753 19.7174 34.4269 19.6182 34.4258 19.4272C34.4237 19.0699 34.4258 18.7125 34.4258 18.3562C34.4634 18.384 34.515 18.4704 34.6408 18.5675C35.5255 19.2502 36.6629 18.8192 37.0639 18.0736C37.1864 17.8453 37.3208 17.521 37.3305 17.1935C37.338 16.9407 37.367 17.1124 37.3337 16.8031C37.3283 16.754 37.3337 16.7071 37.3294 16.6591C37.3068 16.3412 37.1853 16.0543 37.0445 15.7961C36.9499 15.6212 36.7983 15.4676 36.6435 15.3438C36.5844 15.2969 36.5371 15.2638 36.4672 15.2233C36.0609 14.9843 35.5331 14.9043 35.0816 15.075C34.6677 15.2318 34.5086 15.5134 34.4247 15.5689L34.4258 15.5678ZM59.3379 14.164V18.3925C59.3379 18.6251 59.5873 18.8725 59.8216 18.8725C60.0173 18.8725 60.1914 18.8384 60.314 18.6592C60.458 18.448 60.4193 18.1898 60.4161 17.8559C60.4139 17.6469 60.4795 17.6949 60.673 17.5007C60.716 17.457 60.7977 17.3898 60.845 17.3578C60.8955 17.3941 60.9557 17.4975 60.9987 17.5562L61.7598 18.5931C61.9469 18.8395 62.0017 18.8725 62.3156 18.8725C62.5414 18.8725 62.7628 18.6731 62.7628 18.3552C62.7628 18.1472 62.3608 17.6757 62.2285 17.5007C62.1232 17.3621 62.0318 17.234 61.9275 17.0975L61.6265 16.6943C61.6642 16.6388 61.6749 16.6367 61.7297 16.594C61.9007 16.4639 62.2307 16.1503 62.3898 16.0297C63.1348 15.4644 62.4468 14.724 61.9082 15.1273C61.6835 15.2947 61.2847 15.7118 61.0632 15.9145C61.0181 15.9561 60.9966 15.9625 60.9504 16.0063C60.9117 16.0436 60.8869 16.0703 60.8482 16.1087L60.415 16.5108V14.8115C60.415 14.58 60.4516 14.1683 60.3838 13.9933C60.171 13.4461 59.3357 13.5944 59.3357 14.1651L59.3379 14.164ZM65.0536 15.8633C65.3493 15.8633 65.4869 15.8686 65.7105 16.1172C65.8448 16.2665 65.8771 16.4169 65.9287 16.6388H64.3087C64.3484 16.5567 64.3635 16.3199 64.5462 16.1172C64.657 15.9934 64.8279 15.8633 65.0536 15.8633ZM63.2476 16.8788C63.2476 17.2426 63.2788 17.5199 63.4272 17.8271C63.5562 18.0928 63.6336 18.193 63.8292 18.3882C64.3441 18.9035 65.2224 19.0485 65.9126 18.8203C66.2179 18.7189 66.7736 18.4565 66.6984 18.0736C66.6296 17.7237 66.292 17.6127 66.0072 17.8047C65.8395 17.9178 65.69 18.001 65.475 18.0341C65.3267 18.0565 65.259 18.049 65.1278 18.0416C64.6763 18.0138 64.4183 17.7077 64.3269 17.3215H65.8911C66.2211 17.3215 66.6747 17.4079 66.8672 17.1263C67.2036 16.6335 66.6984 15.2254 65.5288 15.0206C65.1128 14.9481 64.6881 14.979 64.3388 15.155C64.156 15.2467 64.0582 15.299 63.912 15.4334C63.8507 15.49 63.8389 15.4793 63.7862 15.5486C63.7486 15.5977 63.7217 15.6169 63.6819 15.667C63.6422 15.7182 63.6142 15.7577 63.5809 15.8068C63.3917 16.0916 63.2455 16.4969 63.2455 16.8778L63.2476 16.8788ZM39.7137 15.8633C39.9975 15.8633 40.1663 15.8505 40.4071 16.1172C40.5791 16.3071 40.5952 16.5769 40.6253 16.6388H39.0053C39.0257 16.5972 39.029 16.5439 39.0451 16.4927C39.1096 16.2825 39.2354 16.0564 39.4332 15.954C39.4977 15.9209 39.617 15.8622 39.7127 15.8622L39.7137 15.8633ZM37.9454 16.8234C37.9454 17.4015 38.0013 17.7386 38.3388 18.1877C38.944 18.992 40.2469 19.1446 41.051 18.6112C41.309 18.4394 41.3897 18.384 41.3897 18.0981C41.3897 17.8122 41.0209 17.5669 40.7038 17.8047C40.4415 18.0021 40.1674 18.064 39.8266 18.0426C39.3816 18.0149 39.0526 17.6479 39.0257 17.3226H40.9994C41.1134 17.3226 41.2241 17.329 41.3123 17.3013L41.4703 17.218C41.5477 17.1572 41.6068 17.0751 41.6348 16.9759C41.667 16.8618 41.6573 16.8095 41.6509 16.6954C41.6391 16.4703 41.6025 16.3167 41.5359 16.1439C41.4208 15.8441 41.2295 15.5625 40.9876 15.3758C40.8135 15.2414 40.7898 15.2275 40.5823 15.1315C40.0094 14.8649 39.2741 14.9758 38.7634 15.3097C38.2872 15.6212 37.9443 16.2761 37.9443 16.8244L37.9454 16.8234ZM53.6597 18.1525C53.435 18.1525 53.2845 18.16 53.1147 17.9914C52.8212 17.7023 53.0287 16.9844 54.1026 17.2148L54.424 17.3034C54.424 17.6181 54.4122 17.7557 54.2456 17.92C54.1177 18.0469 53.907 18.1525 53.6608 18.1525H53.6597ZM52.245 15.6041C52.245 16.0233 52.5858 16.1247 52.9126 16.0265C52.9717 16.0084 53.0319 15.9945 53.1082 15.9806C53.4415 15.922 53.9403 15.8846 54.2037 16.1161C54.352 16.2463 54.4036 16.4041 54.4036 16.6751C53.9209 16.5631 54.036 16.5268 53.3791 16.5268C52.66 16.5268 51.9462 16.8938 51.9462 17.6714C51.9462 18.0714 52.0451 18.3946 52.3364 18.6133C52.8578 19.0059 53.6608 19.0037 54.18 18.6315C54.252 18.5803 54.3316 18.4938 54.4036 18.4469C54.4036 18.5813 54.4649 18.6709 54.538 18.7392C54.8444 19.024 55.4464 18.832 55.4464 18.4106V16.5087C55.4464 16.2836 55.3883 16.0436 55.3217 15.875C55.226 15.6318 55.1067 15.4825 54.9099 15.3235C54.3026 14.8371 52.7578 15.0003 52.417 15.2755C52.3332 15.3427 52.245 15.4601 52.245 15.603V15.6041ZM28.8971 15.5305V17.5989C28.8971 18.8352 30.1677 19.1798 30.8525 18.7253C31.1234 18.5451 31.246 18.3573 31.2986 18.3189C31.2986 18.4938 31.3502 18.6048 31.4341 18.7019C31.7276 19.0421 32.379 18.8459 32.379 18.3925V15.4932C32.379 15.1358 31.8404 14.8009 31.462 15.1742C31.3642 15.2702 31.3019 15.3662 31.2986 15.5294C31.289 15.9465 31.347 17.2138 31.246 17.5093C31.2073 17.6213 31.1223 17.7514 31.031 17.8133C30.7364 18.0117 30.1957 17.9914 30.0301 17.5093C29.9388 17.2437 29.9796 15.9145 29.9775 15.5294C29.9742 14.9886 29.1992 14.7998 28.9455 15.3203C28.9143 15.3833 28.8971 15.4441 28.8971 15.5305ZM27.1846 17.7834C27.1846 18.1546 26.6052 18.08 26.3805 18.0277C26.1913 17.9829 25.9602 17.889 25.7989 17.7919C25.7538 17.7653 25.714 17.7365 25.6699 17.7173C25.1486 17.4965 24.811 18.2069 25.2937 18.497C25.8441 18.8267 26.5987 19.0336 27.262 18.8395C27.7425 18.6987 28.1532 18.3509 28.1532 17.8026C28.1532 17.4581 28.1532 17.2757 27.8877 17.0132C27.5641 16.6943 27.1577 16.6079 26.7353 16.4575C26.5826 16.4031 26.2354 16.2836 26.2354 16.1044C26.2354 15.6222 27.1051 15.9028 27.4329 16.0617C28.0156 16.3423 28.3402 15.5593 27.849 15.2979C27.3502 15.0323 26.5998 14.8798 26.0032 15.1177C25.4141 15.3534 25.098 15.9796 25.3195 16.5876C25.4474 16.9386 25.786 17.1551 26.1526 17.2757C26.2537 17.3087 26.33 17.3375 26.4321 17.3674C26.6331 17.4261 27.1835 17.5391 27.1835 17.7855L27.1846 17.7834ZM67.9594 14.5704V15.0505C67.3133 15.0505 67.2724 15.9742 67.9594 15.9742V17.8581C67.9594 18.4746 68.3087 18.8917 68.9279 18.8917C69.2322 18.8917 69.717 18.9045 69.8933 18.6304C69.9857 18.4874 69.9911 18.3338 69.9159 18.1888C69.8578 18.0768 69.7557 17.985 69.6299 17.9541C69.4138 17.9008 69.0387 18.0917 69.0387 17.5434V15.9732H69.56C69.7922 15.9732 70.0083 15.7214 69.9814 15.4814C69.9245 14.9726 69.4031 15.0494 69.0387 15.0494V14.532C69.0387 14.3059 68.7828 14.052 68.5549 14.052C68.384 14.052 68.2324 14.0733 68.1034 14.2131C68.0314 14.2899 67.9594 14.4264 67.9594 14.5694V14.5704ZM42.47 15.5486V18.337C42.47 18.6187 42.7173 18.8725 42.9538 18.8725C43.4612 18.8725 43.5687 18.5803 43.5687 18.1152C43.5687 17.3983 43.4332 16.4937 44.1331 16.1449C44.4416 15.9913 44.8157 16.034 44.8157 15.5113C44.8157 15.1305 44.4147 14.867 44.0084 15.0985C43.9331 15.1411 43.8912 15.1987 43.8331 15.2563C43.7729 15.3161 43.7364 15.3705 43.6902 15.4473L43.5687 15.6585C43.5687 14.7443 42.47 14.8883 42.47 15.5476V15.5486ZM56.3784 15.4932V18.4106C56.3784 18.6315 56.6353 18.8725 56.8621 18.8725C57.089 18.8725 57.2137 18.848 57.3599 18.6464C57.6985 18.1813 56.9944 16.4084 58.2209 16.0649C58.5854 15.9636 58.7047 15.8665 58.7047 15.4558C58.7047 15.3193 58.6251 15.2179 58.552 15.1454C58.322 14.9203 57.9651 14.9854 57.7318 15.2478C57.6802 15.3065 57.6265 15.3844 57.5835 15.4516L57.4566 15.6766C57.4566 15.4494 57.4426 15.3342 57.3308 15.2105C57.1062 14.9609 56.7643 14.9481 56.5396 15.155C56.4708 15.2179 56.3773 15.3683 56.3773 15.4921L56.3784 15.4932ZM10.5941 8.70986L10.6049 8.71733L10.6156 8.66079L10.5135 7.87248C10.2942 6.3652 9.75778 4.71285 8.99345 3.39651C8.93433 3.29517 8.88273 3.20663 8.82145 3.1053C8.6215 2.77568 8.213 2.19111 7.955 1.91483C7.9077 1.8647 7.89588 1.83696 7.8432 1.78576C7.66475 1.61188 7.46695 1.36227 7.26915 1.21079C7.21433 1.16919 7.1939 1.13612 7.14445 1.09452C7.0391 1.00705 6.21135 0.326481 6.063 0.360616C5.83618 0.411819 4.77408 0.971849 4.5322 1.13399C4.128 1.40387 3.9818 1.48921 3.58835 1.80389C3.53675 1.8455 3.50665 1.87323 3.45613 1.9127C3.4013 1.95537 3.3841 1.97777 3.3368 2.0151L2.73373 2.58047C2.6918 2.621 2.6617 2.64874 2.62193 2.69034L1.99413 3.43385C1.71785 3.79227 1.57595 4.00881 1.33408 4.40456L1.0879 4.84299C0.770775 5.47342 0.56545 5.96411 0.366575 6.65749C0.1591 7.37219 0 8.29491 0 9.04801V9.05441C0 9.56537 0.005375 9.88752 0.059125 10.3761C0.072025 10.4902 0.1118 10.6705 0.1118 10.7857L2.31555 9.81392C2.51658 9.74245 2.68535 9.67951 2.89283 9.61124C3.92913 9.26882 5.01595 8.99894 6.1017 8.84214C6.32638 8.80907 6.55858 8.78133 6.80905 8.74933C6.91763 8.73546 7.0348 8.728 7.16488 8.71519C7.2713 8.70453 7.42073 8.68106 7.54005 8.68106C7.78838 8.68106 8.02165 8.64372 8.3033 8.64372C8.41833 8.64372 8.5828 8.65333 8.69138 8.64052C9.00635 8.60532 8.85048 8.64372 9.06548 8.64372C9.19555 8.64372 9.3267 8.64372 9.45678 8.64372L10.2147 8.68533C10.2867 8.69493 10.5114 8.7216 10.592 8.71093L10.5941 8.70986Z" fill="#393185"/>
</g>
<defs>
<clipPath id="clip0_552_5588">
<rect width="86" height="20" fill="white"/>
</clipPath>
</defs>
</svg>
