<svg width="90" height="60" viewBox="0 0 90 60" fill="none" xmlns="http://www.w3.org/2000/svg">
<g id="Samsung_Electronics-Logo.wine 1">
<g id="Group">
<path id="a" d="M14.9781 32.0917C15.0733 32.331 15.0431 32.6377 14.9966 32.8235C14.9153 33.1534 14.6923 33.4903 14.0325 33.4903C13.4146 33.4903 13.0382 33.1325 13.0382 32.5936V31.6341H10.3828V32.3961C10.3828 34.6031 12.1182 35.2699 13.9791 35.2699C15.7679 35.2699 17.2408 34.6612 17.4755 33.0094C17.5963 32.1545 17.508 31.5946 17.4662 31.3878C17.048 29.3155 13.2938 28.6976 13.0127 27.5383C12.9736 27.3674 12.9705 27.1902 13.0034 27.0179C13.0731 26.6996 13.2891 26.3535 13.9071 26.3535C14.4879 26.3535 14.8247 26.7113 14.8247 27.2502V27.8636H17.2943V27.1666C17.2943 25.0107 15.3591 24.6738 13.9605 24.6738C12.1995 24.6738 10.7615 25.2569 10.499 26.8716C10.4293 27.313 10.4177 27.7079 10.5222 28.2051C10.952 30.2262 14.467 30.8117 14.9781 32.0917Z" fill="#1628A4"/>
<path id="a_2" d="M47.0406 32.0917C47.1358 32.331 47.1056 32.6377 47.0591 32.8235C46.9778 33.1534 46.7548 33.4903 46.095 33.4903C45.4771 33.4903 45.1007 33.1325 45.1007 32.5936V31.6341H42.4453V32.3961C42.4453 34.6031 44.1807 35.2699 46.0416 35.2699C47.8304 35.2699 49.3033 34.6612 49.538 33.0094C49.6588 32.1545 49.5705 31.5946 49.5287 31.3878C49.1105 29.3155 45.3563 28.6976 45.0752 27.5383C45.0361 27.3674 45.033 27.1902 45.0659 27.0179C45.1356 26.6996 45.3516 26.3535 45.9696 26.3535C46.5504 26.3535 46.8872 26.7113 46.8872 27.2502V27.8636H49.3568V27.1666C49.3568 25.0107 47.4216 24.6738 46.023 24.6738C44.262 24.6738 42.824 25.2569 42.5615 26.8716C42.4918 27.313 42.4802 27.7079 42.5847 28.2051C43.0145 30.2262 46.5295 30.8117 47.0406 32.0917Z" fill="#1628A4"/>
<path id="Vector" d="M20.9759 24.6762L19.1406 34.5706H21.8146L23.169 25.5915H23.2248L24.542 34.5706H27.2021L25.3784 24.6738L20.9759 24.6762ZM35.9256 24.6762L34.7059 32.2404H34.6478L33.4305 24.6762H29.3951L29.1768 34.5706H31.6533L31.7137 25.6751H31.7694L33.4212 34.5706H35.9326L37.5867 25.6774H37.6401L37.7028 34.5706H40.177L39.9586 24.6738L35.9256 24.6762Z" fill="#1628A4"/>
<path id="Vector_2" d="M55.4507 33.3556C56.1383 33.3556 56.3497 32.8816 56.3985 32.64C56.4194 32.5332 56.4217 32.3891 56.4217 32.2613V24.9433H58.9261V32.036C58.9266 32.253 58.9189 32.47 58.9029 32.6865C58.7287 34.5334 57.2697 35.1328 55.4507 35.1328C53.6293 35.1328 52.1703 34.5334 51.9961 32.6865C51.9891 32.5889 51.9705 32.2172 51.9729 32.036V24.941H54.4772V32.259C54.4749 32.3891 54.4796 32.5332 54.5005 32.64C54.5469 32.8816 54.7607 33.3556 55.4507 33.3556ZM67.5498 24.9433L67.6845 32.7097H67.6311L65.3544 24.9433H61.6838V34.7332H64.1161L63.9814 26.6973H64.0348L66.4765 34.7332H70.0007V24.9433H67.5498ZM76.0875 33.2533C76.803 33.2533 77.0539 32.8003 77.0981 32.5331C77.119 32.424 77.1213 32.2846 77.1213 32.1614V30.7211H76.1061V29.2807H79.6117V31.9338C79.6117 32.1196 79.6071 32.2544 79.5769 32.5843C79.4143 34.387 77.8508 35.0306 76.0968 35.0306C74.3428 35.0306 72.7816 34.387 72.6166 32.5843C72.5888 32.2544 72.5818 32.1196 72.5818 31.9338V27.7706C72.5818 27.5941 72.605 27.2828 72.6236 27.1201C72.8443 25.2686 74.3428 24.6738 76.0968 24.6738C77.8508 24.6738 79.3887 25.2639 79.5699 27.1178C79.6024 27.4338 79.5932 27.7683 79.5932 27.7683V28.1005H77.0981V27.5453C77.0981 27.5453 77.0981 27.313 77.0679 27.1689C77.0214 26.9505 76.8355 26.4487 76.0782 26.4487C75.358 26.4487 75.1466 26.925 75.0932 27.1689C75.0629 27.299 75.0513 27.4756 75.0513 27.6359V32.1591C75.0513 32.2846 75.056 32.424 75.0746 32.5355C75.121 32.8003 75.3719 33.2533 76.0875 33.2533Z" fill="#1529A1"/>
</g>
</g>
</svg>
