<svg width="66" height="24" viewBox="0 0 66 24" fill="none" xmlns="http://www.w3.org/2000/svg">
<g id="smart_logo 1" clip-path="url(#clip0_552_5596)">
<path id="Vector" fill-rule="evenodd" clip-rule="evenodd" d="M13.4507 10.8049C11.5109 9.98944 7.52151 9.48475 5.72334 8.5512C4.09608 7.70964 4.1205 5.93329 5.13616 4.86549C6.8147 3.09287 12.4936 3.02326 13.8523 6.13716C13.9109 6.27016 13.95 6.41436 13.9878 6.55607H17.5414C17.3547 5.65236 17.29 5.0967 16.6918 4.07117C15.0572 1.26058 12.4253 0.184082 8.81429 0.184082C6.59984 0.184082 4.68204 0.836695 3.34166 1.75657C2.17095 2.56332 0.808594 4.45155 0.808594 6.41063C0.808594 7.85757 0.975837 8.83214 1.7974 9.98695L2.75814 11.0237C3.15976 11.3531 3.42833 11.5955 3.92273 11.8478C6.22873 13.035 7.78641 13.1294 10.0338 13.7783C10.7187 13.9797 11.4694 14.145 12.0639 14.3688C12.7866 14.6373 13.1699 14.907 13.4495 15.091V10.8049H13.4507Z" fill="#4EB857"/>
<path id="Vector_2" fill-rule="evenodd" clip-rule="evenodd" d="M13.4515 19.3669C13.3672 19.4353 13.2793 19.5037 13.1866 19.5658C10.955 21.0563 5.57762 20.8126 4.16399 17.925C3.91984 17.4215 3.84049 17.2202 3.70254 16.6558L3.49624 15.4898C3.35097 15.1741 3.47548 15.3618 3.28749 15.3493L0 15.6651C0 17.7497 0.427263 19.2315 1.52594 20.7057C3.3766 23.1782 6.34059 23.9986 9.89542 23.9986C11.0295 23.9986 12.5066 23.7015 13.4527 23.3448V19.3669H13.4515Z" fill="#4EB857"/>
<path id="Vector_3" fill-rule="evenodd" clip-rule="evenodd" d="M34.9817 14.0181C34.9817 17.4602 36.1963 19.8692 38.3131 21.4367C39.9685 22.6624 43.1314 23.2902 45.2458 23.3598L47.9388 23.2703V8.52246H41.9986C39.7683 8.52246 38.2875 8.71389 36.9227 9.6723C35.791 10.4704 34.9805 12.0888 34.9805 14.0193L34.9817 14.0181Z" fill="#F15A31"/>
<path id="Vector_4" fill-rule="evenodd" clip-rule="evenodd" d="M17.632 9.34526V7.32775H14.1211V22.9905C14.1211 23.203 14.1858 23.2689 14.3945 23.2689H17.4525V14.3809C17.4525 13.0384 17.9982 11.5306 18.6428 10.8307C20.0857 9.25949 23.0228 8.57083 24.0153 10.5361C24.318 11.134 24.4682 12.1857 24.4682 13.0993V23.2689C27.5054 23.2689 27.1856 23.4914 27.1697 22.4485L27.1648 14.5649C27.1648 12.847 27.2198 11.9246 27.9205 10.8432C29.2047 8.86916 32.8328 8.72497 33.47 11.0781C33.7679 12.1894 33.6751 20.2992 33.6422 22.4485C33.6251 23.4902 33.3077 23.2689 36.3437 23.2689C36.3437 18.0443 36.412 21.275 35.1486 17.9796C34.4808 16.2505 34.2074 13.2361 34.9911 11.4498C35.118 11.1676 35.2523 10.873 35.4281 10.607C35.8261 10.0227 36.3925 9.94939 35.4574 8.68643C33.6873 6.29476 29.6613 6.4315 27.5469 8.63049C27.2771 8.9077 26.9622 9.43228 26.7156 9.61625C26.2004 8.62552 26.1443 8.40301 25.2385 7.733C23.4061 6.36562 19.8574 6.75594 18.058 8.86046C17.8835 9.06557 17.8444 9.19858 17.6295 9.34402L17.632 9.34526Z" fill="#4EB857"/>
<path id="Vector_5" fill-rule="evenodd" clip-rule="evenodd" d="M60.3337 3.29686V7.23491C57.8714 7.23491 58.3548 6.72774 58.3548 9.43515H60.3337V19.9714C60.3337 23.5627 63.3489 23.8076 65.9992 23.1748C65.9992 22.4228 65.7013 21.4457 65.6391 20.7024C65.0348 20.8466 63.7054 20.9895 63.261 20.3767C63.0853 20.1343 63.0303 19.8049 63.0303 19.4207V9.43515H65.6391C65.6391 8.14111 65.8356 7.23491 65.3705 7.23491H63.0303V1.83252C62.426 1.88349 60.9575 3.14769 60.3337 3.29686Z" fill="#4EB857"/>
<path id="Vector_6" fill-rule="evenodd" clip-rule="evenodd" d="M51.6402 9.61869V7.23572H49.4844C49.2744 7.23572 49.2109 7.29912 49.2109 7.51417V23.1756H51.9125C51.9125 20.6336 51.7147 14.1683 52.3055 12.0365C52.8292 10.1408 54.2893 9.41856 55.9715 9.97421C56.3365 10.0935 56.483 10.2638 56.8565 10.3546C57.0372 9.57643 57.6292 8.35946 57.7586 7.7864C55.272 6.44637 53.4213 6.57814 51.9503 9.1053L51.7525 9.46082C51.6537 9.62864 51.7245 9.52546 51.6402 9.61869Z" fill="#4EB857"/>
<path id="Vector_7" fill-rule="evenodd" clip-rule="evenodd" d="M44.1602 4.57948C44.1602 5.4459 44.5056 6.30984 45.7789 6.23152C47.9897 6.09603 49.0261 4.06982 49.7439 2.16792C49.9538 1.61226 50.2212 0.686176 50.2761 0C49.8977 0.00870151 47.2181 0.76076 46.294 1.34998C45.3821 1.93173 44.1602 3.17356 44.1602 4.57948Z" fill="#4EB857"/>
<path id="Vector_8" fill-rule="evenodd" clip-rule="evenodd" d="M39.4856 3.48168C39.4856 4.22504 39.9654 4.23374 40.5013 4.46371C42.6901 5.39104 43.2931 7.42719 43.6215 7.51296C43.8827 7.58133 44.2111 7.13507 44.2941 6.82057C44.4419 6.26243 43.1967 4.49354 42.8793 4.14796C42.0321 3.21939 41.2752 2.46857 40.0886 1.96637C39.875 1.87563 39.5564 1.71776 39.5503 1.86195C39.5503 1.86195 39.4844 3.12616 39.4844 3.48168H39.4856Z" fill="#4EB857"/>
</g>
<defs>
<clipPath id="clip0_552_5596">
<rect width="66" height="24" fill="white"/>
</clipPath>
</defs>
</svg>
