<svg width="84" height="23" viewBox="0 0 84 23" fill="none" xmlns="http://www.w3.org/2000/svg">
<g id="TERRA_PRO 1" clip-path="url(#clip0_552_5609)">
<path id="Vector" d="M5.145 17.3301V13.8108H9.0153V12.4737H0V13.8108H3.8304V17.3301H5.145ZM18.9399 17.3301H9.93615V12.4726H18.9399V13.8098H11.2308V14.2114H18.9399V15.4891H11.2308V15.8917H18.9399V17.329V17.3301ZM27.5867 14.0101C27.5867 13.9506 27.5467 13.8849 27.4659 13.8108H21.1354V14.1926H27.4659C27.5467 14.1446 27.5867 14.0841 27.5867 14.0101ZM28.8729 14.3042C28.8729 15.0281 28.643 15.4192 28.1841 15.4797L28.9537 17.3311H27.5782L26.7971 15.4912H21.1354V17.3311H19.8492V12.4518H28.0434C28.5978 12.4518 28.8729 12.8137 28.8729 13.5386V14.3063V14.3042ZM37.4913 14.0101C37.4913 13.9506 37.4514 13.8849 37.3705 13.8108H31.0401V14.1926H37.3705C37.4514 14.1446 37.4913 14.0841 37.4913 14.0101ZM38.7775 14.3042C38.7775 15.0281 38.5476 15.4192 38.0887 15.4797L38.8584 17.3311H37.4829L36.7017 15.4912H31.0401V17.3311H29.7538V12.4518H37.948C38.5024 12.4518 38.7775 12.8137 38.7775 13.5386V14.3063V14.3042ZM41.0256 13.8505C41.0109 13.8505 40.9857 13.8932 40.9448 13.9819V14.1926H47.3361V13.9903C47.2878 13.9162 47.2552 13.8703 47.2353 13.8505H41.0256ZM48.6822 17.3301H47.3266V15.4901H40.9448V17.3301H39.6585V13.5084C39.6669 12.8179 40.0312 12.4726 40.7526 12.4726H47.7005C48.3546 12.4726 48.6822 12.8408 48.6822 13.5793V17.3301ZM62.8845 14.0299C62.8845 13.9642 62.8362 13.8901 62.7407 13.8108H56.4417V14.2124H62.7721C62.8467 14.1644 62.8845 14.1039 62.8845 14.0299ZM56.4417 15.4901V17.3301H55.1554V12.4507H63.3497C63.904 12.4507 64.1791 12.8127 64.1791 13.5376V14.3052C64.1791 15.0948 63.904 15.4922 63.3497 15.4922H56.4417V15.4901ZM72.8175 14.0101C72.8175 13.9506 72.7776 13.8849 72.6967 13.8108H66.3663V14.1926H72.6967C72.7776 14.1446 72.8175 14.0841 72.8175 14.0101ZM74.1037 14.3042C74.1037 15.0281 73.8738 15.4192 73.4149 15.4797L74.1846 17.3311H72.8091L72.0279 15.4912H66.3663V17.3311H65.08V12.4518H73.2742C73.8286 12.4518 74.1037 12.8137 74.1037 13.5386V14.3063V14.3042ZM82.5615 15.9439C82.5877 15.9355 82.6329 15.8813 82.6938 15.7811V14.0414C82.6938 13.961 82.6707 13.9016 82.6224 13.8588C82.5741 13.8192 82.5163 13.7931 82.4502 13.7785L82.4901 13.79H76.4232C76.3486 13.8098 76.3109 13.8922 76.3109 14.0414V15.7811C76.3507 15.8896 76.3885 15.9439 76.4232 15.9439H82.5615ZM75.9182 17.3301C75.2955 17.3301 74.9847 16.9076 74.9847 16.0638V13.5678C74.9847 12.8231 75.2976 12.4497 75.9265 12.4497H83.098C83.6976 12.4497 84 12.8231 84 13.5678V16.0638C84 16.9076 83.6986 17.3301 83.098 17.3301H75.9171H75.9182ZM11.677 22.3627L11.9343 22.2094C12.1149 22.5411 12.3238 22.7059 12.5622 22.7059C12.664 22.7059 12.7596 22.6819 12.8489 22.636C12.9381 22.5901 13.0063 22.5265 13.0536 22.4472C13.0998 22.3679 13.1229 22.2845 13.1229 22.1958C13.1229 22.0946 13.0882 21.9945 13.02 21.8986C12.9255 21.764 12.7522 21.6044 12.5013 21.4146C12.2493 21.2258 12.0907 21.0881 12.0288 21.0036C11.9227 20.8618 11.8681 20.7095 11.8681 20.5437C11.8681 20.4122 11.8996 20.2933 11.9626 20.1848C12.0257 20.0764 12.1149 19.9929 12.2294 19.9293C12.3438 19.8678 12.4688 19.8365 12.6042 19.8365C12.747 19.8365 12.8804 19.8719 13.0053 19.9418C13.1302 20.0117 13.2615 20.141 13.4001 20.3298L13.1523 20.5155C13.0389 20.3653 12.9402 20.2672 12.8604 20.2182C12.7806 20.1702 12.6913 20.1473 12.5968 20.1473C12.475 20.1473 12.3753 20.1838 12.2976 20.2579C12.2199 20.3319 12.1811 20.4216 12.1811 20.5301C12.1811 20.5958 12.1947 20.6594 12.222 20.7199C12.2493 20.7815 12.2997 20.8482 12.3732 20.9212C12.4131 20.9609 12.5433 21.06 12.7648 21.2227C13.0263 21.4135 13.2079 21.5846 13.3056 21.7348C13.4022 21.886 13.4515 22.0362 13.4515 22.1885C13.4515 22.4065 13.3675 22.5963 13.2016 22.757C13.0347 22.9186 12.831 22.999 12.5916 22.999C12.4078 22.999 12.2409 22.9499 12.0918 22.8519C11.9427 22.7549 11.8031 22.5911 11.6781 22.3627H11.677ZM15.225 19.9126H15.5274V22.9239H15.225V19.9126ZM17.262 22.9239L17.6925 19.9126H17.7418L18.9735 22.3836L20.1936 19.9126H20.2429L20.6787 22.9239H20.3794L20.0833 20.771L19.0113 22.9239H18.9357L17.85 20.7543L17.556 22.9239H17.2631H17.262ZM22.4543 19.9126H23.0569C23.4024 19.9126 23.6376 19.9283 23.7584 19.9575C23.9316 19.9992 24.0733 20.0858 24.1825 20.2182C24.2928 20.3496 24.3474 20.5165 24.3474 20.7147C24.3474 20.9129 24.2938 21.0819 24.1868 21.2112C24.0786 21.3416 23.9305 21.4302 23.7426 21.474C23.605 21.5074 23.3488 21.5241 22.9719 21.5241H22.7556V22.9239H22.4532V19.9126H22.4543ZM22.7566 20.2047V21.2289L23.2701 21.2352C23.4769 21.2352 23.6292 21.2164 23.7258 21.1778C23.8214 21.1413 23.8969 21.0808 23.9515 20.9963C24.0061 20.9118 24.0345 20.818 24.0345 20.7147C24.0345 20.6114 24.0072 20.5228 23.9515 20.4383C23.8969 20.3538 23.8234 20.2944 23.7342 20.2589C23.6439 20.2234 23.4969 20.2057 23.2932 20.2057H22.7577L22.7566 20.2047ZM26.1303 19.9126H26.4359V22.6329H27.6013V22.9239H26.1313V19.9126H26.1303ZM29.2604 19.9126H30.997V20.2099H29.5627V21.1507H30.9855V21.4459H29.5627V22.6266H30.9855V22.9239H29.2604V19.9126ZM35.0416 19.9126H35.6443C35.9898 19.9126 36.225 19.9283 36.3457 19.9575C36.519 19.9992 36.6607 20.0858 36.77 20.2182C36.8802 20.3496 36.9348 20.5165 36.9348 20.7147C36.9348 20.9129 36.8812 21.0819 36.7742 21.2112C36.666 21.3416 36.5179 21.4302 36.33 21.474C36.1924 21.5074 35.9362 21.5241 35.5593 21.5241H35.343V22.9239H35.0406V19.9126H35.0416ZM35.344 20.2047V21.2289L35.8575 21.2352C36.0644 21.2352 36.2166 21.2164 36.3132 21.1778C36.4087 21.1413 36.4843 21.0808 36.5389 20.9963C36.5935 20.9118 36.6219 20.818 36.6219 20.7147C36.6219 20.6114 36.5946 20.5228 36.5389 20.4383C36.4843 20.3538 36.4109 20.2944 36.3216 20.2589C36.2323 20.2234 36.0843 20.2057 35.8806 20.2057H35.3451L35.344 20.2047ZM38.7198 19.9126H40.4565V20.2099H39.0222V21.1507H40.445V21.4459H39.0222V22.6266H40.445V22.9239H38.7198V19.9126ZM42.1732 19.9126H42.777C43.113 19.9126 43.3419 19.9272 43.4616 19.9543C43.6412 19.995 43.7871 20.0826 43.9005 20.2172C44.0128 20.3517 44.0695 20.5176 44.0695 20.7137C44.0695 20.8764 44.0317 21.0203 43.953 21.1444C43.8753 21.2696 43.764 21.3635 43.6191 21.4261C43.4742 21.4886 43.2757 21.522 43.0216 21.5231L44.1115 22.9228H43.7367L42.6479 21.5231H42.4746V22.9228H42.1722V19.9116L42.1732 19.9126ZM42.4756 20.2067V21.23L42.9975 21.2352C43.2001 21.2352 43.3492 21.2164 43.4458 21.1768C43.5424 21.1392 43.618 21.0777 43.6716 20.9942C43.7252 20.9108 43.7524 20.8169 43.7524 20.7137C43.7524 20.6104 43.7252 20.5197 43.6716 20.4383C43.617 20.3559 43.5445 20.2964 43.4553 20.261C43.366 20.2255 43.2169 20.2078 43.009 20.2078H42.4756V20.2067ZM45.5826 22.3627L45.8398 22.2094C46.0205 22.5411 46.2294 22.7059 46.4677 22.7059C46.5696 22.7059 46.6651 22.6819 46.7544 22.636C46.8436 22.5901 46.9119 22.5265 46.9591 22.4472C47.0053 22.3679 47.0285 22.2845 47.0285 22.1958C47.0285 22.0946 46.9938 21.9945 46.9255 21.8986C46.831 21.764 46.6578 21.6044 46.4058 21.4146C46.1538 21.2258 45.9952 21.0881 45.9333 21.0036C45.8272 20.8618 45.7726 20.7095 45.7726 20.5437C45.7726 20.4122 45.8041 20.2933 45.8671 20.1848C45.9301 20.0764 46.0194 19.9929 46.1338 19.9293C46.2483 19.8678 46.3732 19.8365 46.5087 19.8365C46.6515 19.8365 46.7849 19.8719 46.9098 19.9418C47.0347 20.0117 47.166 20.141 47.3046 20.3298L47.0568 20.5155C46.9434 20.3653 46.8447 20.2672 46.7649 20.2182C46.6851 20.1702 46.5958 20.1473 46.5013 20.1473C46.3795 20.1473 46.2798 20.1838 46.2021 20.2579C46.1244 20.3319 46.0855 20.4216 46.0855 20.5301C46.0855 20.5958 46.0992 20.6594 46.1265 20.7199C46.1538 20.7815 46.2042 20.8482 46.2777 20.9212C46.3176 20.9609 46.4478 21.06 46.6693 21.2227C46.9319 21.4135 47.1124 21.5846 47.2101 21.7348C47.3067 21.886 47.356 22.0362 47.356 22.1885C47.356 22.4065 47.272 22.5963 47.1061 22.757C46.9392 22.9186 46.7355 22.999 46.4961 22.999C46.3124 22.999 46.1454 22.9499 45.9963 22.8519C45.8472 22.7549 45.7075 22.5911 45.5826 22.3627ZM50.6194 19.8365C51.0772 19.8365 51.4615 19.9888 51.7713 20.2933C52.08 20.5989 52.2343 20.9734 52.2343 21.4177C52.2343 21.862 52.08 22.2334 51.7724 22.539C51.4636 22.8467 51.0877 23 50.6446 23C50.2015 23 49.8151 22.8467 49.5075 22.5411C49.1978 22.2355 49.0434 21.8652 49.0434 21.4313C49.0434 21.1424 49.1138 20.8743 49.2555 20.6271C49.3951 20.3809 49.5883 20.1869 49.8309 20.0472C50.0734 19.9074 50.337 19.8365 50.6205 19.8365H50.6194ZM50.6342 20.1316C50.4105 20.1316 50.1973 20.1901 49.9978 20.3048C49.7973 20.4216 49.6398 20.5781 49.5275 20.7742C49.4151 20.9703 49.3584 21.1903 49.3584 21.4313C49.3584 21.789 49.4823 22.0905 49.7332 22.3366C49.9821 22.5828 50.2824 22.7059 50.6342 22.7059C50.8683 22.7059 51.0867 22.6485 51.2862 22.5359C51.4857 22.4232 51.6422 22.2678 51.7534 22.0717C51.8647 21.8756 51.9214 21.6566 51.9214 21.4167C51.9214 21.1768 51.8647 20.9629 51.7534 20.7689C51.6422 20.5749 51.4846 20.4206 51.2809 20.3048C51.0773 20.1901 50.862 20.1316 50.6342 20.1316ZM54.0225 22.9239V19.9126H54.0886L56.1046 22.2177V19.9126H56.4039V22.9239H56.3357L54.3364 20.648V22.9239H54.0235H54.0225ZM59.5591 19.9126L60.9714 22.9239H60.6459L60.1692 21.933H58.863L58.3895 22.9239H58.0513L59.4846 19.9126H59.5591ZM59.5224 20.552L59.0005 21.643H60.0369L59.5224 20.552ZM62.6199 19.9126H62.9254V22.6329H64.091V22.9239H62.6209V19.9126H62.6199ZM65.7038 19.9126H66.0061V22.9239H65.7038V19.9126ZM67.578 20.2047V19.9126H69.2412V20.2047H68.565V22.9239H68.2563V20.2047H67.578ZM70.6146 19.9126H70.9642L71.7391 21.1528L72.5014 19.9126H72.8521L71.8924 21.4845V22.9239H71.5932V21.4845L70.6146 19.9126ZM45.2844 10.059V8.58211C45.2844 8.58211 45.3978 8.12734 45.7338 8.12734H49.1673C49.1673 8.12734 49.5873 8.09605 49.5873 7.78418V2.76092C49.5873 2.76092 49.5799 2.33014 49.1536 2.33014H42.3276C42.3276 2.33014 41.8362 2.36456 41.8362 2.77761C41.8362 3.19065 42.0704 3.23967 42.3297 3.23967H48.2349C48.2349 3.23967 48.6318 3.29182 48.6318 3.67149V6.80581C48.6318 6.80581 48.4942 7.19069 48.28 7.19069H44.9285C44.9285 7.19069 44.3667 7.08013 44.3667 7.68405V10.0601C44.3667 10.0601 44.416 10.4147 44.8088 10.4147C45.2015 10.4147 45.2833 10.0601 45.2833 10.0601L45.2844 10.059ZM41.9107 7.18339H36.4129C36.4129 7.18339 35.9121 7.05197 35.9121 6.78704V3.77996C35.9121 3.77996 35.8837 3.2282 36.4675 3.2282H39.6343C39.6343 3.2282 40.0176 3.14371 40.0176 2.79117C40.0176 2.43862 39.7603 2.33119 39.6438 2.33119H36.4602C36.4602 2.33119 35.931 2.2467 35.931 1.93379V0.377579C35.931 0.377579 35.9804 0 35.4942 0C35.1194 0 35.0049 0.239898 35.0049 0.365063V7.6611C35.0049 7.6611 35.0196 8.1482 35.4281 8.1482C35.8365 8.1482 41.9244 8.12421 41.9244 8.12421C41.9244 8.12421 42.5649 8.1482 42.5649 7.65902C42.5649 7.16983 42.0452 7.18235 41.9118 7.18235L41.9107 7.18339Z" fill="#231F20"/>
</g>
<defs>
<clipPath id="clip0_552_5609">
<rect width="84" height="23" fill="white"/>
</clipPath>
</defs>
</svg>
