<svg width="1067" height="440" viewBox="0 0 1067 440" fill="none" xmlns="http://www.w3.org/2000/svg">
   <g opacity="0.3">
      <path opacity="0.0144928"
            d="M208.683 732.617C212.951 739.438 221.219 742.612 228.956 740.399L468.381 671.905C472.957 670.596 476.83 667.534 479.16 663.384L653.666 352.537C655.499 349.273 656.271 345.521 655.878 341.799L623.052 31.3188C622.339 24.5706 617.902 18.7922 611.567 16.3603L408.824 -61.4655C402.489 -63.8974 395.325 -62.5719 390.279 -58.0344L158.133 150.733C155.35 153.236 153.414 156.541 152.592 160.192L74.278 507.964C73.2325 512.607 74.0621 517.474 76.5865 521.509L208.683 732.617Z"
            stroke="white" stroke-width="2.12842"/>
      <path opacity="0.0289855"
            d="M175.36 712.048C179.266 719.058 187.331 722.649 195.155 720.861L436.186 665.778C440.832 664.716 444.87 661.86 447.419 657.834L636.346 359.404C638.354 356.232 639.324 352.514 639.12 348.765L622.314 39.6997C621.946 32.9326 617.819 26.9414 611.628 24.1849L414.416 -63.6196C408.225 -66.3761 401.012 -65.4336 395.736 -61.179L154.81 133.137C151.888 135.493 149.774 138.702 148.76 142.317L53.4008 482.405C52.1141 486.994 52.6938 491.906 55.0136 496.069L175.36 712.048Z"
            stroke="white" stroke-width="2.12842"/>
      <path opacity="0.0434783"
            d="M142.891 690.603C146.428 697.783 154.269 701.779 162.157 700.419L404.05 658.724C408.753 657.914 412.944 655.273 415.707 651.381L618.238 366.019C620.417 362.948 621.582 359.273 621.569 355.508L620.545 48.6753C620.523 41.9071 616.717 35.72 610.687 32.6473L419.491 -64.7719C413.46 -67.8446 406.218 -67.2868 400.729 -63.3268L151.894 116.197C148.84 118.4 146.552 121.502 145.349 125.07L33.5308 456.652C32.0056 461.175 32.3332 466.118 34.442 470.4L142.891 690.603Z"
            stroke="white" stroke-width="2.12842"/>
      <path opacity="0.057971"
            d="M111.32 668.337C114.479 675.667 122.076 680.053 130.004 679.124L372.023 650.755C376.771 650.198 381.104 647.782 384.073 644.035L599.362 372.339C601.707 369.379 603.066 365.758 603.245 361.985L617.725 58.1824C618.047 51.431 614.571 45.0652 608.718 41.6856L424 -64.9611C418.147 -68.3406 410.896 -68.1679 405.21 -64.5136L149.349 99.9278C146.172 101.97 143.715 104.957 142.324 108.468L14.6729 430.762C12.9126 435.206 12.9866 440.167 14.8785 444.557L111.32 668.337Z"
            stroke="white" stroke-width="2.12842"/>
      <path opacity="0.0724638"
            d="M80.6801 645.306C83.4559 652.766 90.7893 657.529 98.7335 657.03L340.153 641.883C344.931 641.583 349.394 639.398 352.562 635.808L579.738 378.325C582.245 375.484 583.794 371.926 584.167 368.156L613.833 68.1581C614.497 61.441 611.359 54.9143 605.699 51.238L427.898 -64.2273C422.237 -67.9035 414.998 -68.1154 409.132 -64.7765L147.137 84.3448C143.844 86.219 141.224 89.0815 139.648 92.527L-3.17385 404.791C-5.16513 409.144 -5.34588 414.111 -3.67632 418.598L80.6801 645.306Z"
            stroke="white" stroke-width="2.12842"/>
      <path opacity="0.0869565"
            d="M51.0022 621.571C53.3898 629.14 60.4407 634.263 68.3776 634.195L308.482 632.128C313.276 632.086 317.858 630.14 321.215 626.717L559.386 383.939C562.048 381.225 563.786 377.741 564.352 373.983L608.848 78.54C609.852 71.8746 607.059 65.2051 601.606 61.2431L431.135 -62.6113C425.682 -66.5733 418.476 -67.1679 412.447 -64.1535L145.214 69.4613C141.814 71.1611 139.038 73.8904 137.28 77.2603L-20.0169 378.797C-22.2346 383.048 -22.6703 388.007 -21.2279 392.58L51.0022 621.571Z"
            stroke="white" stroke-width="2.12842"/>
      <path opacity="0.101449"
            d="M22.3238 597.191C24.3194 604.849 31.0698 610.316 38.976 610.675L277.063 621.507C281.86 621.725 286.547 620.024 290.086 616.778L538.341 389.144C541.152 386.567 543.074 383.166 543.833 379.429L602.766 89.2639C604.105 82.6675 601.665 75.8736 596.434 71.6377L433.68 -60.1576C428.449 -64.3936 421.296 -65.3682 415.123 -62.6864L143.551 55.2873C140.054 56.8066 137.127 59.3941 135.191 62.679L-35.8542 352.837C-38.2929 356.974 -38.9831 361.912 -37.7722 366.559L22.3238 597.191Z"
            stroke="white" stroke-width="2.12842"/>
      <path opacity="0.115942"
            d="M-5.33916 572.226C-3.73833 579.953 2.69483 585.745 10.5469 586.529L245.929 610.042C250.715 610.52 255.494 609.069 259.206 606.01L516.618 393.904C519.571 391.471 521.674 388.163 522.625 384.458L595.568 100.265C597.239 93.7546 595.155 86.8549 590.16 82.3575L435.485 -56.913C430.49 -61.4104 423.41 -62.7612 417.11 -60.4189L142.099 41.8301C138.513 43.1633 135.443 45.601 133.333 48.7915L-50.7054 326.964C-53.3593 330.976 -54.3031 335.88 -53.3273 340.59L-5.33916 572.226Z"
            stroke="white" stroke-width="2.12842"/>
      <path opacity="0.130435"
            d="M-31.9581 546.737C-30.7537 554.512 -24.6536 560.612 -16.8787 561.817L215.13 597.756C219.891 598.494 224.749 597.298 228.624 594.436L494.254 398.185C497.341 395.904 499.622 392.699 500.763 389.034L587.255 111.478C589.252 105.071 587.53 98.0843 582.784 93.3386L436.52 -52.9256C431.774 -57.6713 424.788 -59.3932 418.381 -57.3965L140.824 29.0953C137.16 30.2373 133.955 32.5173 131.674 35.6045L-64.5768 301.235C-67.4395 305.11 -68.6351 309.968 -67.8976 314.728L-31.9581 546.737Z"
            stroke="white" stroke-width="2.12842"/>
      <path opacity="0.144928"
            d="M-57.5153 520.79C-56.7079 528.592 -50.9557 534.98 -43.2807 536.599L184.705 584.676C189.427 585.671 194.35 584.736 198.377 582.078L471.278 401.957C474.492 399.835 476.944 396.742 478.275 393.128L577.826 122.841C580.142 116.553 578.785 109.499 574.3 104.519L436.753 -48.2437C432.269 -53.2238 425.395 -55.3108 418.899 -53.6647L139.687 17.0876C135.954 18.0336 132.621 20.1486 130.175 23.1235L-77.485 275.702C-80.5494 279.429 -81.9945 284.228 -81.4978 289.027L-57.5153 520.79Z"
            stroke="white" stroke-width="2.12842"/>
      <path opacity="0.15942"
            d="M-81.9961 494.444C-81.5852 502.253 -76.1945 508.91 -68.6417 510.936L154.692 570.827C159.36 572.079 164.335 571.407 168.504 568.962L447.722 405.188C451.055 403.233 453.674 400.26 455.192 396.706L567.281 134.289C569.909 128.135 568.919 121.033 564.708 115.833L436.153 -42.9189C431.943 -48.1189 425.201 -50.5639 418.636 -49.2724L138.648 5.80763C134.857 6.55356 131.404 8.49639 128.799 11.3504L-89.4487 250.416C-92.7073 253.986 -94.3988 258.712 -94.1449 263.539L-81.9961 494.444Z"
            stroke="white" stroke-width="2.12842"/>
      <path opacity="0.173913"
            d="M-105.393 467.765C-105.377 475.56 -100.36 482.465 -92.9514 484.889L125.124 556.24C129.725 557.745 134.738 557.34 139.037 555.115L423.616 407.852C427.06 406.069 429.839 403.226 431.541 399.741L555.622 145.759C558.555 139.756 557.933 132.625 554.007 127.22L434.692 -37.0024C430.765 -42.4073 424.175 -45.2022 417.56 -44.2681L137.665 -4.74446C133.825 -4.20224 130.262 -2.43819 127.502 0.286625L-100.493 225.43C-103.938 228.832 -105.872 233.474 -105.862 238.315L-105.393 467.765Z"
            stroke="white" stroke-width="2.12842"/>
      <path opacity="0.188406"
            d="M-127.694 440.815C-128.07 448.577 -123.439 455.708 -116.195 458.521L96.0401 540.945C100.56 542.7 105.596 542.564 110.015 540.566L398.999 409.92C402.545 408.317 405.478 405.611 407.361 402.206L542.864 157.189C546.092 151.352 545.84 144.21 542.207 138.616L432.35 -30.5477C428.717 -36.1419 422.296 -39.2775 415.651 -38.7026L136.703 -14.5719C132.825 -14.2365 129.16 -12.6575 126.254 -10.07L-110.637 200.791C-114.259 204.015 -116.432 208.561 -116.667 213.404L-127.694 440.815Z"
            stroke="white" stroke-width="2.12842"/>
      <path opacity="0.202899"
            d="M-148.897 413.658C-149.662 421.365 -145.427 428.702 -138.369 431.893L67.4703 524.974C71.896 526.975 76.9413 527.109 81.4669 525.345L373.903 411.371C377.542 409.953 380.623 407.393 382.684 404.075L529.016 168.517C532.53 162.86 532.645 155.729 529.315 149.961L429.105 -23.6081C425.775 -29.3754 419.541 -32.8417 412.885 -32.6268L135.72 -23.6792C131.817 -23.5532 128.059 -22.1649 125.012 -19.7226L-119.912 176.548C-123.702 179.585 -126.109 184.021 -126.588 188.855L-148.897 413.658Z"
            stroke="white" stroke-width="2.12842"/>
      <path opacity="0.217391"
            d="M-168.999 386.357C-170.148 393.991 -166.317 401.51 -159.466 405.068L39.4501 508.364C43.768 510.606 48.808 511.011 53.4284 509.487L348.373 412.183C352.095 410.955 355.317 408.549 357.551 405.328L514.097 179.686C517.887 174.223 518.368 167.12 515.35 161.196L424.944 -16.2364C421.925 -22.1603 415.896 -25.9462 409.249 -26.091L134.685 -32.0716C130.766 -32.157 126.926 -30.9648 123.744 -28.6751L-128.34 152.746C-132.289 155.588 -134.924 159.903 -135.648 164.715L-168.999 386.357Z"
            stroke="white" stroke-width="2.12842"/>
      <path opacity="0.231884"
            d="M-188.01 358.973C-189.536 366.514 -186.117 374.194 -179.491 378.105L12.0007 491.148C16.1977 493.625 21.218 494.301 25.9207 493.021L322.437 412.335C326.233 411.302 329.588 409.057 331.991 405.943L498.121 190.635C502.176 185.38 503.021 178.324 500.321 172.26L419.846 -8.4888C417.147 -14.5524 411.338 -18.6459 404.72 -19.149L133.552 -39.7594C129.629 -40.0575 125.716 -39.0663 122.408 -36.9364L-135.961 129.428C-140.059 132.067 -142.916 136.25 -143.883 141.026L-188.01 358.973Z"
            stroke="white" stroke-width="2.12842"/>
      <path opacity="0.246377"
            d="M-205.931 331.569C-207.829 338.998 -204.828 346.816 -198.446 351.067L-14.8469 473.363C-10.7836 476.07 -5.79759 477.016 -1.02546 475.985L296.139 411.811C299.999 410.977 303.479 408.901 306.047 405.901L481.114 201.307C485.422 196.273 486.626 189.283 484.252 183.097L413.807 -0.419137C411.432 -6.60508 405.86 -10.9935 399.29 -11.8523L132.29 -46.7521C128.374 -47.2639 124.399 -46.4779 120.972 -44.5145L-142.805 106.637C-147.041 109.064 -150.113 113.103 -151.322 117.833L-205.931 331.569Z"
            stroke="white" stroke-width="2.12842"/>
      <path opacity="0.26087"
            d="M-222.772 304.205C-225.034 311.504 -222.457 319.436 -216.337 324.011L-41.0687 455.047C-37.1517 457.975 -32.2143 459.189 -27.3859 458.412L269.52 410.594C273.433 409.964 277.031 408.063 279.757 405.185L463.101 211.647C467.65 206.845 469.209 199.941 467.165 193.65L406.817 7.91669C404.773 1.62594 399.453 -3.0437 392.95 -4.25468L130.863 -53.0631C126.966 -53.7888 122.938 -53.212 119.402 -51.4216L-148.907 84.4098C-153.27 86.6188 -156.551 90.5033 -157.998 95.1748L-222.772 304.205Z"
            stroke="white" stroke-width="2.12842"/>
      <path opacity="0.275362"
            d="M-238.549 276.939C-241.165 284.09 -239.016 292.113 -233.174 296.997L-66.6435 436.237C-62.8849 439.38 -58.0107 440.86 -53.1392 440.338L242.618 408.672C246.575 408.248 250.281 406.53 253.16 403.783L444.11 221.602C448.888 217.044 450.796 210.242 449.087 203.864L398.873 16.4638C397.164 10.0861 392.111 5.14975 385.695 3.59117L129.236 -58.7068C125.369 -59.6462 121.3 -59.2818 117.662 -57.6703L-154.304 62.7843C-158.784 64.7684 -162.265 68.4876 -163.949 73.0885L-238.549 276.939Z"
            stroke="white" stroke-width="2.12842"/>
      <path opacity="0.289855"
            d="M-253.278 249.832C-256.24 256.816 -254.521 264.907 -248.974 270.083L-91.5534 416.974C-87.9649 420.323 -83.168 422.066 -78.2669 421.803L215.473 406.035C219.462 405.821 223.268 404.29 226.294 401.682L424.171 231.12C429.163 226.817 431.414 220.136 430.044 213.689L389.973 25.169C388.602 18.7223 383.828 13.5343 377.518 11.6338L127.374 -63.6981C123.549 -64.8501 119.45 -64.701 115.718 -63.274L-159.04 41.7959C-163.624 43.5489 -167.297 47.0927 -169.214 51.6112L-253.278 249.832Z"
            stroke="white" stroke-width="2.12842"/>
      <path opacity="0.304348"
            d="M-266.979 222.939C-270.277 229.741 -268.988 237.877 -263.75 243.327L-115.78 397.3C-112.373 400.845 -107.667 402.847 -102.75 402.845L188.127 402.676C192.138 402.673 196.034 401.335 199.2 398.873L403.318 240.153C408.511 236.115 411.097 229.572 410.068 223.075L380.118 33.9787C379.089 27.4813 374.608 22.0576 368.421 19.8219L125.246 -68.0539C121.474 -69.4171 117.355 -69.4854 113.54 -68.2482L-163.153 21.4771C-167.83 22.9938 -171.686 26.3523 -173.831 30.7768L-266.979 222.939Z"
            stroke="white" stroke-width="2.12842"/>
      <path opacity="0.318841"
            d="M-279.679 196.315C-283.3 202.918 -282.442 211.074 -277.528 216.78L-139.311 377.251C-136.097 380.984 -131.497 383.24 -126.577 383.499L160.618 398.585C164.64 398.796 168.617 397.657 171.916 395.348L381.584 248.653C386.964 244.889 389.877 238.501 389.191 231.971L369.312 42.8374C368.625 36.3073 364.448 30.6646 358.403 28.1013L122.818 -71.7961C119.11 -73.3682 114.983 -73.6558 111.093 -72.613L-166.69 1.85498C-171.448 3.13048 -175.478 6.29447 -177.846 10.6136L-279.679 196.315Z"
            stroke="white" stroke-width="2.12842"/>
      <path opacity="0.333333"
            d="M-291.392 170.015C-295.324 176.403 -294.897 184.558 -290.318 190.5L-162.126 356.873C-159.114 360.782 -154.633 363.288 -149.725 363.808L132.997 393.764C137.018 394.19 141.066 393.254 144.492 391.105L359.019 256.578C364.571 253.096 367.8 246.88 367.457 240.336L357.571 51.6958C357.228 45.1516 353.366 39.3068 347.481 36.4247L120.068 -74.9417C116.436 -76.7202 112.312 -77.2281 108.358 -76.384L-169.685 -17.0402C-174.511 -16.0101 -178.705 -13.0494 -181.292 -8.84681L-291.392 170.015Z"
            stroke="white" stroke-width="2.12842"/>
      <path opacity="0.347826"
            d="M-302.158 144.087C-306.389 150.246 -306.389 158.376 -302.158 164.535L-184.224 336.204C-181.424 340.279 -177.076 343.028 -172.194 343.809L105.295 388.207C109.304 388.848 113.413 388.119 116.958 386.138L335.651 263.883C341.359 260.692 344.896 254.663 344.896 248.122V60.4993C344.896 53.959 341.359 47.93 335.651 44.7386L116.958 -77.5164C113.413 -79.4978 109.304 -80.2267 105.295 -79.5851L-172.194 -35.1876C-177.076 -34.4064 -181.424 -31.6575 -184.224 -27.5823L-302.158 144.087Z"
            stroke="white" stroke-width="2.12842"/>
      <path opacity="0.362319"
            d="M-312.005 118.581C-316.522 124.497 -316.946 132.579 -313.072 138.935L-205.595 315.285C-203.017 319.515 -198.814 322.5 -193.971 323.541L77.5543 381.916C81.5414 382.773 85.7011 382.255 89.3563 380.447L311.526 270.53C317.377 267.635 321.209 261.809 321.551 255.291L331.304 69.1981C331.645 62.6799 328.442 56.4849 322.927 52.9948L113.463 -79.543C110.017 -81.7236 105.934 -82.6733 101.88 -82.2376L-174.26 -52.5652C-179.186 -52.036 -183.677 -49.5066 -186.683 -45.5693L-312.005 118.581Z"
            stroke="white" stroke-width="2.12842"/>
      <path opacity="0.376812"
            d="M-320.964 93.546C-325.752 99.2057 -326.594 107.217 -323.087 113.749L-226.229 294.161C-223.881 298.533 -219.837 301.747 -215.047 303.046L49.8215 374.896C53.7744 375.968 57.9744 375.665 61.7321 374.035L286.695 276.484C292.671 273.893 296.788 268.284 297.469 261.806L316.814 77.7452C317.495 71.2672 314.634 64.9247 309.328 61.1475L109.563 -81.0442C106.226 -83.4194 102.181 -84.5895 98.0914 -84.3625L-175.928 -69.1524C-180.883 -68.8774 -185.507 -66.5748 -188.712 -62.7857L-320.964 93.546Z"
            stroke="white" stroke-width="2.12842"/>
      <path opacity="0.391304"
            d="M-329.075 69.0241C-334.119 74.415 -335.374 82.3339 -332.242 89.0198L-246.129 272.869C-244.02 277.372 -240.147 280.806 -235.424 282.361L22.1301 367.15C26.0376 368.437 30.2673 368.35 34.1189 366.905L261.196 281.71C267.282 279.427 271.671 274.049 272.688 267.629L301.441 86.0903C302.457 79.6704 299.945 73.1995 294.863 69.1475L105.226 -82.0487C102.01 -84.6133 98.0137 -86.0026 93.8999 -85.9867L-177.25 -84.936C-182.222 -84.9168 -186.967 -82.8477 -190.364 -79.2168L-329.075 69.0241Z"
            stroke="white" stroke-width="2.12842"/>
      <path opacity="0.405797"
            d="M-336.374 45.0593C-341.659 50.1698 -343.318 57.9746 -340.568 64.7931L-265.291 251.454C-263.428 256.075 -259.738 259.72 -255.095 261.527L-5.47648 358.689C-1.62563 360.187 2.62282 360.32 6.55969 359.065L235.083 286.179C241.262 284.208 245.909 279.075 247.258 272.73L285.208 94.1894C286.556 87.8453 284.398 81.2654 279.555 76.9517L100.434 -82.5814C97.3486 -85.3297 93.4135 -86.9365 89.2859 -87.1335L-178.271 -99.9011C-183.248 -100.139 -188.101 -98.3092 -191.683 -94.8459L-336.374 45.0593Z"
            stroke="white" stroke-width="2.12842"/>
      <path opacity="0.42029"
            d="M-342.904 21.6898C-348.415 26.5093 -350.47 34.179 -348.107 41.108L-283.72 229.955C-282.109 234.679 -278.614 238.527 -274.065 240.582L-32.9629 349.52C-29.18 351.229 -24.9237 351.583 -20.9106 350.521L208.399 289.863C214.656 288.208 219.548 283.331 221.223 277.08L268.136 101.997C269.811 95.7462 268.012 89.0768 263.422 84.5154L95.1629 -82.6713C92.2183 -85.5972 88.3554 -87.4191 84.2247 -87.8303L-179.044 -114.039C-184.012 -114.533 -188.963 -112.949 -192.72 -109.662L-342.904 21.6898Z"
            stroke="white" stroke-width="2.12842"/>
      <path opacity="0.434783"
            d="M-348.7 -1.04739C-354.419 3.47128 -356.86 10.9854 -354.889 18.0027L-301.411 208.411C-300.059 213.227 -296.769 217.266 -292.327 219.565L-60.2823 339.656C-56.5785 341.573 -52.3254 342.148 -48.2454 341.285L181.206 292.737C187.523 291.4 192.645 286.792 194.64 280.651L250.26 109.471C252.256 103.33 250.82 96.5913 246.495 91.7969L89.4011 -82.3474C86.6077 -85.444 82.8285 -87.4781 78.7055 -88.1044L-179.61 -127.341C-184.556 -128.092 -189.591 -126.758 -193.516 -123.657L-348.7 -1.04739Z"
            stroke="white" stroke-width="2.12842"/>
      <path opacity="0.449275"
            d="M-353.814 -23.1183C-359.725 -18.9093 -362.542 -11.5706 -360.966 -4.4874L-318.38 186.864C-317.291 191.756 -314.218 195.976 -309.896 198.513L-87.4072 329.111C-83.7937 331.232 -79.555 332.03 -75.4175 331.369L153.543 294.78C159.904 293.764 165.242 289.435 167.551 283.421L231.599 116.57C233.907 110.556 232.837 103.768 228.79 98.756L83.1215 -81.6392C80.4891 -84.8991 76.805 -87.1421 72.7003 -87.9837L-180.028 -139.804C-184.938 -140.811 -190.045 -139.732 -194.128 -136.825L-353.814 -23.1183Z"
            stroke="white" stroke-width="2.12842"/>
      <path opacity="0.463768"
            d="M-358.291 -44.492C-364.377 -40.6005 -367.557 -33.4564 -366.377 -26.3298L-334.633 165.351C-333.813 170.305 -330.966 174.695 -326.776 177.464L-114.3 317.901C-110.788 320.222 -106.575 321.243 -102.389 320.787L125.465 295.975C131.854 295.279 137.392 291.24 140.006 285.369L212.183 123.257C214.797 117.386 214.093 110.568 210.335 105.354L76.3099 -80.5774C73.848 -83.9928 70.2701 -86.4404 66.1947 -87.4972L-180.344 -151.427C-185.206 -152.688 -190.373 -151.867 -194.604 -149.161L-358.291 -44.492Z"
            stroke="white" stroke-width="2.12842"/>
      <path opacity="0.478261"
            d="M-362.171 -65.1411C-368.414 -61.5741 -371.946 -54.6429 -371.162 -47.4956L-350.175 143.909C-349.626 148.912 -347.015 153.458 -342.97 156.453L-140.919 306.042C-137.519 308.559 -133.343 309.803 -129.119 309.555L97.0314 296.305C103.432 295.93 109.153 292.189 112.063 286.477L192.051 129.492C194.962 123.78 194.625 116.953 191.167 111.554L68.9582 -79.1938C66.6759 -82.7561 63.2151 -85.4039 59.1799 -86.6751L-180.602 -162.211C-185.402 -163.724 -190.616 -163.164 -194.985 -160.667L-362.171 -65.1411Z"
            stroke="white" stroke-width="2.12842"/>
      <path opacity="0.492754"
            d="M-365.509 -85.0381C-371.891 -81.8014 -375.76 -75.1007 -375.372 -67.955L-365.023 122.579C-364.749 127.614 -362.382 132.306 -358.495 135.519L-167.238 293.557C-163.96 296.265 -159.832 297.73 -155.581 297.694L68.288 295.761C74.6829 295.706 80.5716 292.272 83.7692 286.734L171.231 135.245C174.428 129.707 174.458 122.89 171.308 117.325L61.0477 -77.5176C58.9537 -81.218 55.621 -84.0607 51.6367 -85.545L-180.857 -172.159C-185.583 -173.92 -190.83 -173.624 -195.327 -171.343L-365.509 -85.0381Z"
            stroke="white" stroke-width="2.12842"/>
      <path opacity="0.507246"
            d="M-368.352 -104.163C-374.856 -101.262 -379.047 -94.8086 -379.052 -87.6869L-379.191 101.393C-379.194 106.446 -377.08 111.27 -373.361 114.692L-193.222 280.465C-190.078 283.359 -186.009 285.043 -181.739 285.219L39.2897 294.332C45.6632 294.594 51.7025 291.475 55.1767 286.125L149.759 140.481C153.233 135.132 153.627 128.346 150.794 122.63L52.5692 -75.5835C50.6717 -79.4125 47.4777 -82.4444 43.5552 -84.14L-181.155 -181.28C-185.794 -183.285 -191.06 -183.254 -195.676 -181.195L-368.352 -104.163Z"
            stroke="white" stroke-width="2.12842"/>
      <path opacity="0.521739"
            d="M-370.746 -122.497C-377.354 -119.935 -381.851 -113.745 -382.246 -106.669L-392.689 80.3865C-392.972 85.443 -391.117 90.3857 -387.579 94.0088L-218.836 266.789C-215.835 269.862 -211.836 271.765 -207.559 272.155L10.0945 292.013C16.4305 292.591 22.6032 289.792 26.3429 284.644L127.676 145.172C131.416 140.024 132.17 133.289 129.663 127.442L43.5183 -73.4228C41.8252 -77.3704 38.7804 -80.5852 34.9304 -82.4899L-181.538 -189.582C-186.078 -191.827 -191.351 -192.064 -196.073 -190.233L-370.746 -122.497Z"
            stroke="white" stroke-width="2.12842"/>
      <path opacity="0.536232"
            d="M-372.746 -140.022C-379.438 -137.802 -384.226 -131.89 -385.006 -124.882L-405.541 59.5947C-406.102 64.6388 -404.515 69.6864 -401.168 73.5012L-244.055 252.556C-241.207 255.802 -237.29 257.919 -233.015 258.525L-19.2487 288.803C-12.9661 289.693 -6.67744 287.219 -2.68419 282.288L105.016 149.29C109.009 144.358 110.121 137.693 107.944 131.733L33.8837 -71.067C32.4025 -75.1229 29.5168 -78.5138 25.75 -80.6247L-182.058 -197.077C-186.485 -199.558 -191.753 -200.061 -196.57 -198.463L-372.746 -140.022Z"
            stroke="white" stroke-width="2.12842"/>
      <path opacity="0.550725"
            d="M-374.4 -156.728C-381.159 -154.852 -386.22 -149.231 -387.379 -142.313L-417.763 39.0477C-418.603 44.064 -417.289 49.2022 -414.143 53.1989L-268.848 237.789C-266.163 241.201 -262.339 243.53 -258.076 244.352L-48.6849 284.701C-42.4713 285.898 -36.0842 283.755 -31.85 279.053L81.8206 152.809C86.0548 148.106 87.5183 141.53 85.678 135.476L23.6624 -68.5505C22.4 -72.704 19.6834 -76.2635 16.0103 -78.5773L-182.757 -203.782C-187.06 -206.492 -192.308 -207.262 -197.209 -205.902L-374.4 -156.728Z"
            stroke="white" stroke-width="2.12842"/>
      <path opacity="0.565217"
            d="M-375.762 -172.602C-382.57 -171.071 -387.886 -165.754 -389.417 -158.946L-429.378 18.7785C-430.496 23.7518 -429.46 28.966 -426.526 33.1341L-293.192 222.519C-290.679 226.088 -286.959 228.626 -282.719 229.664L-78.1646 279.713C-72.0352 281.213 -65.5675 279.404 -61.1055 274.942L58.127 155.71C62.589 151.248 64.3978 144.78 62.8981 138.651L12.8484 -65.9034C11.811 -70.1431 9.27306 -73.8635 5.70406 -76.3763L-183.681 -209.711C-187.849 -212.645 -193.064 -213.681 -198.037 -212.563L-375.762 -172.602Z"
            stroke="white" stroke-width="2.12842"/>
      <path opacity="0.57971"
            d="M-376.88 -187.639C-383.718 -186.453 -389.272 -181.453 -391.166 -174.776L-440.407 -1.18606C-441.801 3.72877 -441.048 9.00416 -438.334 13.3326L-317.059 206.772C-314.727 210.491 -311.121 213.233 -306.915 214.486L-107.633 273.845C-101.603 275.641 -95.0722 274.169 -90.3964 269.958L33.9793 157.97C38.6552 153.76 40.8022 147.419 39.6462 141.234L1.44308 -63.1609C0.636702 -67.4752 -1.71352 -71.3481 -5.1681 -74.0554L-184.871 -214.886C-188.892 -218.038 -194.06 -219.338 -199.094 -218.465L-376.88 -187.639Z"
            stroke="white" stroke-width="2.12842"/>
      <path opacity="0.594203"
            d="M-377.803 -201.835C-384.654 -200.993 -390.426 -196.319 -392.674 -189.793L-450.871 -20.8164C-452.538 -15.9753 -452.072 -10.6539 -449.587 -6.17672L-340.425 190.58C-338.283 194.44 -334.802 197.381 -330.64 198.849L-137.037 267.107C-131.121 269.193 -124.546 268.059 -119.67 264.111L9.42085 159.575C14.2962 155.627 16.773 149.431 15.9627 143.21L-10.5519 -60.3531C-11.122 -64.73 -13.2755 -68.7465 -16.6056 -71.6436L-186.366 -219.329C-190.229 -222.689 -195.338 -224.252 -200.419 -223.628L-377.803 -201.835Z"
            stroke="white" stroke-width="2.12842"/>
      <path opacity="0.608696"
            d="M-378.592 -215.189C-385.437 -214.689 -391.408 -210.351 -393.998 -203.995L-460.803 -40.0873C-462.74 -35.3352 -462.563 -29.9833 -460.317 -25.3693L-363.277 173.973C-361.334 177.964 -357.988 181.1 -353.88 182.781L-166.337 259.512C-160.548 261.88 -153.946 261.085 -148.886 257.408L-15.5148 160.508C-10.4549 156.832 -7.65784 150.799 -8.12148 144.562L-23.1429 -57.5129C-23.4721 -61.9401 -25.4206 -66.0909 -28.6164 -69.1724L-188.215 -223.063C-191.909 -226.625 -196.944 -228.447 -202.062 -228.074L-378.592 -215.189Z"
            stroke="white" stroke-width="2.12842"/>
      <path opacity="0.623188"
            d="M-379.283 -227.703C-386.105 -227.543 -392.254 -223.55 -395.176 -217.382L-470.218 -58.9748C-472.42 -54.3266 -472.535 -48.9598 -470.534 -44.2214L-385.583 156.983C-383.846 161.097 -380.647 164.421 -376.602 166.314L-195.47 251.075C-189.823 253.718 -183.212 253.26 -177.983 249.864L-40.772 160.759C-35.543 157.363 -32.4359 151.51 -32.5531 145.276L-36.3136 -54.6723C-36.3976 -59.137 -38.133 -63.4123 -41.1848 -66.6724L-190.441 -226.116C-193.956 -229.871 -198.906 -231.949 -204.048 -231.828L-379.283 -227.703Z"
            stroke="white" stroke-width="2.12842"/>
      <path opacity="0.637681"
            d="M-379.939 -239.384C-386.72 -239.558 -393.028 -235.917 -396.268 -229.956L-479.155 -77.4557C-481.617 -72.9261 -482.025 -67.5603 -480.277 -62.7104L-407.34 139.643C-405.817 143.869 -402.772 147.376 -398.802 149.478L-224.402 241.816C-218.909 244.724 -212.307 244.603 -206.925 241.495L-66.3212 160.318C-60.9389 157.21 -57.533 151.553 -57.3052 145.342L-50.0717 -51.8616C-49.907 -56.351 -51.4218 -60.7405 -54.3201 -64.1728L-193.095 -228.515C-196.421 -232.454 -201.272 -234.783 -206.426 -234.916L-379.939 -239.384Z"
            stroke="white" stroke-width="2.12842"/>
      <path opacity="0.652174"
            d="M-380.596 -250.238C-387.321 -250.743 -393.766 -247.459 -397.31 -241.722L-487.63 -95.5093C-490.346 -91.113 -491.048 -85.764 -489.559 -80.8159L-428.519 121.988C-427.216 126.316 -424.338 129.998 -420.452 132.307L-253.076 231.754C-247.75 234.918 -241.174 235.131 -235.655 232.319L-92.1075 159.178C-86.5881 156.366 -82.8957 150.92 -82.3253 144.752L-64.3982 -49.1119C-63.982 -53.6126 -65.269 -58.1058 -68.0048 -61.7037L-196.198 -230.291C-199.326 -234.404 -204.066 -236.98 -209.219 -237.367L-380.596 -250.238Z"
            stroke="white" stroke-width="2.12842"/>
   </g>
</svg>
