<svg viewBox="0 0 307 217" fill="none" xmlns="http://www.w3.org/2000/svg">
   <path d="M11.3516 133V136" stroke="#D2D8DF" stroke-width="2.921" stroke-linecap="round"/>
   <path d="M4.61328 134.625L7.06471 137.149" stroke="#D2D8DF" stroke-width="2.921" stroke-linecap="round"/>
   <path d="M1.74609 141.343H5.21238" stroke="#D2D8DF" stroke-width="2.921" stroke-linecap="round"/>
   <path d="M4.33203 148.18L6.78346 145.656" stroke="#D2D8DF" stroke-width="2.921" stroke-linecap="round"/>
   <path d="M11.3516 149V146" stroke="#D2D8DF" stroke-width="2.921" stroke-linecap="round"/>
   <path d="M16.3516 147L14.3516 145" stroke="#D2D8DF" stroke-width="2.921" stroke-linecap="round"/>
   <path d="M20.3516 142H17.3516" stroke="#D2D8DF" stroke-width="2.921" stroke-linecap="round"/>
   <path d="M18.3516 135L16.3516 137" stroke="#D2D8DF" stroke-width="2.921" stroke-linecap="round"/>
   <path d="M172.352 2V4" stroke="#D2D8DF" stroke-width="2.921" stroke-linecap="round"/>
   <path d="M166.352 8H168.352" stroke="#D2D8DF" stroke-width="2.921" stroke-linecap="round"/>
   <path d="M172.352 14V12" stroke="#D2D8DF" stroke-width="2.921" stroke-linecap="round"/>
   <path d="M177.352 8H175.352" stroke="#D2D8DF" stroke-width="2.921" stroke-linecap="round"/>
   <path d="M56.3516 86V89" stroke="#D2D8DF" stroke-width="2.921" stroke-linecap="round"/>
   <path d="M47.3516 95H50.3516" stroke="#D2D8DF" stroke-width="2.921" stroke-linecap="round"/>
   <path d="M56.3516 103V100" stroke="#D2D8DF" stroke-width="2.921" stroke-linecap="round"/>
   <path d="M64.3516 95H61.3516" stroke="#D2D8DF" stroke-width="2.921" stroke-linecap="round"/>
   <path d="M271.609 195.039C273.999 195.039 275.937 196.978 275.937 199.368C275.937 201.76 273.999 203.697 271.609 203.697C269.219 203.697 267.281 201.76 267.281 199.368" stroke="#D2D8DF" stroke-width="2.921" stroke-linecap="round"/>
   <path fill-rule="evenodd" clip-rule="evenodd" d="M291.414 155.764C293.984 154.962 297.923 151.819 298.835 148.438C299.662 151.427 303.128 154.962 306.256 155.229C302.735 156.476 299.369 160.179 298.835 163.089C298.471 160.123 293.816 156.196 291.414 155.764Z" fill="#EBECEE"/>
   <path fill-rule="evenodd" clip-rule="evenodd" d="M27.625 193.706C28.9103 193.305 30.8791 191.734 31.3349 190.043C31.7484 191.537 33.4811 193.305 35.0449 193.439C33.285 194.061 31.6024 195.913 31.3349 197.368C31.1533 195.885 28.8254 193.921 27.625 193.706Z" fill="#EBECEE"/>
   <path fill-rule="evenodd" clip-rule="evenodd" d="M51.4775 54.5972C51.4775 56.4518 49.9748 57.954 48.1216 57.954C46.2674 57.954 44.7656 56.4518 44.7656 54.5972C44.7656 52.7434 46.2674 51.2404 48.1216 51.2404C49.9748 51.2404 51.4775 52.7434 51.4775 54.5972Z" fill="#D1D8DF"/>
   <path fill-rule="evenodd" clip-rule="evenodd" d="M275.571 63.6107C275.571 66.7093 273.058 69.2212 269.961 69.2212C266.863 69.2212 264.352 66.7093 264.352 63.6107C264.352 60.512 266.863 58.0001 269.961 58.0001C273.058 58.0001 275.571 60.512 275.571 63.6107Z" fill="#EBECEE"/>
   <path fill-rule="evenodd" clip-rule="evenodd" d="M112.528 33.0317C112.528 34.8863 111.026 36.3885 109.172 36.3885C107.319 36.3885 105.816 34.8863 105.816 33.0317C105.816 31.178 107.319 29.6749 109.172 29.6749C111.026 29.6749 112.528 31.178 112.528 33.0317Z" stroke="#D2D8DF" stroke-width="2.921" stroke-linecap="round"/>
   <path fill-rule="evenodd" clip-rule="evenodd" d="M196.853 208H114.848C109.076 208 104.352 203.261 104.352 197.47V80.5275C104.352 74.7362 109.076 70 114.848 70H196.853C202.627 70 207.352 74.7362 207.352 80.5275V197.47C207.352 203.261 202.627 208 196.853 208Z" fill="#E0E2EE"/>
   <path fill-rule="evenodd" clip-rule="evenodd" d="M189.853 213H107.848C102.076 213 97.3516 208.261 97.3516 202.47V85.5275C97.3516 79.7362 102.076 75 107.848 75H189.853C195.627 75 200.352 79.7362 200.352 85.5275V202.47C200.352 208.261 195.627 213 189.853 213Z" fill="#E8EBF2"/>
   <path fill-rule="evenodd" clip-rule="evenodd" d="M183.044 216.947H100.87C95.0859 216.947 90.3516 212.228 90.3516 206.461V90.0025C90.3516 84.2352 95.0859 79.5186 100.87 79.5186H183.044C188.83 79.5186 193.564 84.2352 193.564 90.0025V206.461C193.564 212.228 188.83 216.947 183.044 216.947Z" fill="#D8DBEA"/>
   <path fill-rule="evenodd" clip-rule="evenodd" d="M183.044 216.947H100.87C95.0859 216.947 90.3516 212.228 90.3516 206.461V90.0025C90.3516 84.2352 95.0859 79.5186 100.87 79.5186H183.044C188.83 79.5186 193.564 84.2352 193.564 90.0025V206.461C193.564 212.228 188.83 216.947 183.044 216.947Z" fill="#F1F2F7"/>
   <path fill-rule="evenodd" clip-rule="evenodd" d="M171.199 115H110.504C108.77 115 107.352 113.65 107.352 112.001C107.352 110.35 108.77 109 110.504 109H171.199C172.933 109 174.352 110.35 174.352 112.001C174.352 113.65 172.933 115 171.199 115Z" fill="#E0E2EE"/>
   <path fill-rule="evenodd" clip-rule="evenodd" d="M171.199 133H110.504C108.77 133 107.352 131.65 107.352 130.001C107.352 128.35 108.77 127 110.504 127H171.199C172.933 127 174.352 128.35 174.352 130.001C174.352 131.65 172.933 133 171.199 133Z" fill="#E0E2EE"/>
   <path fill-rule="evenodd" clip-rule="evenodd" d="M171.199 151H110.504C108.77 151 107.352 149.65 107.352 148.001C107.352 146.352 108.77 145 110.504 145H171.199C172.933 145 174.352 146.352 174.352 148.001C174.352 149.65 172.933 151 171.199 151Z" fill="#E0E2EE"/>
   <path fill-rule="evenodd" clip-rule="evenodd" d="M171.199 169H110.504C108.77 169 107.352 167.65 107.352 166.001C107.352 164.35 108.77 163 110.504 163H171.199C172.933 163 174.352 164.35 174.352 166.001C174.352 167.65 172.933 169 171.199 169Z" fill="#E0E2EE"/>
   <path fill-rule="evenodd" clip-rule="evenodd" d="M142.186 187H110.517C108.776 187 107.352 185.65 107.352 184.001C107.352 182.35 108.776 181 110.517 181H142.186C143.927 181 145.352 182.35 145.352 184.001C145.352 185.65 143.927 187 142.186 187Z" fill="#E0E2EE"/>
</svg>
