<svg width="176" height="145" viewBox="0 0 176 145" fill="none" xmlns="http://www.w3.org/2000/svg">
   <path d="M86 144.4C125.764 144.4 158 112.164 158 72.4C158 32.6355 125.764 0.399994 86 0.399994C46.2355 0.399994 14 32.6355 14 72.4C14 112.164 46.2355 144.4 86 144.4Z" fill="url(#paint0_linear_2043_7902)"/>
   <g filter="url(#filter0_d_2043_7902)">
      <rect x="49.3994" y="21.1338" width="74.7222" height="93.0173" rx="9.6" fill="white"/>
   </g>
   <rect x="55.999" y="33.1338" width="30" height="5.88" rx="2.94" fill="#011625"/>
   <rect x="55.999" y="49.8138" width="60" height="5.88" rx="2.94" fill="#D5D5D5"/>
   <rect x="55.999" y="66.4938" width="60" height="5.88" rx="2.94" fill="#D5D5D5"/>
   <rect x="55.999" y="83.1738" width="60" height="5.88" rx="2.94" fill="#D5D5D5"/>
   <rect x="55.999" y="99.8538" width="60" height="5.88" rx="2.94" fill="#D5D5D5"/>
   <g filter="url(#filter1_d_2043_7902)">
      <path d="M168.89 10.8544H132.841C131.162 10.8544 129.8 12.2875 129.8 14.0553V31.8868C129.8 33.6546 131.162 35.0877 132.841 35.0877H168.89C170.569 35.0877 171.931 33.6546 171.931 31.8868V14.0553C171.931 12.2875 170.569 10.8544 168.89 10.8544Z" fill="white"/>
   </g>
   <path d="M138.8 26.8C140.788 26.8 142.4 25.1882 142.4 23.2C142.4 21.2118 140.788 19.6 138.8 19.6C136.812 19.6 135.2 21.2118 135.2 23.2C135.2 25.1882 136.812 26.8 138.8 26.8Z" fill="#CCC6D9"/>
   <rect x="147.2" y="19.6" width="19.2" height="7.2" rx="3.6" fill="#D5D5D5"/>
   <path fill-rule="evenodd" clip-rule="evenodd" d="M107.065 118.338C114.793 118.338 121.976 116 127.943 111.994L152.363 135.304L161.219 125.029L137.655 102.535C142.007 96.4108 144.565 88.9232 144.565 80.838C144.565 60.1273 127.776 43.338 107.065 43.338C86.3548 43.338 69.5654 60.1273 69.5654 80.838C69.5654 101.549 86.3548 118.338 107.065 118.338ZM139.051 80.838C139.051 98.3719 124.837 112.586 107.303 112.586C89.7691 112.586 75.5551 98.3719 75.5551 80.838C75.5551 63.3041 89.7691 49.0901 107.303 49.0901C124.837 49.0901 139.051 63.3041 139.051 80.838Z" fill="#CCC6D9"/>
   <g filter="url(#filter2_b_2043_7902)">
      <path d="M107.3 113.2C125.359 113.2 140 98.694 140 80.8C140 62.906 125.359 48.4 107.3 48.4C89.2399 48.4 74.5996 62.906 74.5996 80.8C74.5996 98.694 89.2399 113.2 107.3 113.2Z" fill="white" fill-opacity="0.3"/>
   </g>
   <path d="M112.954 80.8L120.867 72.9172C121.609 72.1374 122.015 71.101 122 70.0282C121.984 68.9555 121.549 67.9309 120.785 67.1723C120.022 66.4136 118.991 65.9807 117.912 65.9655C116.833 65.9503 115.79 66.354 115.005 67.0909L107.074 74.9736L99.1609 67.0909C98.7801 66.6903 98.3223 66.3697 97.8147 66.1481C97.3071 65.9264 96.7599 65.8082 96.2055 65.8004C95.6511 65.7926 95.1008 65.8954 94.587 66.1026C94.0733 66.3099 93.6066 66.6175 93.2146 67.0072C92.8225 67.3968 92.5131 67.8607 92.3045 68.3713C92.096 68.8819 91.9926 69.4289 92.0004 69.9799C92.0083 70.5309 92.1272 71.0748 92.3502 71.5793C92.5732 72.0838 92.8958 72.5388 93.2988 72.9172L101.225 80.8L93.2988 88.6827C92.8958 89.0612 92.5732 89.5162 92.3502 90.0207C92.1272 90.5252 92.0083 91.0691 92.0004 91.6201C91.9926 92.1711 92.096 92.7181 92.3045 93.2287C92.5131 93.7393 92.8225 94.2032 93.2146 94.5928C93.6066 94.9825 94.0733 95.2901 94.587 95.4973C95.1008 95.7046 95.6511 95.8074 96.2055 95.7996C96.7599 95.7918 97.3071 95.6735 97.8147 95.4519C98.3223 95.2302 98.7801 94.9096 99.1609 94.5091L107.092 86.6264L115.023 94.5091C115.815 95.2025 116.843 95.5696 117.898 95.5356C118.953 95.5016 119.955 95.0691 120.7 94.3262C121.446 93.5833 121.878 92.5859 121.909 91.5373C121.94 90.4887 121.567 89.4678 120.867 88.6827L112.954 80.8Z" fill="#FF034C"/>
   <path d="M152.361 135.306L161.217 125.03L162.551 126.304C163.846 127.539 164.62 129.265 164.706 131.102C164.791 132.939 164.179 134.736 163.005 136.098V136.098C161.831 137.46 160.191 138.275 158.446 138.365C156.7 138.454 154.993 137.81 153.699 136.575L152.365 135.302L152.361 135.306Z" fill="#E1DCEB"/>
   <path fill-rule="evenodd" clip-rule="evenodd" d="M29.7889 37.703C29.7776 36.8474 29.6702 35.9844 29.4555 35.1155C28.7027 32.0662 25.344 30.1086 21.7692 29.6484C18.1958 29.1881 14.4798 30.2355 13.0476 32.8879C12.2284 34.4044 12.1154 35.7115 12.4501 36.8134C12.7835 37.9095 13.5744 38.8182 14.6478 39.5263C17.6407 41.4987 22.8822 41.9014 25.2734 41.0768C26.3793 40.6947 27.4598 40.2345 28.512 39.7078C27.9103 43.1554 25.6688 46.4215 22.6774 49.3645C16.176 55.761 6.08721 60.6158 0.592933 62.4008C0.297739 62.4967 0.133886 62.8242 0.225692 63.1325C0.317499 63.4409 0.631048 63.6135 0.926242 63.5176C6.52927 61.6972 16.8145 56.739 23.4443 50.2157C26.8694 46.8463 29.3101 43.0536 29.7267 39.0661C37.4696 34.7452 43.8282 26.906 49.2646 20.3089C49.4666 20.0655 49.4397 19.6952 49.2053 19.4842C48.9708 19.2747 48.6177 19.3013 48.4157 19.5462C43.2011 25.8733 37.1489 33.3998 29.7889 37.703ZM28.6632 38.33C28.7056 37.3681 28.6151 36.3915 28.3708 35.4061C27.7197 32.767 24.7268 31.2062 21.6322 30.8079C19.7353 30.5645 17.7848 30.7651 16.2552 31.4791C15.2933 31.9276 14.5009 32.5781 14.0235 33.4633C13.3964 34.6242 13.2608 35.6171 13.5179 36.4594C13.7749 37.3076 14.4134 37.9892 15.2453 38.5365C17.9727 40.3347 22.7452 40.7168 24.9217 39.966C26.2056 39.5234 27.4514 38.9717 28.6632 38.33Z" fill="#011625"/>
   <circle cx="167" cy="93.4" r="3.6" fill="#417BA4"/>
   <path fill-rule="evenodd" clip-rule="evenodd" d="M31.0302 118.236C31.6726 117.996 32.3487 117.675 32.87 117.212C33.4892 116.661 33.7411 115.952 33.9102 115.206C34.1273 114.247 34.214 113.225 34.4773 112.264C34.5748 111.908 34.7624 111.773 34.8428 111.713C35.0463 111.562 35.2519 111.521 35.4454 111.537C35.6747 111.554 35.9897 111.645 36.1968 112.05C36.2264 112.108 36.2647 112.196 36.2906 112.317C36.3094 112.405 36.3216 112.683 36.3415 112.797C36.3914 113.078 36.4331 113.359 36.4723 113.642C36.6026 114.584 36.6776 115.384 37.0892 116.249C37.6479 117.423 38.2077 118.141 38.9668 118.46C39.7008 118.767 40.5785 118.709 41.6998 118.468C41.8065 118.441 41.9121 118.418 42.0166 118.399C42.511 118.308 42.9836 118.649 43.0807 119.168C43.1779 119.685 42.8636 120.19 42.3737 120.304C42.2714 120.328 42.1706 120.35 42.0709 120.371C40.5556 120.766 38.8014 122.175 37.7819 123.408C37.4677 123.789 37.0076 124.852 36.5383 125.531C36.192 126.031 35.8028 126.361 35.4761 126.478C35.2571 126.556 35.0725 126.544 34.92 126.505C34.6985 126.447 34.5146 126.321 34.3736 126.12C34.2968 126.01 34.2255 125.863 34.1915 125.675C34.1753 125.584 34.1734 125.354 34.1738 125.25C34.0782 124.904 33.9611 124.566 33.8758 124.216C33.6724 123.383 33.2732 122.855 32.7991 122.158C32.3557 121.506 31.8794 121.096 31.1812 120.768C31.0904 120.745 30.3574 120.556 30.0986 120.448C29.7205 120.289 29.5403 120.023 29.475 119.879C29.3638 119.636 29.3524 119.424 29.3745 119.246C29.4074 118.985 29.5189 118.761 29.7168 118.58C29.8394 118.468 30.0225 118.359 30.2677 118.306C30.4571 118.264 30.9596 118.24 31.0302 118.236ZM35.3299 116.878C35.3638 116.958 35.4 117.038 35.4384 117.119C36.2566 118.838 37.1716 119.799 38.2837 120.264L38.321 120.28C37.577 120.861 36.9035 121.511 36.3888 122.134C36.1769 122.39 35.8963 122.923 35.5931 123.469C35.3177 122.527 34.8672 121.861 34.3008 121.027C33.8681 120.391 33.4147 119.912 32.8575 119.522C33.2899 119.289 33.7023 119.015 34.0615 118.696C34.6597 118.164 35.0551 117.548 35.3299 116.878Z" fill="#417BA4"/>
   <defs>
      <filter id="filter0_d_2043_7902" x="31.3994" y="15.1338" width="110.723" height="129.017" filterUnits="userSpaceOnUse" color-interpolation-filters="sRGB">
         <feFlood flood-opacity="0" result="BackgroundImageFix"/>
         <feColorMatrix in="SourceAlpha" type="matrix" values="0 0 0 0 0 0 0 0 0 0 0 0 0 0 0 0 0 0 127 0" result="hardAlpha"/>
         <feOffset dy="12"/>
         <feGaussianBlur stdDeviation="9"/>
         <feComposite in2="hardAlpha" operator="out"/>
         <feColorMatrix type="matrix" values="0 0 0 0 0.570833 0 0 0 0 0.570833 0 0 0 0 0.570833 0 0 0 0.19 0"/>
         <feBlend mode="normal" in2="BackgroundImageFix" result="effect1_dropShadow_2043_7902"/>
         <feBlend mode="normal" in="SourceGraphic" in2="effect1_dropShadow_2043_7902" result="shape"/>
      </filter>
      <filter id="filter1_d_2043_7902" x="125.6" y="5.4544" width="57.7318" height="39.8333" filterUnits="userSpaceOnUse" color-interpolation-filters="sRGB">
         <feFlood flood-opacity="0" result="BackgroundImageFix"/>
         <feColorMatrix in="SourceAlpha" type="matrix" values="0 0 0 0 0 0 0 0 0 0 0 0 0 0 0 0 0 0 127 0" result="hardAlpha"/>
         <feOffset dx="3.6" dy="2.4"/>
         <feGaussianBlur stdDeviation="3.9"/>
         <feComposite in2="hardAlpha" operator="out"/>
         <feColorMatrix type="matrix" values="0 0 0 0 0.104618 0 0 0 0 0.465612 0 0 0 0 0.545833 0 0 0 0.09 0"/>
         <feBlend mode="normal" in2="BackgroundImageFix" result="effect1_dropShadow_2043_7902"/>
         <feBlend mode="normal" in="SourceGraphic" in2="effect1_dropShadow_2043_7902" result="shape"/>
      </filter>
      <filter id="filter2_b_2043_7902" x="69.7996" y="43.6" width="75.0004" height="74.4" filterUnits="userSpaceOnUse" color-interpolation-filters="sRGB">
         <feFlood flood-opacity="0" result="BackgroundImageFix"/>
         <feGaussianBlur in="BackgroundImageFix" stdDeviation="2.4"/>
         <feComposite in2="SourceAlpha" operator="in" result="effect1_backgroundBlur_2043_7902"/>
         <feBlend mode="normal" in="SourceGraphic" in2="effect1_backgroundBlur_2043_7902" result="shape"/>
      </filter>
      <linearGradient id="paint0_linear_2043_7902" x1="85.445" y1="-23.045" x2="86.9199" y2="229.808" gradientUnits="userSpaceOnUse">
         <stop stop-color="#F2F2F2"/>
         <stop offset="1" stop-color="#EFEFEF"/>
      </linearGradient>
   </defs>
</svg>
