<svg xmlns="http://www.w3.org/2000/svg" width="85" height="88" viewBox="0 0 85 88" fill="none">
   <path fill-rule="evenodd" clip-rule="evenodd" d="M34.1331 67.8174C32.9656 66.5602 24.6143 60.6768 23.0407 60.0029C21.6796 59.4498 19.9698 59.1934 19.0031 60.5824C18.151 61.9528 18.1062 63.6684 18.658 65.1626C19.2808 67.2201 20.4245 69.0484 21.9499 70.4915C22.7675 71.2538 23.6904 71.8998 24.7128 72.4379C26.5796 73.3846 28.6784 73.8406 30.8139 73.7303C32.3974 73.7363 33.9844 73.1072 34.9728 71.8328C35.9395 70.4438 35.1153 68.915 34.1331 67.8174ZM71.7709 34.3032C71.4542 27.3483 67.5235 20.5218 61.8206 16.5042L61.5754 16.3314C55.9924 12.3983 48.5417 11.0204 42.0072 12.8714C37.5725 14.1731 34.3114 16.3967 31.0826 21.0361L30.2648 22.2112C27.8538 25.6754 25.5826 27.1184 21.8797 28.0164C19.1583 28.6827 17.1219 30.5643 15.4417 32.9785C13.7635 35.3898 12.9606 38.2356 13.2447 41.2056C13.7568 44.8867 15.6796 48.361 18.4829 50.7044C22.4466 54.2337 26.6249 57.4546 30.9954 60.5336C35.3631 63.6106 39.8902 66.3361 44.4552 69.0015C47.5999 70.8484 51.5026 71.478 55.1185 70.705C57.9896 69.9579 60.3702 68.2235 62.0484 65.8122C63.7285 63.398 64.7922 60.8311 64.481 58.0284C64.1159 54.2645 64.6269 51.5815 67.0379 48.1173L67.8557 46.9421C70.9994 42.425 71.9918 38.7936 71.7709 34.3032ZM63.2393 28.7258C63.8741 27.9865 64.9613 27.8979 65.6826 28.5188C67.9175 30.5683 68.6427 33.8562 67.4799 36.7031L67.3864 36.9469C66.9943 37.7854 66.0252 38.1763 65.1844 37.8668C64.7544 37.6457 64.406 37.2728 64.2555 36.811C64.1051 36.3493 64.1388 35.8405 64.3575 35.3866L64.3819 35.3231C64.9316 33.8906 64.5572 32.2502 63.4449 31.2393C62.7096 30.5939 62.6248 29.4731 63.2393 28.7258Z" fill="url(#paint0_linear_393_22698)"/>
   <defs>
      <linearGradient id="paint0_linear_393_22698" x1="82.9464" y1="31.387" x2="13.9139" y2="10.0821" gradientUnits="userSpaceOnUse">
         <stop stop-color="#F50951"/>
         <stop offset="0.427315" stop-color="#FD3A7E"/>
         <stop offset="1" stop-color="#FF9B06"/>
      </linearGradient>
   </defs>
</svg>
