<svg xmlns="http://www.w3.org/2000/svg" width="162" height="152" viewBox="0 0 162 152" fill="none">
   <g filter="url(#filter0_d_625_10370)">
      <path d="M123.643 98.3934C118.43 102.496 111.942 104.697 105.397 105.777C104.822 105.879 104.246 105.964 103.675 106.037C102.351 106.224 101.022 106.37 99.6899 106.484C96.2026 106.785 93.5254 109.713 93.5254 113.226V122.458C93.5254 123.856 91.8 124.538 90.8806 123.494C87.5877 119.745 82.294 116.48 76.7452 113.803C75.121 113.011 73.4726 112.276 71.8363 111.602C62.707 107.772 54.2501 105.615 54.2501 105.615C52.8446 105.282 51.4513 104.896 50.0864 104.433C50.0013 104.405 49.9284 104.388 49.8555 104.36C49.4667 104.23 49.0941 104.1 48.7215 103.97C48.6081 103.925 48.5635 103.913 48.5635 103.913V103.897C42.8081 101.781 37.5103 98.499 33.5897 93.8201C28.0773 87.2281 25.7525 78.5159 24.8735 69.9663C23.7557 58.9106 24.9586 46.9451 31.0623 37.4166C37.2511 27.7297 47.5874 22.4862 58.7256 20.8331C68.2275 19.4075 77.8914 20.1995 87.5108 20.4026C99.2403 20.6625 111.845 20.2604 121.65 26.7387C127.248 30.4388 131.371 36.1413 133.866 42.388C136.377 48.6348 137.341 55.4014 137.483 62.1396C137.783 75.555 134.194 90.1118 123.643 98.4056V98.3934Z" fill="url(#paint0_linear_625_10370)"/>
      <g style="mix-blend-mode:multiply" opacity="0.51">
         <path d="M55.6269 86.6755C58.7294 89.1165 62.5893 90.4284 66.4856 91.0702C66.8259 91.1311 67.1701 91.1798 67.5103 91.2245C67.5306 91.2245 67.5508 91.2286 67.5711 91.2326C70.9693 91.7078 73.5493 94.5225 73.5493 97.9627V99.4777C73.5493 100.802 75.1248 101.517 76.0928 100.615C78.041 98.7994 80.7344 97.195 83.5372 95.8425C84.5012 95.3714 85.4854 94.9327 86.4575 94.5306C91.8888 92.2521 96.9233 90.9686 96.9233 90.9686C97.7617 90.7696 98.588 90.5421 99.4021 90.266C99.4547 90.2497 99.4952 90.2416 99.5398 90.2213C99.7706 90.1441 99.9934 90.0669 100.216 89.9898C100.285 89.9654 100.309 89.9573 100.309 89.9573V89.9492C103.736 88.6901 106.887 86.7364 109.22 83.9542C112.501 80.0307 113.886 74.8481 114.404 69.7589C115.073 63.1792 114.352 56.0632 110.723 50.3892C107.041 44.6258 100.893 41.5065 94.2623 40.5195C88.6081 39.6706 82.8568 40.1418 77.1338 40.2636C70.1552 40.418 62.6541 40.1783 56.8217 44.0328C53.4884 46.2342 51.038 49.6256 49.5515 53.346C48.057 57.0624 47.4859 61.0915 47.4008 65.1003C47.2226 73.0854 49.3571 81.7447 55.635 86.6796L55.6269 86.6755Z" fill="url(#paint1_linear_625_10370)"/>
      </g>
      <path d="M55.6269 82.9144C58.7294 85.3554 62.5893 86.6673 66.4856 87.309C66.8259 87.37 67.1701 87.4187 67.5103 87.4634C67.5306 87.4634 67.5508 87.4674 67.5711 87.4715C70.9693 87.9467 73.5493 90.7614 73.5493 94.2016V95.7166C73.5493 97.0406 75.1248 97.7555 76.0928 96.8538C78.041 95.0383 80.7344 93.4339 83.5372 92.0814C84.5012 91.6103 85.4854 91.1716 86.4575 90.7695C91.8888 88.491 96.9233 87.2075 96.9233 87.2075C97.7617 87.0085 98.588 86.781 99.4021 86.5049C99.4547 86.4886 99.4952 86.4805 99.5398 86.4602C99.7706 86.383 99.9934 86.3058 100.216 86.2287C100.285 86.2043 100.309 86.1962 100.309 86.1962V86.188C103.736 84.929 106.887 82.9753 109.22 80.1931C112.501 76.2696 113.886 71.087 114.404 65.9978C115.073 59.4181 114.352 52.3021 110.723 46.6281C107.041 40.8647 100.893 37.7454 94.2623 36.7584C88.6081 35.9095 82.8568 36.3807 77.1338 36.5025C70.1552 36.6569 62.6541 36.4172 56.8217 40.2717C53.4884 42.4731 51.038 45.8645 49.5515 49.5849C48.057 53.3013 47.4859 57.3304 47.4008 61.3392C47.2226 69.3243 49.3571 77.9836 55.635 82.9185L55.6269 82.9144Z" fill="white"/>
      <g style="mix-blend-mode:multiply" opacity="0.51">
         <path d="M63.2154 69.8199C66.8033 69.8199 69.712 66.9031 69.712 63.3051C69.712 59.7071 66.8033 56.7903 63.2154 56.7903C59.6274 56.7903 56.7188 59.7071 56.7188 63.3051C56.7188 66.9031 59.6274 69.8199 63.2154 69.8199Z" fill="url(#paint2_linear_625_10370)"/>
      </g>
      <g style="mix-blend-mode:multiply" opacity="0.51">
         <path d="M80.9927 69.8199C84.5807 69.8199 87.4893 66.9031 87.4893 63.3051C87.4893 59.7071 84.5807 56.7903 80.9927 56.7903C77.4047 56.7903 74.4961 59.7071 74.4961 63.3051C74.4961 66.9031 77.4047 69.8199 80.9927 69.8199Z" fill="url(#paint3_linear_625_10370)"/>
      </g>
      <g style="mix-blend-mode:multiply" opacity="0.51">
         <path d="M98.7935 69.8199C102.381 69.8199 105.29 66.9031 105.29 63.3051C105.29 59.7071 102.381 56.7903 98.7935 56.7903C95.2055 56.7903 92.2969 59.7071 92.2969 63.3051C92.2969 66.9031 95.2055 69.8199 98.7935 69.8199Z" fill="url(#paint4_linear_625_10370)"/>
      </g>
   </g>
   <defs>
      <filter id="filter0_d_625_10370" x="0.5" y="0" width="161" height="152" filterUnits="userSpaceOnUse" color-interpolation-filters="sRGB">
         <feFlood flood-opacity="0" result="BackgroundImageFix"/>
         <feColorMatrix in="SourceAlpha" type="matrix" values="0 0 0 0 0 0 0 0 0 0 0 0 0 0 0 0 0 0 127 0" result="hardAlpha"/>
         <feOffset dy="4"/>
         <feGaussianBlur stdDeviation="12"/>
         <feComposite in2="hardAlpha" operator="out"/>
         <feColorMatrix type="matrix" values="0 0 0 0 1 0 0 0 0 0.0117647 0 0 0 0 0.298039 0 0 0 0.16 0"/>
         <feBlend mode="normal" in2="BackgroundImageFix" result="effect1_dropShadow_625_10370"/>
         <feBlend mode="normal" in="SourceGraphic" in2="effect1_dropShadow_625_10370" result="shape"/>
      </filter>
      <linearGradient id="paint0_linear_625_10370" x1="132.521" y1="20" x2="3.54029" y2="72.7768" gradientUnits="userSpaceOnUse">
         <stop stop-color="#F50951"/>
         <stop offset="0.427315" stop-color="#FD3A7E"/>
         <stop offset="1" stop-color="#FF9B06"/>
      </linearGradient>
      <linearGradient id="paint1_linear_625_10370" x1="111.665" y1="40.0233" x2="35.2406" y2="71.75" gradientUnits="userSpaceOnUse">
         <stop stop-color="#F50951"/>
         <stop offset="0.427315" stop-color="#FD3A7E"/>
         <stop offset="1" stop-color="#FF9B06"/>
      </linearGradient>
      <linearGradient id="paint2_linear_625_10370" x1="69.1395" y1="56.7903" x2="53.9656" y2="62.4887" gradientUnits="userSpaceOnUse">
         <stop stop-color="#F50951"/>
         <stop offset="0.427315" stop-color="#FD3A7E"/>
         <stop offset="1" stop-color="#FF9B06"/>
      </linearGradient>
      <linearGradient id="paint3_linear_625_10370" x1="86.9168" y1="56.7903" x2="71.7429" y2="62.4887" gradientUnits="userSpaceOnUse">
         <stop stop-color="#F50951"/>
         <stop offset="0.427315" stop-color="#FD3A7E"/>
         <stop offset="1" stop-color="#FF9B06"/>
      </linearGradient>
      <linearGradient id="paint4_linear_625_10370" x1="104.718" y1="56.7903" x2="89.5437" y2="62.4887" gradientUnits="userSpaceOnUse">
         <stop stop-color="#F50951"/>
         <stop offset="0.427315" stop-color="#FD3A7E"/>
         <stop offset="1" stop-color="#FF9B06"/>
      </linearGradient>
   </defs>
</svg>
