<svg width="681" height="335" viewBox="0 0 681 335" fill="none" xmlns="http://www.w3.org/2000/svg">
   <path d="M453.246 116.312L454.804 119.476L458.312 119.985L455.771 122.461L456.378 125.953L453.246 124.297L450.114 125.953L450.705 122.461L448.18 119.985L451.672 119.476L453.246 116.312Z" fill="url(#paint0_linear_1_3)"/>
   <path d="M158.924 274.991L160.498 278.172L163.99 278.68L161.465 281.156L162.055 284.632L158.924 282.992L155.792 284.632L156.399 281.156L153.857 278.68L157.366 278.172L158.924 274.991Z" fill="url(#paint1_linear_1_3)"/>
   <path d="M567.833 0L569.407 3.1644L572.899 3.67267L570.374 6.14845L570.965 9.62437L567.833 7.98478L564.701 9.62437L565.308 6.14845L562.767 3.67267L566.275 3.1644L567.833 0Z" fill="url(#paint2_linear_1_3)"/>
   <path d="M216.164 4.80408L217.738 7.98487L221.23 8.49314L218.705 10.9689L219.296 14.4448L216.164 12.8053L213.032 14.4448L213.639 10.9689L211.098 8.49314L214.606 7.98487L216.164 4.80408Z" fill="url(#paint3_linear_1_3)"/>
   <path d="M662.094 265.367L663.652 268.531L667.161 269.04L664.619 271.515L665.226 274.991L662.094 273.352L658.963 274.991L659.553 271.515L657.012 269.04L660.52 268.531L662.094 265.367Z" fill="url(#paint4_linear_1_3)"/>
   <path d="M317.044 110.853L318.602 114.033L322.11 114.542L319.569 117.001L320.176 120.493L317.044 118.854L313.913 120.493L314.503 117.001L311.961 114.542L315.47 114.033L317.044 110.853Z" fill="url(#paint5_linear_1_3)"/>
   <path d="M5.08271 45.4985L6.64032 48.6793L10.149 49.1875L7.60767 51.6633L8.21432 55.1392L5.08271 53.4997L1.93471 55.1392L2.54136 51.6633L0 49.1875L3.50871 48.6793L5.08271 45.4985Z" fill="url(#paint6_linear_1_3)"/>
   <path d="M72.6459 234.969L74.2035 238.133L77.7122 238.642L75.1709 241.118L75.7775 244.61L72.6459 242.954L69.5143 244.61L70.1046 241.118L67.5796 238.642L71.0719 238.133L72.6459 234.969Z" fill="url(#paint7_linear_1_3)"/>
   <path d="M5.08404 288.977L6.05139 290.944L8.21565 291.256L6.64164 292.781L7.01875 294.929L5.08404 293.912L3.13293 294.929L3.51004 292.781L1.93604 291.256L4.10029 290.944L5.08404 288.977Z" fill="url(#paint8_linear_1_3)"/>
   <path d="M225.263 89.915L226.23 91.8825L228.395 92.194L226.821 93.7188L227.198 95.8667L225.263 94.8502L223.312 95.8667L223.689 93.7188L222.131 92.194L224.296 91.8825L225.263 89.915Z" fill="url(#paint9_linear_1_3)"/>
   <path d="M387.925 264.219L388.892 266.187L391.056 266.498L389.499 268.023L389.859 270.171L387.925 269.155L385.99 270.171L386.367 268.023L384.793 266.498L386.957 266.187L387.925 264.219Z" fill="url(#paint10_linear_1_3)"/>
   <path d="M22.0838 62.501L23.0511 64.4685L25.2154 64.78L23.6414 66.3048L24.0185 68.4691L22.0838 67.4525L20.149 68.4691L20.5098 66.3048L18.9521 64.78L21.1164 64.4685L22.0838 62.501Z" fill="url(#paint11_linear_1_3)"/>
   <path d="M572.904 236.805L573.888 238.773L576.036 239.084L574.478 240.609L574.855 242.757L572.904 241.74L570.969 242.757L571.346 240.609L569.772 239.084L571.937 238.773L572.904 236.805Z" fill="url(#paint12_linear_1_3)"/>
   <path d="M85.72 329.048L86.6873 331.016L88.8516 331.327L87.294 332.852L87.6547 335L85.72 333.983L83.7853 335L84.1624 332.852L82.5884 331.327L84.7526 331.016L85.72 329.048Z" fill="url(#paint13_linear_1_3)"/>
   <path d="M48.1355 224.394L49.1029 226.345L51.2671 226.673L49.7095 228.198L50.0702 230.345L48.1355 229.329L46.2008 230.345L46.5779 228.198L45.0039 226.673L47.1682 226.345L48.1355 224.394Z" fill="url(#paint14_linear_1_3)"/>
   <path d="M365.861 74.7324L366.828 76.6835L368.993 76.995L367.419 78.5199L367.796 80.6841L365.861 79.6676L363.926 80.6841L364.287 78.5199L362.729 76.995L364.894 76.6835L365.861 74.7324Z" fill="url(#paint15_linear_1_3)"/>
   <path d="M580.582 329.048L581.549 331.016L583.713 331.327L582.156 332.852L582.517 335L580.582 333.983L578.647 335L579.024 332.852L577.45 331.327L579.614 331.016L580.582 329.048Z" fill="url(#paint16_linear_1_3)"/>
   <path d="M677.823 141.89L678.79 143.857L680.955 144.169L679.381 145.694L679.758 147.858L677.823 146.825L675.888 147.858L676.249 145.694L674.691 144.169L676.856 143.857L677.823 141.89Z" fill="url(#paint17_linear_1_3)"/>
   <path d="M592.35 138.906L593.318 140.873L595.482 141.185L593.908 142.709L594.285 144.874L592.35 143.857L590.416 144.874L590.776 142.709L589.219 141.185L591.383 140.873L592.35 138.906Z" fill="url(#paint18_linear_1_3)"/>
   <path d="M538.356 120.615C537.88 144.956 523.248 155.03 523.248 155.03C523.605 153.683 523.914 152.383 524.168 151.122C524.271 150.623 524.358 150.14 524.445 149.656C524.532 149.173 524.612 148.689 524.683 148.221C524.778 147.635 524.849 147.056 524.921 146.486C524.952 146.2 524.984 145.915 525.016 145.637C525.055 145.297 525.087 144.964 525.111 144.639C525.135 144.346 525.159 144.06 525.174 143.775C525.206 143.402 525.222 143.03 525.238 142.665C525.262 142.301 525.27 141.936 525.277 141.579C524.445 146.145 522.852 148.808 522.852 148.808C522.955 131.957 510.02 127.17 510.02 127.17L513.816 124.411L521.283 118.998C522.012 120.401 522.63 121.756 523.153 123.088L524.199 122.921L535.011 121.161L538.356 120.615Z" fill="url(#paint19_linear_1_3)"/>
   <path opacity="0.2" d="M525.276 141.579C525.332 139.384 525.221 137.394 525.015 135.595C524.658 139.693 523.77 142.649 523.263 144.06C522.399 140.359 521.305 137.172 520.108 134.454C522.074 135.175 524.309 135.413 526.608 135.04C529.517 134.565 532.014 133.193 533.797 131.323C533.86 131.339 533.924 131.355 533.995 131.37C531.704 142.586 526.164 149.085 524.167 151.122C524.27 150.623 524.365 150.14 524.444 149.656C524.531 149.173 524.61 148.697 524.682 148.221C524.777 147.635 524.848 147.056 524.92 146.486C524.959 146.2 524.991 145.915 525.015 145.637C525.054 145.297 525.086 144.964 525.11 144.639C525.134 144.346 525.157 144.06 525.173 143.775C525.205 143.394 525.229 143.03 525.237 142.665C525.26 142.301 525.268 141.936 525.276 141.579Z" fill="white"/>
   <path d="M552.915 116.144C552.518 113.719 550.679 111.84 548.254 111.048C547.184 105.666 541.39 102.154 535.128 103.177C533.686 103.415 532.346 103.882 531.133 104.509C529.532 103.454 527.44 102.971 525.252 103.328C524.277 103.486 523.374 103.803 522.565 104.231C520.584 103.494 518.317 103.24 515.979 103.621C510.842 104.461 506.967 108.091 506.118 112.379C502.734 113.56 500.554 116.675 501.077 119.885C501.252 120.955 501.711 121.907 502.369 122.723C502.036 123.951 501.949 125.236 502.155 126.535C503.059 132.092 508.964 135.754 515.352 134.715C517.223 134.414 518.911 133.732 520.362 132.789C522.629 133.97 525.403 134.462 528.28 133.994C531.189 133.518 533.686 132.147 535.461 130.277C537.173 130.736 539.044 130.855 540.954 130.546C546.05 129.714 549.903 126.139 550.79 121.899C552.399 120.393 553.255 118.3 552.907 116.152L552.915 116.144Z" fill="url(#paint20_linear_1_3)"/>
   <path opacity="0.2" d="M550.798 121.89C549.91 126.131 546.058 129.714 540.962 130.538C539.044 130.855 537.173 130.736 535.469 130.276C533.685 132.147 531.189 133.518 528.28 133.994C525.41 134.461 522.636 133.97 520.369 132.789C518.919 133.724 517.223 134.406 515.36 134.707C508.972 135.745 503.067 132.083 502.163 126.527C501.949 125.227 502.044 123.935 502.369 122.715C501.711 121.898 501.252 120.947 501.077 119.877C500.554 116.659 502.742 113.552 506.118 112.371C506.372 111.119 506.871 109.93 507.592 108.836C509.336 106.205 512.34 104.207 515.978 103.613C518.317 103.232 520.583 103.494 522.565 104.231C523.373 103.803 524.277 103.486 525.252 103.327C527.44 102.971 529.54 103.454 531.133 104.508C532.346 103.874 533.685 103.415 535.128 103.177C538.449 102.638 541.643 103.367 544.069 104.984C544.077 104.984 544.085 104.992 544.092 105C546.225 106.426 547.754 108.527 548.254 111.047C550.679 111.848 552.518 113.719 552.914 116.152C553.263 118.292 552.407 120.384 550.798 121.89Z" fill="white"/>
   <path opacity="0.2" d="M548.312 116.35C548.312 120.892 543.874 124.578 538.397 124.578C537.572 124.578 536.78 124.49 536.011 124.332C535.218 128.216 531.152 131.172 526.246 131.172C522.283 131.172 518.875 129.238 517.289 126.448C516.053 126.908 514.682 127.177 513.231 127.177C507.762 127.177 503.315 123.492 503.315 118.942C503.315 116.255 504.869 113.885 507.271 112.379C507.207 112.007 507.16 111.618 507.16 111.23C507.16 110.398 507.31 109.589 507.588 108.836C509.331 106.205 512.335 104.207 515.974 103.613C518.312 103.232 520.579 103.494 522.56 104.231C523.369 103.803 524.272 103.486 525.247 103.328C527.435 102.971 529.535 103.454 531.128 104.509C532.341 103.874 533.681 103.415 535.123 103.177C538.444 102.638 541.638 103.367 544.064 104.984C544.072 104.984 544.08 104.992 544.088 105C545.808 106.482 546.862 108.495 546.862 110.715C546.862 111.119 546.814 111.523 546.751 111.92C547.734 113.196 548.312 114.717 548.312 116.35Z" fill="white"/>
   <path d="M515.738 122.715L515.897 123.682L511.228 124.443L510.214 118.221L514.756 117.484L514.914 118.451L511.53 119.006L511.791 120.622L514.795 120.131L514.954 121.082L511.95 121.574L512.227 123.286L515.738 122.715Z" fill="white"/>
   <path d="M521.255 122.81L519.685 121.193C519.606 121.217 519.527 121.225 519.447 121.241L518.045 121.471L518.338 123.286L517.181 123.476L516.166 117.254L518.726 116.834C520.359 116.564 521.516 117.238 521.738 118.617C521.889 119.56 521.524 120.329 520.732 120.797L522.499 122.612L521.255 122.818V122.81ZM518.837 117.817L517.482 118.039L517.886 120.519L519.233 120.297C520.248 120.131 520.7 119.584 520.573 118.799C520.446 118.015 519.844 117.65 518.837 117.817Z" fill="white"/>
   <path d="M527.755 121.748L526.185 120.131C526.106 120.155 526.027 120.163 525.947 120.179L524.545 120.408L524.838 122.224L523.681 122.414L522.666 116.192L525.226 115.772C526.859 115.502 528.016 116.176 528.238 117.555C528.389 118.498 528.024 119.267 527.232 119.735L528.999 121.55L527.755 121.756V121.748ZM525.337 116.755L523.982 116.976L524.386 119.457L525.741 119.235C526.756 119.069 527.208 118.522 527.081 117.737C526.954 116.953 526.352 116.588 525.345 116.755H525.337Z" fill="white"/>
   <path d="M529.23 118.316C528.928 116.477 530.133 114.884 532.059 114.567C533.985 114.25 535.634 115.375 535.935 117.222C536.236 119.069 535.032 120.654 533.105 120.971C531.179 121.288 529.531 120.155 529.23 118.316ZM534.77 117.412C534.564 116.144 533.478 115.375 532.226 115.581C530.973 115.787 530.189 116.858 530.395 118.126C530.601 119.394 531.687 120.163 532.939 119.957C534.191 119.751 534.976 118.681 534.77 117.412Z" fill="white"/>
   <path d="M541.741 119.473L540.172 117.856C540.092 117.88 540.013 117.888 539.934 117.904L538.531 118.134L538.824 119.949L537.667 120.139L536.652 113.917L539.213 113.497C540.845 113.227 542.003 113.901 542.224 115.28C542.375 116.223 542.01 116.992 541.218 117.46L542.985 119.275L541.741 119.481V119.473ZM539.323 114.48L537.968 114.702L538.372 117.183L539.728 116.961C540.742 116.794 541.194 116.247 541.067 115.463C540.94 114.678 540.338 114.313 539.331 114.48H539.323Z" fill="white"/>
   <path d="M289.79 226.165C289.79 226.165 289.79 226.157 289.782 226.157C289.596 225.939 289.386 225.737 289.168 225.542C289.168 225.542 289.166 225.54 289.16 225.535C288.974 225.317 288.764 225.114 288.546 224.92C288.546 224.92 288.544 224.917 288.539 224.912C288.352 224.694 288.142 224.492 287.924 224.305C287.924 224.305 287.922 224.302 287.917 224.297C287.73 224.079 287.52 223.877 287.303 223.682C287.303 223.682 287.3 223.68 287.295 223.674C287.108 223.457 286.898 223.254 286.681 223.06C286.681 223.06 286.678 223.057 286.673 223.052C286.486 222.834 286.277 222.632 286.059 222.445C286.059 222.445 286.056 222.442 286.051 222.437C285.865 222.219 285.655 222.017 285.437 221.822C285.437 221.822 285.435 221.82 285.429 221.814C285.243 221.597 285.033 221.394 284.823 221.2C284.823 221.2 284.82 221.197 284.815 221.192C284.629 220.974 284.419 220.772 284.201 220.585C284.201 220.585 284.199 220.582 284.193 220.577C283.564 219.892 282.841 219.308 282.025 218.834V157.67C282.025 157.351 281.869 157.18 281.869 156.861C281.869 156.371 281.869 156.207 281.706 155.888C281.706 155.725 281.551 155.398 281.551 155.234C281.387 154.744 281.387 154.581 281.224 154.261C281.061 154.098 280.905 153.771 280.905 153.608C280.579 153.117 280.416 152.954 280.252 152.798C280.089 152.635 279.934 152.308 279.763 152.145L279.11 151.491C279.11 151.39 278.985 151.296 278.846 151.226C278.76 151.141 278.659 151.039 278.527 150.907L278.496 150.876C278.496 150.775 278.371 150.681 278.231 150.611C278.146 150.526 278.045 150.425 277.913 150.292L277.882 150.261C277.882 150.16 277.757 150.067 277.617 149.997C277.532 149.911 277.431 149.81 277.299 149.677L277.268 149.646C277.268 149.545 277.143 149.452 277.003 149.382C276.918 149.296 276.817 149.195 276.685 149.063L276.654 149.032C276.654 148.93 276.529 148.837 276.389 148.767C276.304 148.681 276.203 148.58 276.071 148.448L276.039 148.417C276.039 148.316 275.915 148.222 275.775 148.152C275.69 148.066 275.589 147.965 275.456 147.833L275.425 147.802C275.425 147.701 275.301 147.607 275.161 147.537C275.076 147.452 274.975 147.35 274.842 147.218L274.811 147.187C274.811 147.086 274.687 146.992 274.547 146.922C274.462 146.837 274.36 146.736 274.228 146.603L274.197 146.572C274.197 146.471 274.073 146.378 273.933 146.308C273.847 146.222 273.746 146.121 273.614 145.989L273.583 145.957C273.583 145.856 273.459 145.763 273.319 145.693L272.961 145.335C272.961 145.179 272.643 145.016 272.472 145.016C272.472 144.852 272.316 144.852 272.316 144.852C271.99 144.697 271.819 144.533 271.5 144.362C271.337 144.199 271.01 144.043 270.692 143.708C270.528 143.708 270.202 143.553 270.039 143.553C269.72 143.389 269.222 143.389 269.067 143.226C268.748 143.226 268.577 143.226 268.251 143.07H265.499C265.336 143.226 265.009 143.226 264.846 143.226C264.356 143.389 264.038 143.389 263.875 143.553C263.556 143.553 263.385 143.708 263.222 144.043C262.732 144.043 262.576 144.199 262.25 144.362C262.095 144.525 261.76 144.689 261.597 144.852C261.442 145.016 261.278 145.179 260.789 145.343C260.633 145.669 260.47 145.833 260.299 145.996C260.136 146.16 260.136 146.315 259.98 146.315L199.91 221.036C196.995 224.71 197.275 229.838 200.718 232.99C200.905 233.216 201.115 233.418 201.34 233.613C201.527 233.839 201.736 234.041 201.962 234.235C202.148 234.461 202.358 234.664 202.584 234.858C202.77 235.084 202.98 235.286 203.206 235.481C203.392 235.706 203.602 235.909 203.827 236.103C204.014 236.329 204.224 236.531 204.449 236.726C204.636 236.952 204.846 237.154 205.071 237.349C205.258 237.574 205.468 237.777 205.693 237.971C205.88 238.197 206.089 238.399 206.315 238.594C206.688 239.014 207.115 239.411 207.582 239.769C209.206 241.232 211.15 241.715 213.101 241.715H258.045V247.871C258.045 250.563 259.149 252.922 260.944 254.54L260.967 254.564C261.154 254.774 261.356 254.968 261.558 255.155C261.566 255.163 261.574 255.163 261.574 255.171C261.76 255.389 261.97 255.583 262.172 255.77L262.196 255.793C262.382 256.003 262.584 256.198 262.786 256.385C262.794 256.393 262.802 256.393 262.802 256.4C262.988 256.618 263.198 256.813 263.4 257L263.424 257.023C263.61 257.233 263.812 257.428 264.014 257.614C264.022 257.622 264.03 257.622 264.03 257.63C264.217 257.848 264.426 258.042 264.629 258.229L264.652 258.253C264.838 258.463 265.041 258.657 265.243 258.844C265.25 258.852 265.258 258.852 265.258 258.86C265.445 259.078 265.655 259.272 265.857 259.459L265.88 259.482C266.067 259.692 266.269 259.887 266.471 260.074C266.479 260.082 266.486 260.082 266.486 260.089C268.103 261.864 270.443 262.961 273.109 262.961C278.138 262.961 282.032 259.054 282.032 254.019V241.668H283.657C288.686 241.668 292.744 237.769 292.744 232.733C292.744 230.15 291.601 227.784 289.774 226.142L289.79 226.165ZM258.014 191.361V217.627H236.879L258.014 191.361Z" fill="url(#paint21_linear_1_3)"/>
   <path opacity="0.1" d="M289.79 226.165C289.79 226.165 289.79 226.157 289.782 226.157C289.596 225.939 289.386 225.737 289.168 225.542C289.168 225.542 289.166 225.54 289.16 225.535C288.974 225.317 288.764 225.114 288.546 224.92C288.546 224.92 288.544 224.917 288.539 224.912C288.352 224.694 288.142 224.492 287.924 224.305C287.924 224.305 287.922 224.302 287.917 224.297C287.73 224.079 287.52 223.877 287.303 223.682C287.303 223.682 287.3 223.68 287.295 223.674C287.108 223.457 286.898 223.254 286.681 223.06C286.681 223.06 286.678 223.057 286.673 223.052C286.486 222.834 286.277 222.632 286.059 222.445C286.059 222.445 286.056 222.442 286.051 222.437C285.865 222.219 285.655 222.017 285.437 221.822C285.437 221.822 285.435 221.82 285.429 221.814C285.243 221.597 285.033 221.394 284.823 221.2C284.823 221.2 284.82 221.197 284.815 221.192C284.629 220.974 284.419 220.772 284.201 220.585C284.201 220.585 284.199 220.582 284.193 220.577C283.564 219.892 282.841 219.308 282.025 218.834V157.67C282.025 157.351 281.869 157.18 281.869 156.861C281.869 156.371 281.869 156.207 281.706 155.888C281.706 155.725 281.551 155.398 281.551 155.234C281.387 154.744 281.387 154.581 281.224 154.261C281.061 154.098 280.905 153.771 280.905 153.608C280.579 153.117 280.416 152.954 280.252 152.798C280.089 152.635 279.934 152.308 279.763 152.145L279.11 151.491C279.11 151.39 278.985 151.296 278.846 151.226C278.76 151.141 278.659 151.039 278.527 150.907L278.496 150.876C278.496 150.775 278.371 150.681 278.231 150.611C278.146 150.526 278.045 150.425 277.913 150.292L277.882 150.261C277.882 150.16 277.757 150.067 277.617 149.997C277.532 149.911 277.431 149.81 277.299 149.677L277.268 149.646C277.268 149.545 277.143 149.452 277.003 149.382C276.918 149.296 276.817 149.195 276.685 149.063L276.654 149.032C276.654 148.93 276.529 148.837 276.389 148.767C276.304 148.681 276.203 148.58 276.071 148.448L276.039 148.417C276.039 148.316 275.915 148.222 275.775 148.152C275.69 148.066 275.589 147.965 275.456 147.833L275.425 147.802C275.425 147.701 275.301 147.607 275.161 147.537C275.076 147.452 274.975 147.35 274.842 147.218L274.811 147.187C274.811 147.086 274.687 146.992 274.547 146.922C274.462 146.837 274.36 146.736 274.228 146.603L274.197 146.572C274.197 146.471 274.073 146.378 273.933 146.308C273.847 146.222 273.746 146.121 273.614 145.989L273.583 145.957C273.583 145.856 273.459 145.763 273.319 145.693L272.961 145.335C272.961 145.179 272.643 145.016 272.472 145.016C272.472 144.852 272.316 144.852 272.316 144.852C271.99 144.697 271.819 144.533 271.5 144.362C271.337 144.199 271.01 144.043 270.692 143.708C270.528 143.708 270.202 143.553 270.039 143.553C269.72 143.389 269.222 143.389 269.067 143.226C268.748 143.226 268.577 143.226 268.251 143.07H265.499C265.336 143.226 265.009 143.226 264.846 143.226C264.356 143.389 264.038 143.389 263.875 143.553C263.556 143.553 263.385 143.708 263.222 144.043C262.732 144.043 262.576 144.199 262.25 144.362C262.095 144.525 261.76 144.689 261.597 144.852C261.442 145.016 261.278 145.179 260.789 145.343C260.633 145.669 260.47 145.833 260.299 145.996C260.136 146.16 260.136 146.315 259.98 146.315L199.91 221.036C196.995 224.71 197.275 229.838 200.718 232.99C200.905 233.216 201.115 233.418 201.34 233.613C201.527 233.839 201.736 234.041 201.962 234.235C202.148 234.461 202.358 234.664 202.584 234.858C202.77 235.084 202.98 235.286 203.206 235.481C203.392 235.706 203.602 235.909 203.827 236.103C204.014 236.329 204.224 236.531 204.449 236.726C204.636 236.952 204.846 237.154 205.071 237.349C205.258 237.574 205.468 237.777 205.693 237.971C205.88 238.197 206.089 238.399 206.315 238.594C206.688 239.014 207.115 239.411 207.582 239.769C209.206 241.232 211.15 241.715 213.101 241.715H258.045V247.871C258.045 250.563 259.149 252.922 260.944 254.54L260.967 254.564C261.154 254.774 261.356 254.968 261.558 255.155C261.566 255.163 261.574 255.163 261.574 255.171C261.76 255.389 261.97 255.583 262.172 255.77L262.196 255.793C262.382 256.003 262.584 256.198 262.786 256.385C262.794 256.393 262.802 256.393 262.802 256.4C262.988 256.618 263.198 256.813 263.4 257L263.424 257.023C263.61 257.233 263.812 257.428 264.014 257.614C264.022 257.622 264.03 257.622 264.03 257.63C264.217 257.848 264.426 258.042 264.629 258.229L264.652 258.253C264.838 258.463 265.041 258.657 265.243 258.844C265.25 258.852 265.258 258.852 265.258 258.86C265.445 259.078 265.655 259.272 265.857 259.459L265.88 259.482C266.067 259.692 266.269 259.887 266.471 260.074C266.479 260.082 266.486 260.082 266.486 260.089C268.103 261.864 270.443 262.961 273.109 262.961C278.138 262.961 282.032 259.054 282.032 254.019V241.668H283.657C288.686 241.668 292.744 237.769 292.744 232.733C292.744 230.15 291.601 227.784 289.774 226.142L289.79 226.165ZM258.014 191.361V217.627H236.879L258.014 191.361Z" fill="black"/>
   <path d="M286.578 226.562C286.578 231.597 282.52 235.496 277.491 235.496H275.866V247.847C275.866 252.883 271.972 256.782 266.943 256.782C261.914 256.782 258.012 252.883 258.012 247.847V235.496H206.88C204.929 235.496 202.986 235.006 201.361 233.543C197.304 230.453 196.814 224.927 199.9 221.028L259.955 146.276C260.118 146.276 260.118 146.113 260.281 145.95C260.445 145.786 260.608 145.623 260.771 145.296C261.253 145.132 261.416 144.969 261.579 144.806C261.743 144.642 262.069 144.479 262.232 144.315C262.559 144.152 262.722 143.988 263.204 143.988C263.367 143.662 263.53 143.498 263.857 143.498C264.02 143.335 264.347 143.335 264.829 143.171C264.992 143.171 265.311 143.171 265.474 143.008H268.233C268.56 143.171 268.723 143.171 269.042 143.171C269.205 143.335 269.687 143.335 270.013 143.498C270.176 143.498 270.503 143.662 270.666 143.662C270.993 143.988 271.311 144.152 271.475 144.307C271.801 144.471 271.964 144.634 272.283 144.798C272.283 144.798 272.446 144.798 272.446 144.961C272.609 144.961 272.936 145.125 272.936 145.288C273.262 145.615 273.418 145.778 273.581 145.942C273.744 146.105 273.908 146.432 274.071 146.588C274.234 146.751 274.397 146.915 274.724 147.397C274.724 147.561 274.887 147.887 275.05 148.051C275.213 148.378 275.213 148.541 275.377 149.024C275.377 149.187 275.54 149.514 275.54 149.67C275.703 149.997 275.703 150.16 275.703 150.643C275.703 150.969 275.866 151.133 275.866 151.452V217.62H277.491C282.52 217.62 286.578 221.682 286.578 226.554V226.562ZM258.012 177.485L225.714 217.627H258.012V177.477V177.485Z" fill="url(#paint22_linear_1_3)"/>
   <path d="M381.521 167.258C379.671 164.441 377.549 161.834 375.171 159.522C375.077 159.421 374.992 159.336 374.891 159.25C374.868 159.227 374.844 159.196 374.805 159.164C374.728 159.079 374.658 159.001 374.572 158.923C374.362 158.698 374.145 158.495 373.927 158.277C373.911 158.262 373.888 158.238 373.873 158.231C373.795 158.153 373.725 158.083 373.647 158.005C373.624 157.982 373.601 157.95 373.562 157.919C373.484 157.834 373.414 157.756 373.328 157.678C373.119 157.452 372.901 157.25 372.683 157.032C372.668 157.016 372.644 156.993 372.629 156.985C372.551 156.908 372.481 156.837 372.404 156.76C372.38 156.736 372.357 156.705 372.318 156.674C372.24 156.588 372.17 156.511 372.085 156.433C371.875 156.207 371.657 156.005 371.44 155.787C371.424 155.771 371.401 155.748 371.385 155.74C371.307 155.662 371.238 155.592 371.16 155.514C371.136 155.491 371.113 155.46 371.074 155.429C370.997 155.343 370.927 155.265 370.841 155.188C370.631 154.962 370.414 154.76 370.196 154.542C370.18 154.526 370.157 154.503 370.142 154.495C370.064 154.409 370.002 154.339 369.916 154.269C369.893 154.246 369.869 154.215 369.831 154.184C363.317 147.452 354.813 143 345.283 143C332.458 143 321.909 150.635 315.092 161.032C307.949 171.438 304.226 184.925 304.055 199.875C304.218 214.662 307.949 228.313 315.092 238.718C316.935 241.466 319.033 244.049 321.373 246.345C321.482 246.454 321.591 246.555 321.692 246.657C321.707 246.664 321.723 246.68 321.731 246.695C321.917 246.89 322.119 247.085 322.306 247.271C322.407 247.38 322.5 247.481 322.601 247.575C322.71 247.684 322.819 247.785 322.92 247.886C322.936 247.894 322.951 247.91 322.959 247.925C323.145 248.12 323.348 248.314 323.534 248.501C323.635 248.61 323.728 248.711 323.829 248.805C323.938 248.913 324.047 249.015 324.148 249.116C324.164 249.124 324.179 249.139 324.187 249.155C324.374 249.349 324.576 249.544 324.762 249.731C324.863 249.84 324.957 249.941 325.058 250.034C325.166 250.143 325.275 250.244 325.376 250.345C325.392 250.353 325.407 250.369 325.415 250.384C325.602 250.579 325.804 250.774 325.99 250.96C326.091 251.069 326.185 251.17 326.286 251.264C326.395 251.373 326.503 251.474 326.604 251.575C326.62 251.583 326.636 251.598 326.643 251.614C326.83 251.809 327.032 252.003 327.219 252.19C333.631 258.603 341.91 262.907 351.424 262.907C363.915 262.907 374.627 255.101 381.451 244.867C388.432 234.461 392.326 220.811 392.326 206.024C392.326 191.237 388.424 177.586 381.451 167.181L381.521 167.258ZM360.402 228.671C355.691 235.66 350.343 238.742 345.306 238.742C342.539 238.742 339.617 237.808 336.748 235.792C336.515 235.496 336.297 235.185 336.072 234.858C331.525 228.033 328.276 217.635 328.276 206.094C328.276 194.552 331.525 184.154 336.072 177.173C340.946 170.348 346.465 167.103 351.494 167.258C354.168 167.173 356.927 168.052 359.64 169.928C359.897 170.278 360.153 170.62 360.402 170.986C364.949 177.975 368.198 188.209 368.198 199.906C368.198 211.604 364.949 221.846 360.402 228.671Z" fill="url(#paint23_linear_1_3)"/>
   <path opacity="0.1" d="M381.521 167.258C379.671 164.441 377.549 161.834 375.171 159.522C375.077 159.421 374.992 159.336 374.891 159.25C374.868 159.227 374.844 159.196 374.805 159.164C374.728 159.079 374.658 159.001 374.572 158.923C374.362 158.698 374.145 158.495 373.927 158.277C373.911 158.262 373.888 158.238 373.873 158.231C373.795 158.153 373.725 158.083 373.647 158.005C373.624 157.982 373.601 157.95 373.562 157.919C373.484 157.834 373.414 157.756 373.328 157.678C373.119 157.452 372.901 157.25 372.683 157.032C372.668 157.016 372.644 156.993 372.629 156.985C372.551 156.908 372.481 156.837 372.404 156.76C372.38 156.736 372.357 156.705 372.318 156.674C372.24 156.588 372.17 156.511 372.085 156.433C371.875 156.207 371.657 156.005 371.44 155.787C371.424 155.771 371.401 155.748 371.385 155.74C371.307 155.662 371.238 155.592 371.16 155.514C371.136 155.491 371.113 155.46 371.074 155.429C370.997 155.343 370.927 155.265 370.841 155.188C370.631 154.962 370.414 154.76 370.196 154.542C370.18 154.526 370.157 154.503 370.142 154.495C370.064 154.409 370.002 154.339 369.916 154.269C369.893 154.246 369.869 154.215 369.831 154.184C363.317 147.452 354.813 143 345.283 143C332.458 143 321.909 150.635 315.092 161.032C307.949 171.438 304.226 184.925 304.055 199.875C304.218 214.662 307.949 228.313 315.092 238.718C316.935 241.466 319.033 244.049 321.373 246.345C321.482 246.454 321.591 246.555 321.692 246.657C321.707 246.664 321.723 246.68 321.731 246.695C321.917 246.89 322.119 247.085 322.306 247.271C322.407 247.38 322.5 247.481 322.601 247.575C322.71 247.684 322.819 247.785 322.92 247.886C322.936 247.894 322.951 247.91 322.959 247.925C323.145 248.12 323.348 248.314 323.534 248.501C323.635 248.61 323.728 248.711 323.829 248.805C323.938 248.913 324.047 249.015 324.148 249.116C324.164 249.124 324.179 249.139 324.187 249.155C324.374 249.349 324.576 249.544 324.762 249.731C324.863 249.84 324.957 249.941 325.058 250.034C325.166 250.143 325.275 250.244 325.376 250.345C325.392 250.353 325.407 250.369 325.415 250.384C325.602 250.579 325.804 250.774 325.99 250.96C326.091 251.069 326.185 251.17 326.286 251.264C326.395 251.373 326.503 251.474 326.604 251.575C326.62 251.583 326.636 251.598 326.643 251.614C326.83 251.809 327.032 252.003 327.219 252.19C333.631 258.603 341.91 262.907 351.424 262.907C363.915 262.907 374.627 255.101 381.451 244.867C388.432 234.461 392.326 220.811 392.326 206.024C392.326 191.237 388.424 177.586 381.451 167.181L381.521 167.258ZM360.402 228.671C355.691 235.66 350.343 238.742 345.306 238.742C342.539 238.742 339.617 237.808 336.748 235.792C336.515 235.496 336.297 235.185 336.072 234.858C331.525 228.033 328.276 217.635 328.276 206.094C328.276 194.552 331.525 184.154 336.072 177.173C340.946 170.348 346.465 167.103 351.494 167.258C354.168 167.173 356.927 168.052 359.64 169.928C359.897 170.278 360.153 170.62 360.402 170.986C364.949 177.975 368.198 188.209 368.198 199.906C368.198 211.604 364.949 221.846 360.402 228.671Z" fill="black"/>
   <path d="M304.079 199.906C304.242 184.956 307.973 171.469 315.117 161.063C321.934 150.666 332.482 143.023 345.308 143.023C358.133 143.023 368.518 150.658 375.335 161.063C382.315 171.461 386.21 184.948 386.21 199.906C386.21 214.865 382.315 228.344 375.335 238.742C368.518 248.984 357.807 256.782 345.308 256.782C332.808 256.782 321.934 248.984 315.117 238.742C307.973 228.344 304.242 214.693 304.079 199.906ZM368.192 199.906C368.192 188.209 364.942 177.967 360.403 170.978C355.692 164.153 350.345 160.9 345.308 161.063C340.278 160.9 334.759 164.153 329.894 170.978C325.346 177.967 322.105 188.201 322.105 199.906C322.105 211.611 325.354 221.846 329.894 228.671C334.759 235.66 340.278 238.749 345.308 238.749C350.337 238.749 355.692 235.66 360.403 228.671C364.95 221.846 368.192 211.448 368.192 199.906Z" fill="url(#paint24_linear_1_3)"/>
   <path d="M492.112 226.165C492.112 226.165 492.112 226.157 492.105 226.157C491.91 225.939 491.7 225.737 491.491 225.542C491.491 225.542 491.488 225.54 491.483 225.535C491.288 225.317 491.079 225.114 490.869 224.92C490.869 224.92 490.866 224.917 490.861 224.912C490.667 224.694 490.457 224.492 490.255 224.305C490.255 224.305 490.252 224.302 490.247 224.297C490.053 224.079 489.843 223.877 489.633 223.682C489.633 223.682 489.63 223.68 489.625 223.674C489.431 223.457 489.221 223.254 489.011 223.06C489.011 223.06 489.008 223.057 489.003 223.052C488.809 222.834 488.599 222.632 488.397 222.445C488.397 222.445 488.394 222.442 488.389 222.437C488.195 222.219 487.985 222.017 487.775 221.822C487.775 221.822 487.772 221.82 487.767 221.814C487.573 221.597 487.363 221.394 487.153 221.2C487.153 221.2 487.151 221.197 487.145 221.192C486.951 220.974 486.741 220.772 486.539 220.585C486.539 220.585 486.537 220.582 486.531 220.577C485.902 219.892 485.171 219.301 484.355 218.834V157.67C484.355 157.351 484.199 157.18 484.199 156.861C484.199 156.371 484.199 156.207 484.036 155.888C484.036 155.725 483.881 155.398 483.881 155.234C483.717 154.744 483.717 154.581 483.554 154.261C483.399 154.098 483.236 153.771 483.236 153.608C482.917 153.117 482.746 152.954 482.583 152.798C482.419 152.635 482.264 152.308 482.093 152.145L481.44 151.491C481.44 151.39 481.316 151.296 481.176 151.226C481.09 151.141 480.989 151.039 480.857 150.907L480.826 150.876C480.826 150.775 480.702 150.681 480.562 150.611C480.476 150.526 480.375 150.425 480.243 150.292L480.212 150.261C480.212 150.16 480.087 150.067 479.948 149.997C479.862 149.911 479.761 149.81 479.629 149.677L479.598 149.646C479.598 149.545 479.473 149.452 479.333 149.382L479.015 149.063L478.984 149.032C478.984 148.93 478.859 148.837 478.719 148.767C478.634 148.681 478.533 148.58 478.401 148.448L478.37 148.417C478.37 148.316 478.245 148.222 478.105 148.152C478.02 148.066 477.919 147.965 477.787 147.833L477.756 147.802C477.756 147.701 477.631 147.607 477.491 147.537C477.406 147.452 477.305 147.35 477.173 147.218L477.141 147.187C477.141 147.086 477.017 146.992 476.877 146.922C476.792 146.837 476.691 146.736 476.558 146.603L476.527 146.572C476.527 146.471 476.403 146.378 476.263 146.308C476.178 146.222 476.077 146.121 475.944 145.989L475.913 145.957C475.913 145.856 475.789 145.763 475.649 145.693L475.291 145.335C475.291 145.179 474.973 145.016 474.802 145.016C474.802 144.852 474.639 144.852 474.639 144.852C474.32 144.697 474.149 144.533 473.83 144.362C473.667 144.199 473.34 144.043 473.022 143.708C472.858 143.708 472.532 143.553 472.369 143.553C472.05 143.389 471.56 143.389 471.397 143.226C471.071 143.226 470.907 143.226 470.581 143.07H467.829C467.666 143.226 467.34 143.226 467.176 143.226C466.687 143.389 466.368 143.389 466.205 143.553C465.886 143.553 465.715 143.708 465.552 144.043C465.07 144.043 464.907 144.199 464.58 144.362C464.425 144.525 464.09 144.689 463.935 144.852C463.772 145.016 463.608 145.179 463.119 145.343C462.956 145.669 462.8 145.833 462.629 145.996C462.466 146.16 462.466 146.315 462.31 146.315L402.255 221.075C399.341 224.748 399.62 229.877 403.064 233.029C403.25 233.255 403.46 233.457 403.686 233.652C403.872 233.877 404.082 234.08 404.308 234.274C404.494 234.5 404.704 234.702 404.929 234.897C405.116 235.123 405.326 235.325 405.551 235.52C405.738 235.745 405.948 235.948 406.173 236.142C406.36 236.368 406.57 236.57 406.795 236.765C406.982 236.991 407.191 237.193 407.417 237.387C407.603 237.613 407.813 237.815 408.039 238.01C408.225 238.236 408.435 238.438 408.661 238.633C409.034 239.053 409.461 239.45 409.928 239.808C411.552 241.271 413.495 241.753 415.446 241.753H460.39V247.91C460.39 250.595 461.494 252.96 463.29 254.579C463.298 254.587 463.305 254.587 463.305 254.595C463.492 254.813 463.702 255.007 463.904 255.194L463.927 255.217C464.114 255.428 464.316 255.622 464.518 255.809C464.526 255.817 464.534 255.817 464.534 255.824C464.72 256.042 464.93 256.237 465.132 256.424L465.155 256.447C465.342 256.657 465.544 256.852 465.746 257.039C465.754 257.046 465.762 257.046 465.762 257.054C465.948 257.272 466.158 257.467 466.36 257.653L466.383 257.677C466.57 257.887 466.772 258.081 466.974 258.268C466.982 258.276 466.99 258.276 466.99 258.284C467.176 258.502 467.386 258.696 467.588 258.883L467.612 258.906C467.798 259.116 468 259.311 468.202 259.498C468.21 259.506 468.218 259.506 468.218 259.513C468.404 259.731 468.614 259.926 468.816 260.113L468.84 260.136C470.457 261.91 472.789 263 475.455 263C480.484 263 484.378 259.093 484.378 254.058V241.707H486.003C491.04 241.707 495.097 237.808 495.097 232.772C495.097 230.189 493.955 227.823 492.128 226.18L492.112 226.165ZM460.328 191.361V217.627H439.193L460.328 191.361Z" fill="url(#paint25_linear_1_3)"/>
   <path opacity="0.1" d="M492.112 226.165C492.112 226.165 492.112 226.157 492.105 226.157C491.91 225.939 491.7 225.737 491.491 225.542C491.491 225.542 491.488 225.54 491.483 225.535C491.288 225.317 491.079 225.114 490.869 224.92C490.869 224.92 490.866 224.917 490.861 224.912C490.667 224.694 490.457 224.492 490.255 224.305C490.255 224.305 490.252 224.302 490.247 224.297C490.053 224.079 489.843 223.877 489.633 223.682C489.633 223.682 489.63 223.68 489.625 223.674C489.431 223.457 489.221 223.254 489.011 223.06C489.011 223.06 489.008 223.057 489.003 223.052C488.809 222.834 488.599 222.632 488.397 222.445C488.397 222.445 488.394 222.442 488.389 222.437C488.195 222.219 487.985 222.017 487.775 221.822C487.775 221.822 487.772 221.82 487.767 221.814C487.573 221.597 487.363 221.394 487.153 221.2C487.153 221.2 487.151 221.197 487.145 221.192C486.951 220.974 486.741 220.772 486.539 220.585C486.539 220.585 486.537 220.582 486.531 220.577C485.902 219.892 485.171 219.301 484.355 218.834V157.67C484.355 157.351 484.199 157.18 484.199 156.861C484.199 156.371 484.199 156.207 484.036 155.888C484.036 155.725 483.881 155.398 483.881 155.234C483.717 154.744 483.717 154.581 483.554 154.261C483.399 154.098 483.236 153.771 483.236 153.608C482.917 153.117 482.746 152.954 482.583 152.798C482.419 152.635 482.264 152.308 482.093 152.145L481.44 151.491C481.44 151.39 481.316 151.296 481.176 151.226C481.09 151.141 480.989 151.039 480.857 150.907L480.826 150.876C480.826 150.775 480.702 150.681 480.562 150.611C480.476 150.526 480.375 150.425 480.243 150.292L480.212 150.261C480.212 150.16 480.087 150.067 479.948 149.997C479.862 149.911 479.761 149.81 479.629 149.677L479.598 149.646C479.598 149.545 479.473 149.452 479.333 149.382L479.015 149.063L478.984 149.032C478.984 148.93 478.859 148.837 478.719 148.767C478.634 148.681 478.533 148.58 478.401 148.448L478.37 148.417C478.37 148.316 478.245 148.222 478.105 148.152C478.02 148.066 477.919 147.965 477.787 147.833L477.756 147.802C477.756 147.701 477.631 147.607 477.491 147.537C477.406 147.452 477.305 147.35 477.173 147.218L477.141 147.187C477.141 147.086 477.017 146.992 476.877 146.922C476.792 146.837 476.691 146.736 476.558 146.603L476.527 146.572C476.527 146.471 476.403 146.378 476.263 146.308C476.178 146.222 476.077 146.121 475.944 145.989L475.913 145.957C475.913 145.856 475.789 145.763 475.649 145.693L475.291 145.335C475.291 145.179 474.973 145.016 474.802 145.016C474.802 144.852 474.639 144.852 474.639 144.852C474.32 144.697 474.149 144.533 473.83 144.362C473.667 144.199 473.34 144.043 473.022 143.708C472.858 143.708 472.532 143.553 472.369 143.553C472.05 143.389 471.56 143.389 471.397 143.226C471.071 143.226 470.907 143.226 470.581 143.07H467.829C467.666 143.226 467.34 143.226 467.176 143.226C466.687 143.389 466.368 143.389 466.205 143.553C465.886 143.553 465.715 143.708 465.552 144.043C465.07 144.043 464.907 144.199 464.58 144.362C464.425 144.525 464.09 144.689 463.935 144.852C463.772 145.016 463.608 145.179 463.119 145.343C462.956 145.669 462.8 145.833 462.629 145.996C462.466 146.16 462.466 146.315 462.31 146.315L402.255 221.075C399.341 224.748 399.62 229.877 403.064 233.029C403.25 233.255 403.46 233.457 403.686 233.652C403.872 233.877 404.082 234.08 404.308 234.274C404.494 234.5 404.704 234.702 404.929 234.897C405.116 235.123 405.326 235.325 405.551 235.52C405.738 235.745 405.948 235.948 406.173 236.142C406.36 236.368 406.57 236.57 406.795 236.765C406.982 236.991 407.191 237.193 407.417 237.387C407.603 237.613 407.813 237.815 408.039 238.01C408.225 238.236 408.435 238.438 408.661 238.633C409.034 239.053 409.461 239.45 409.928 239.808C411.552 241.271 413.495 241.753 415.446 241.753H460.39V247.91C460.39 250.595 461.494 252.96 463.29 254.579C463.298 254.587 463.305 254.587 463.305 254.595C463.492 254.813 463.702 255.007 463.904 255.194L463.927 255.217C464.114 255.428 464.316 255.622 464.518 255.809C464.526 255.817 464.534 255.817 464.534 255.824C464.72 256.042 464.93 256.237 465.132 256.424L465.155 256.447C465.342 256.657 465.544 256.852 465.746 257.039C465.754 257.046 465.762 257.046 465.762 257.054C465.948 257.272 466.158 257.467 466.36 257.653L466.383 257.677C466.57 257.887 466.772 258.081 466.974 258.268C466.982 258.276 466.99 258.276 466.99 258.284C467.176 258.502 467.386 258.696 467.588 258.883L467.612 258.906C467.798 259.116 468 259.311 468.202 259.498C468.21 259.506 468.218 259.506 468.218 259.513C468.404 259.731 468.614 259.926 468.816 260.113L468.84 260.136C470.457 261.91 472.789 263 475.455 263C480.484 263 484.378 259.093 484.378 254.058V241.707H486.003C491.04 241.707 495.097 237.808 495.097 232.772C495.097 230.189 493.955 227.823 492.128 226.18L492.112 226.165ZM460.328 191.361V217.627H439.193L460.328 191.361Z" fill="black"/>
   <path d="M488.881 226.562C488.881 231.597 484.823 235.496 479.794 235.496H478.17V247.847C478.17 252.883 474.275 256.782 469.246 256.782C464.217 256.782 460.315 252.883 460.315 247.847V235.496H409.183C407.232 235.496 405.289 235.006 403.665 233.543C399.607 230.453 399.117 224.927 402.203 221.028L462.258 146.276C462.421 146.276 462.421 146.113 462.585 145.95C462.748 145.786 462.911 145.623 463.074 145.296C463.564 145.132 463.727 144.969 463.883 144.806C464.046 144.642 464.372 144.479 464.536 144.315C464.862 144.152 465.025 143.988 465.507 143.988C465.67 143.662 465.834 143.498 466.16 143.498C466.323 143.335 466.65 143.335 467.132 143.171C467.295 143.171 467.621 143.171 467.785 143.008H470.544C470.871 143.171 471.034 143.171 471.353 143.171C471.516 143.335 472.006 143.335 472.324 143.498C472.487 143.498 472.814 143.662 472.977 143.662C473.304 143.988 473.622 144.152 473.786 144.307C474.112 144.471 474.275 144.634 474.594 144.798C474.594 144.798 474.757 144.798 474.757 144.961C474.92 144.961 475.247 145.125 475.247 145.288C475.573 145.615 475.737 145.778 475.9 145.942C476.063 146.105 476.226 146.432 476.39 146.588C476.553 146.751 476.716 146.915 477.042 147.397C477.042 147.561 477.206 147.887 477.369 148.051C477.532 148.378 477.532 148.541 477.695 149.024C477.695 149.187 477.851 149.514 477.851 149.67C478.014 149.997 478.014 150.16 478.014 150.643C478.014 150.969 478.177 151.133 478.177 151.452V217.62H479.802C484.831 217.62 488.889 221.682 488.889 226.554L488.881 226.562ZM460.315 177.485L428.01 217.627H460.315V177.477V177.485Z" fill="url(#paint26_linear_1_3)"/>
   <defs>
      <linearGradient id="paint0_linear_1_3" x1="457.866" y1="116.312" x2="446.193" y2="120.932" gradientUnits="userSpaceOnUse">
         <stop stop-color="#F50951"/>
         <stop offset="0.427315" stop-color="#FD3A7E"/>
         <stop offset="1" stop-color="#FF9B06"/>
      </linearGradient>
      <linearGradient id="paint1_linear_1_3" x1="163.544" y1="274.991" x2="151.87" y2="279.612" gradientUnits="userSpaceOnUse">
         <stop stop-color="#F50951"/>
         <stop offset="0.427315" stop-color="#FD3A7E"/>
         <stop offset="1" stop-color="#FF9B06"/>
      </linearGradient>
      <linearGradient id="paint2_linear_1_3" x1="572.453" y1="-1.29989e-06" x2="560.785" y2="4.6261" gradientUnits="userSpaceOnUse">
         <stop stop-color="#F50951"/>
         <stop offset="0.427315" stop-color="#FD3A7E"/>
         <stop offset="1" stop-color="#FF9B06"/>
      </linearGradient>
      <linearGradient id="paint3_linear_1_3" x1="220.784" y1="4.80408" x2="209.111" y2="9.42444" gradientUnits="userSpaceOnUse">
         <stop stop-color="#F50951"/>
         <stop offset="0.427315" stop-color="#FD3A7E"/>
         <stop offset="1" stop-color="#FF9B06"/>
      </linearGradient>
      <linearGradient id="paint4_linear_1_3" x1="666.714" y1="265.367" x2="655.032" y2="270.006" gradientUnits="userSpaceOnUse">
         <stop stop-color="#F50951"/>
         <stop offset="0.427315" stop-color="#FD3A7E"/>
         <stop offset="1" stop-color="#FF9B06"/>
      </linearGradient>
      <linearGradient id="paint5_linear_1_3" x1="321.663" y1="110.853" x2="309.976" y2="115.486" gradientUnits="userSpaceOnUse">
         <stop stop-color="#F50951"/>
         <stop offset="0.427315" stop-color="#FD3A7E"/>
         <stop offset="1" stop-color="#FF9B06"/>
      </linearGradient>
      <linearGradient id="paint6_linear_1_3" x1="9.70184" y1="45.4985" x2="-1.9852" y2="50.1318" gradientUnits="userSpaceOnUse">
         <stop stop-color="#F50951"/>
         <stop offset="0.427315" stop-color="#FD3A7E"/>
         <stop offset="1" stop-color="#FF9B06"/>
      </linearGradient>
      <linearGradient id="paint7_linear_1_3" x1="77.2658" y1="234.969" x2="65.5925" y2="239.589" gradientUnits="userSpaceOnUse">
         <stop stop-color="#F50951"/>
         <stop offset="0.427315" stop-color="#FD3A7E"/>
         <stop offset="1" stop-color="#FF9B06"/>
      </linearGradient>
      <linearGradient id="paint8_linear_1_3" x1="7.93895" y1="288.977" x2="0.712155" y2="291.848" gradientUnits="userSpaceOnUse">
         <stop stop-color="#F50951"/>
         <stop offset="0.427315" stop-color="#FD3A7E"/>
         <stop offset="1" stop-color="#FF9B06"/>
      </linearGradient>
      <linearGradient id="paint9_linear_1_3" x1="228.119" y1="89.915" x2="220.906" y2="92.7736" gradientUnits="userSpaceOnUse">
         <stop stop-color="#F50951"/>
         <stop offset="0.427315" stop-color="#FD3A7E"/>
         <stop offset="1" stop-color="#FF9B06"/>
      </linearGradient>
      <linearGradient id="paint10_linear_1_3" x1="390.78" y1="264.219" x2="383.567" y2="267.078" gradientUnits="userSpaceOnUse">
         <stop stop-color="#F50951"/>
         <stop offset="0.427315" stop-color="#FD3A7E"/>
         <stop offset="1" stop-color="#FF9B06"/>
      </linearGradient>
      <linearGradient id="paint11_linear_1_3" x1="24.9394" y1="62.501" x2="17.721" y2="65.3538" gradientUnits="userSpaceOnUse">
         <stop stop-color="#F50951"/>
         <stop offset="0.427315" stop-color="#FD3A7E"/>
         <stop offset="1" stop-color="#FF9B06"/>
      </linearGradient>
      <linearGradient id="paint12_linear_1_3" x1="575.76" y1="236.805" x2="568.547" y2="239.664" gradientUnits="userSpaceOnUse">
         <stop stop-color="#F50951"/>
         <stop offset="0.427315" stop-color="#FD3A7E"/>
         <stop offset="1" stop-color="#FF9B06"/>
      </linearGradient>
      <linearGradient id="paint13_linear_1_3" x1="88.5756" y1="329.048" x2="81.3626" y2="331.907" gradientUnits="userSpaceOnUse">
         <stop stop-color="#F50951"/>
         <stop offset="0.427315" stop-color="#FD3A7E"/>
         <stop offset="1" stop-color="#FF9B06"/>
      </linearGradient>
      <linearGradient id="paint14_linear_1_3" x1="50.9911" y1="224.394" x2="43.7781" y2="227.252" gradientUnits="userSpaceOnUse">
         <stop stop-color="#F50951"/>
         <stop offset="0.427315" stop-color="#FD3A7E"/>
         <stop offset="1" stop-color="#FF9B06"/>
      </linearGradient>
      <linearGradient id="paint15_linear_1_3" x1="368.717" y1="74.7324" x2="361.504" y2="77.591" gradientUnits="userSpaceOnUse">
         <stop stop-color="#F50951"/>
         <stop offset="0.427315" stop-color="#FD3A7E"/>
         <stop offset="1" stop-color="#FF9B06"/>
      </linearGradient>
      <linearGradient id="paint16_linear_1_3" x1="583.437" y1="329.048" x2="576.224" y2="331.907" gradientUnits="userSpaceOnUse">
         <stop stop-color="#F50951"/>
         <stop offset="0.427315" stop-color="#FD3A7E"/>
         <stop offset="1" stop-color="#FF9B06"/>
      </linearGradient>
      <linearGradient id="paint17_linear_1_3" x1="680.679" y1="141.89" x2="673.46" y2="144.743" gradientUnits="userSpaceOnUse">
         <stop stop-color="#F50951"/>
         <stop offset="0.427315" stop-color="#FD3A7E"/>
         <stop offset="1" stop-color="#FF9B06"/>
      </linearGradient>
      <linearGradient id="paint18_linear_1_3" x1="595.206" y1="138.906" x2="587.988" y2="141.758" gradientUnits="userSpaceOnUse">
         <stop stop-color="#F50951"/>
         <stop offset="0.427315" stop-color="#FD3A7E"/>
         <stop offset="1" stop-color="#FF9B06"/>
      </linearGradient>
      <linearGradient id="paint19_linear_1_3" x1="537.107" y1="118.998" x2="502.393" y2="129.278" gradientUnits="userSpaceOnUse">
         <stop stop-color="#F50951"/>
         <stop offset="0.427315" stop-color="#FD3A7E"/>
         <stop offset="1" stop-color="#FF9B06"/>
      </linearGradient>
      <linearGradient id="paint20_linear_1_3" x1="550.693" y1="103" x2="500.382" y2="133.884" gradientUnits="userSpaceOnUse">
         <stop stop-color="#F50951"/>
         <stop offset="0.427315" stop-color="#FD3A7E"/>
         <stop offset="1" stop-color="#FF9B06"/>
      </linearGradient>
      <linearGradient id="paint21_linear_1_3" x1="288.565" y1="143.07" x2="172.498" y2="177.644" gradientUnits="userSpaceOnUse">
         <stop stop-color="#F50951"/>
         <stop offset="0.427315" stop-color="#FD3A7E"/>
         <stop offset="1" stop-color="#FF9B06"/>
      </linearGradient>
      <linearGradient id="paint22_linear_1_3" x1="282.67" y1="143.008" x2="173.88" y2="174.94" gradientUnits="userSpaceOnUse">
         <stop stop-color="#F50951"/>
         <stop offset="0.427315" stop-color="#FD3A7E"/>
         <stop offset="1" stop-color="#FF9B06"/>
      </linearGradient>
      <linearGradient id="paint23_linear_1_3" x1="388.436" y1="143" x2="279.208" y2="173.282" gradientUnits="userSpaceOnUse">
         <stop stop-color="#F50951"/>
         <stop offset="0.427315" stop-color="#FD3A7E"/>
         <stop offset="1" stop-color="#FF9B06"/>
      </linearGradient>
      <linearGradient id="paint24_linear_1_3" x1="382.591" y1="143.023" x2="280.683" y2="170.731" gradientUnits="userSpaceOnUse">
         <stop stop-color="#F50951"/>
         <stop offset="0.427315" stop-color="#FD3A7E"/>
         <stop offset="1" stop-color="#FF9B06"/>
      </linearGradient>
      <linearGradient id="paint25_linear_1_3" x1="490.918" y1="143.07" x2="374.837" y2="177.64" gradientUnits="userSpaceOnUse">
         <stop stop-color="#F50951"/>
         <stop offset="0.427315" stop-color="#FD3A7E"/>
         <stop offset="1" stop-color="#FF9B06"/>
      </linearGradient>
      <linearGradient id="paint26_linear_1_3" x1="484.981" y1="143.008" x2="376.182" y2="174.945" gradientUnits="userSpaceOnUse">
         <stop stop-color="#F50951"/>
         <stop offset="0.427315" stop-color="#FD3A7E"/>
         <stop offset="1" stop-color="#FF9B06"/>
      </linearGradient>
   </defs>
</svg>
