<svg viewBox="0 0 181 200" fill="none" xmlns="http://www.w3.org/2000/svg">
   <path d="M59.0261 70.3361L35.4716 166.097C34.4791 170.125 34.7767 174.366 36.3217 178.212C37.8668 182.058 40.5797 185.311 44.0712 187.505C53.0561 193.143 67.9105 199.246 90.6257 199.946C114.703 200.687 130.72 193.708 140.192 187.373C143.539 185.132 146.117 181.901 147.573 178.123C149.028 174.345 149.289 170.205 148.32 166.272L124.722 70.3361" fill="#F8FAFC"/>
   <path d="M91.8734 74.7838C123.103 74.7838 148.419 66.1694 148.419 55.543C148.419 44.9165 123.103 36.3021 91.8734 36.3021C60.6439 36.3021 35.3274 44.9165 35.3274 55.543C35.3274 66.1694 60.6439 74.7838 91.8734 74.7838Z" fill="#CBD5E1"/>
   <path d="M91.8735 75.1032C76.7358 75.1032 62.4999 73.0959 51.7883 69.45C40.9692 65.7686 35.0107 60.8294 35.0107 55.5421C35.0107 50.2549 40.9687 45.3157 51.7883 41.6343C62.4999 37.9895 76.7358 35.9811 91.8735 35.9811C107.011 35.9811 121.247 37.9887 131.959 41.6343C142.778 45.3157 148.736 50.2549 148.736 55.5421C148.736 60.8294 142.778 65.7686 131.959 69.45C121.247 73.0959 107.011 75.1032 91.8735 75.1032ZM91.8735 36.6214C76.8027 36.6214 62.6388 38.6169 51.9902 42.2401C41.4491 45.827 35.6437 50.5514 35.6437 55.543C35.6437 60.5346 41.4491 65.259 51.9902 68.8458C62.6388 72.4691 76.803 74.4645 91.8735 74.4645C106.944 74.4645 121.108 72.4691 131.757 68.8458C142.298 65.259 148.103 60.5346 148.103 55.543C148.103 50.5514 142.298 45.827 131.757 42.2401C121.108 38.6169 106.944 36.6214 91.8735 36.6214Z" fill="#CBD5E1"/>
   <path d="M91.8736 67.4541C132.905 67.4541 166.168 58.2208 166.168 46.831C166.168 35.4413 132.905 26.208 91.8736 26.208C50.8422 26.208 17.5796 35.4413 17.5796 46.831C17.5796 58.2208 50.8422 67.4541 91.8736 67.4541Z" fill="url(#paint0_linear_2433_7109)"/>
   <path d="M91.8735 67.7734C72.0011 67.7734 53.3143 65.6241 39.2556 61.7215C25.0733 57.7847 17.2627 52.4966 17.2627 46.8302C17.2627 41.1638 25.0733 35.8766 39.2556 31.939C53.3143 28.0364 72.0011 25.8873 91.8735 25.8873C111.746 25.8873 130.432 28.0364 144.491 31.939C158.673 35.8758 166.484 41.1641 166.484 46.8302C166.484 52.4963 158.673 57.7838 144.491 61.7215C130.432 65.6241 111.746 67.7734 91.8735 67.7734ZM91.8735 26.5274C72.0563 26.5274 53.4291 28.6687 39.4234 32.5564C32.6316 34.4415 27.3048 36.6336 23.5901 39.0713C19.8115 41.5513 17.8957 44.1619 17.8957 46.831C17.8957 49.5002 19.8115 52.1111 23.5901 54.5908C27.3048 57.0285 32.6316 59.2206 39.4234 61.106C53.4291 64.9942 72.0552 67.1347 91.8735 67.1347C111.692 67.1347 130.318 64.9937 144.323 61.106C151.115 59.2206 156.442 57.0285 160.157 54.5908C163.935 52.1111 165.851 49.5002 165.851 46.831C165.851 44.1619 163.935 41.5513 160.157 39.0713C156.442 36.6336 151.115 34.4415 144.323 32.5564C130.318 28.6687 111.69 26.5285 91.8735 26.5285V26.5274Z" fill="#CBD5E1"/>
   <path d="M126.057 34.8113C126.057 43.9283 110.397 46.076 94.0667 46.4662C76.275 46.8912 57.6907 43.7888 57.6907 34.8113C57.7163 25.6803 61.329 16.9321 67.737 10.4847C74.1449 4.03719 82.8251 0.416565 91.8744 0.416565C100.924 0.416565 109.604 4.03719 116.012 10.4847C122.42 16.9321 126.033 25.6803 126.058 34.8113H126.057Z" fill="white"/>
   <path d="M121.62 33.0065C121.538 33.0064 121.459 32.9741 121.4 32.9164C121.341 32.8586 121.307 32.78 121.304 32.697C121.208 29.4244 120.567 26.1914 119.408 23.1333C119.378 23.0542 119.381 22.9663 119.415 22.889C119.449 22.8116 119.512 22.7512 119.591 22.7209C119.669 22.6906 119.756 22.693 119.833 22.7275C119.91 22.762 119.97 22.8258 120 22.9049C121.184 26.0299 121.838 29.3334 121.937 32.6775C121.94 32.7621 121.909 32.8443 121.851 32.9059C121.794 32.9676 121.714 33.0038 121.631 33.0065H121.62Z" fill="#CBD5E1"/>
   <path d="M116.893 17.7802C116.841 17.7803 116.789 17.767 116.742 17.7417C116.696 17.7164 116.657 17.6797 116.628 17.6351C112.452 11.2027 105.952 6.66941 98.5125 5.0007C98.4325 4.98074 98.3633 4.93007 98.3198 4.85948C98.2762 4.7889 98.2617 4.70395 98.2792 4.6227C98.2968 4.54146 98.345 4.47032 98.4138 4.42442C98.4825 4.37853 98.5662 4.36148 98.6472 4.37692C106.249 6.08178 112.891 10.7137 117.158 17.2863C117.189 17.3344 117.207 17.3901 117.209 17.4476C117.212 17.505 117.198 17.5621 117.171 17.6127C117.144 17.6632 117.104 17.7055 117.055 17.735C117.006 17.7645 116.95 17.7801 116.893 17.7802Z" fill="#CBD5E1"/>
   <path d="M90.7522 46.8247C75.6388 46.8247 64.1329 44.2601 59.6249 39.8203C58.1307 38.3483 57.3734 36.6628 57.3734 34.8111C57.3607 30.2313 58.2436 25.6941 59.9717 21.4593C61.6997 17.2245 64.2389 13.3753 67.4438 10.1324C70.6487 6.88949 74.4563 4.31654 78.6484 2.56097C82.8404 0.805405 87.3346 -0.0982666 91.8734 -0.0982666C96.4122 -0.0982666 100.906 0.805405 105.098 2.56097C109.291 4.31654 113.098 6.88949 116.303 10.1324C119.508 13.3753 122.047 17.2245 123.775 21.4593C125.503 25.6941 126.386 30.2313 126.373 34.8111C126.373 39.1116 122.975 42.2765 116.273 44.2179C111.116 45.7117 103.855 46.5514 94.0741 46.785C92.9492 46.8115 91.8419 46.8247 90.7522 46.8247ZM91.8727 0.637829C82.8937 0.648047 74.2853 4.25164 67.9361 10.658C61.5869 17.0644 58.0155 25.7505 58.0053 34.8105C58.0053 36.4838 58.6987 38.0154 60.0662 39.3628C64.7785 44.0064 77.4846 46.5415 94.0583 46.1466C107.66 45.822 125.742 44.2932 125.742 34.8113C125.732 25.7511 122.16 17.0648 115.811 10.6584C109.462 4.25196 100.853 0.64851 91.8735 0.638657L91.8727 0.637829Z" fill="#CBD5E1"/>
   <path d="M36.5559 49.5914C39.0074 49.5914 40.9948 47.5861 40.9948 45.1125C40.9948 42.6388 39.0074 40.6335 36.5559 40.6335C34.1043 40.6335 32.1169 42.6388 32.1169 45.1125C32.1169 47.5861 34.1043 49.5914 36.5559 49.5914Z" fill="white"/>
   <path d="M36.5559 49.9108C35.6154 49.9108 34.696 49.6294 33.914 49.1021C33.132 48.5749 32.5224 47.8255 32.1625 46.9487C31.8026 46.0719 31.7084 45.1072 31.8919 44.1764C32.0754 43.2456 32.5283 42.3906 33.1934 41.7196C33.8584 41.0485 34.7057 40.5915 35.6282 40.4064C36.5507 40.2212 37.5068 40.3163 38.3757 40.6794C39.2447 41.0426 39.9874 41.6576 40.5099 42.4467C41.0324 43.2358 41.3113 44.1635 41.3113 45.1125C41.3099 46.3846 40.8084 47.6042 39.9169 48.5038C39.0254 49.4033 37.8167 49.9093 36.5559 49.9108ZM36.5559 40.9526C35.7405 40.9526 34.9435 41.1965 34.2655 41.6536C33.5875 42.1107 33.0591 42.7604 32.747 43.5206C32.435 44.2807 32.3534 45.1171 32.5124 45.924C32.6715 46.731 33.0642 47.4722 33.6407 48.054C34.2173 48.6357 34.9519 49.0319 35.7516 49.1924C36.5514 49.353 37.3803 49.2706 38.1336 48.9557C38.887 48.6409 39.5308 48.1077 39.9838 47.4236C40.4369 46.7395 40.6786 45.9352 40.6786 45.1125C40.6776 44.0095 40.2429 42.9521 39.4699 42.1722C38.697 41.3923 37.649 40.9537 36.5559 40.9526Z" fill="#CBD5E1"/>
   <path d="M91.8737 62.4186C94.3253 62.4186 96.3126 60.4133 96.3126 57.9397C96.3126 55.466 94.3253 53.4607 91.8737 53.4607C89.4222 53.4607 87.4348 55.466 87.4348 57.9397C87.4348 60.4133 89.4222 62.4186 91.8737 62.4186Z" fill="white"/>
   <path d="M91.8736 62.7379C90.933 62.7379 90.0136 62.4565 89.2316 61.9293C88.4496 61.402 87.8401 60.6527 87.4801 59.7759C87.1202 58.8991 87.0261 57.9343 87.2095 57.0036C87.393 56.0728 87.8459 55.2178 88.511 54.5467C89.176 53.8757 90.0234 53.4187 90.9458 53.2336C91.8683 53.0484 92.8244 53.1434 93.6934 53.5066C94.5623 53.8698 95.305 54.4848 95.8275 55.2739C96.3501 56.0629 96.629 56.9906 96.629 57.9397C96.6275 59.2118 96.126 60.4314 95.2345 61.3309C94.343 62.2305 93.1343 62.7365 91.8736 62.7379ZM91.8736 53.78C91.0582 53.78 90.2612 54.024 89.5833 54.4811C88.9053 54.9381 88.3769 55.5878 88.0649 56.3478C87.7529 57.1079 87.6713 57.9443 87.8303 58.7512C87.9894 59.558 88.382 60.2992 88.9586 60.881C89.5351 61.4627 90.2696 61.8588 91.0693 62.0194C91.869 62.1798 92.6979 62.0975 93.4512 61.7826C94.2044 61.4678 94.8483 60.9347 95.3012 60.2506C95.7542 59.5666 95.996 58.7624 95.996 57.9397C95.9948 56.8368 95.5601 55.7795 94.7873 54.9996C94.0144 54.2198 92.9665 53.7812 91.8736 53.78Z" fill="#CBD5E1"/>
   <path d="M147.181 49.5914C149.633 49.5914 151.62 47.5861 151.62 45.1125C151.62 42.6388 149.633 40.6335 147.181 40.6335C144.73 40.6335 142.742 42.6388 142.742 45.1125C142.742 47.5861 144.73 49.5914 147.181 49.5914Z" fill="white"/>
   <path d="M147.181 49.9108C146.241 49.9108 145.321 49.6294 144.539 49.1021C143.757 48.5749 143.148 47.8255 142.788 46.9487C142.428 46.0719 142.334 45.1072 142.517 44.1764C142.701 43.2456 143.154 42.3906 143.819 41.7196C144.484 41.0485 145.331 40.5915 146.253 40.4064C147.176 40.2212 148.132 40.3163 149.001 40.6794C149.87 41.0426 150.613 41.6576 151.135 42.4467C151.658 43.2358 151.937 44.1635 151.937 45.1125C151.935 46.3846 151.434 47.6042 150.542 48.5038C149.651 49.4033 148.442 49.9093 147.181 49.9108ZM147.181 40.9526C146.366 40.9526 145.569 41.1965 144.891 41.6536C144.213 42.1107 143.684 42.7604 143.372 43.5206C143.06 44.2807 142.979 45.1171 143.138 45.924C143.297 46.731 143.689 47.4722 144.266 48.054C144.843 48.6357 145.577 49.0319 146.377 49.1924C147.177 49.353 148.006 49.2706 148.759 48.9557C149.512 48.6409 150.156 48.1077 150.609 47.4236C151.062 46.7395 151.304 45.9352 151.304 45.1125C151.303 44.0095 150.868 42.9521 150.095 42.1722C149.322 41.3923 148.274 40.9537 147.181 40.9526Z" fill="#CBD5E1"/>
   <path d="M123.591 57.9396C126.043 57.9396 128.03 55.9343 128.03 53.4607C128.03 50.987 126.043 48.9817 123.591 48.9817C121.14 48.9817 119.152 50.987 119.152 53.4607C119.152 55.9343 121.14 57.9396 123.591 57.9396Z" fill="white"/>
   <path d="M123.591 58.259C122.651 58.259 121.731 57.9776 120.949 57.4503C120.167 56.9231 119.558 56.1737 119.198 55.2969C118.838 54.4201 118.744 53.4554 118.927 52.5246C119.111 51.5938 119.563 50.7388 120.229 50.0678C120.894 49.3967 121.741 48.9397 122.663 48.7546C123.586 48.5694 124.542 48.6645 125.411 49.0276C126.28 49.3908 127.023 50.0058 127.545 50.7949C128.068 51.584 128.346 52.5117 128.346 53.4607C128.345 54.7328 127.844 55.9524 126.952 56.852C126.061 57.7515 124.852 58.2575 123.591 58.259ZM123.591 49.3008C122.776 49.3007 121.979 49.5447 121.301 50.0017C120.623 50.4588 120.094 51.1084 119.782 51.8686C119.47 52.6287 119.388 53.4651 119.547 54.2721C119.706 55.079 120.099 55.8203 120.676 56.4021C121.252 56.9839 121.987 57.3801 122.786 57.5406C123.586 57.7012 124.415 57.6188 125.168 57.3039C125.922 56.9891 126.566 56.4559 127.019 55.7718C127.472 55.0877 127.714 54.2834 127.714 53.4607C127.712 52.3578 127.278 51.3004 126.505 50.5205C125.732 49.7406 124.684 49.3019 123.591 49.3008Z" fill="#CBD5E1"/>
   <path d="M60.1557 58.5493C62.6073 58.5493 64.5946 56.544 64.5946 54.0704C64.5946 51.5967 62.6073 49.5914 60.1557 49.5914C57.7042 49.5914 55.7168 51.5967 55.7168 54.0704C55.7168 56.544 57.7042 58.5493 60.1557 58.5493Z" fill="white"/>
   <path d="M60.1558 58.869C59.2153 58.869 58.2959 58.5875 57.5138 58.0603C56.7318 57.5331 56.1223 56.7837 55.7624 55.9069C55.4025 55.0301 55.3083 54.0653 55.4918 53.1346C55.6753 52.2038 56.1282 51.3488 56.7932 50.6778C57.4583 50.0067 58.3056 49.5497 59.2281 49.3646C60.1505 49.1794 61.1067 49.2745 61.9756 49.6376C62.8445 50.0008 63.5872 50.6158 64.1097 51.4049C64.6323 52.1939 64.9112 53.1217 64.9112 54.0707C64.9097 55.3428 64.4083 56.5624 63.5168 57.462C62.6253 58.3615 61.4166 58.8675 60.1558 58.869ZM60.1558 49.9108C59.3403 49.9105 58.5431 50.1542 57.8649 50.6112C57.1868 51.0681 56.6581 51.7177 56.3459 52.4778C56.0337 53.238 55.9518 54.0744 56.1108 54.8815C56.2697 55.6885 56.6623 56.4299 57.2388 57.0118C57.8154 57.5937 58.55 57.99 59.3498 58.1506C60.1496 58.3112 60.9786 58.2288 61.732 57.914C62.4854 57.5991 63.1293 57.0659 63.5824 56.3817C64.0354 55.6976 64.2772 54.8932 64.2771 54.0704C64.276 52.9677 63.8414 51.9106 63.0688 51.1308C62.2962 50.351 61.2486 49.9122 60.1558 49.9108Z" fill="#CBD5E1"/>
   <path d="M138.942 30.8745C138.611 31.8855 137.935 32.7446 137.033 33.2978C136.131 33.8509 135.064 34.062 134.022 33.8931C132.98 33.7243 132.032 33.1866 131.348 32.3764C130.663 31.5661 130.287 30.5364 130.287 29.4717C130.287 29.3716 130.291 29.2737 130.297 29.1758C133.329 29.6868 136.217 30.2529 138.942 30.8745Z" fill="white"/>
   <path d="M134.725 34.2695C133.465 34.2682 132.256 33.7623 131.364 32.8627C130.473 31.9631 129.971 30.7434 129.97 29.4712C129.97 29.3642 129.974 29.2591 129.981 29.1543L130.004 28.8022L130.349 28.8603C133.397 29.3741 136.312 29.9469 139.013 30.5624L139.353 30.6401L139.243 30.9741C138.931 31.9338 138.325 32.7693 137.514 33.3611C136.703 33.953 135.727 34.2709 134.725 34.2695ZM130.604 29.5514C130.622 30.5029 130.963 31.4193 131.57 32.1478C132.177 32.8763 133.013 33.3728 133.939 33.5546C134.865 33.7364 135.824 33.5924 136.658 33.1467C137.491 32.701 138.148 31.9805 138.518 31.1053C136.037 30.5469 133.378 30.0249 130.604 29.5514Z" fill="#CBD5E1"/>
   <path d="M52.9828 29.4717C52.9826 30.5274 52.6128 31.549 51.9388 32.3565C51.2648 33.1639 50.3299 33.7052 49.2989 33.8849C48.2679 34.0646 47.2072 33.8712 46.3038 33.3387C45.4004 32.8063 44.7124 31.969 44.3611 30.9746C47.076 30.3486 49.9536 29.7739 52.9765 29.2566C52.9806 29.3269 52.9828 29.3992 52.9828 29.4717Z" fill="white"/>
   <path d="M48.5444 34.2694C47.5631 34.268 46.6061 33.9612 45.8039 33.3907C45.0018 32.8202 44.3936 32.014 44.0623 31.0819L43.9426 30.7432L44.29 30.6633C47.0183 30.0343 49.9229 29.4551 52.9229 28.942L53.2706 28.8824L53.2919 29.2373C53.2965 29.314 53.2987 29.3928 53.2987 29.4717C53.2973 30.7436 52.7959 31.963 51.9047 32.8624C51.0134 33.7618 49.805 34.2678 48.5444 34.2694ZM44.7945 31.2027C45.1804 32.0532 45.8391 32.7477 46.6643 33.174C47.4895 33.6003 48.433 33.7336 49.3425 33.5524C50.252 33.3711 51.0744 32.8859 51.677 32.175C52.2795 31.4641 52.6271 30.5691 52.6636 29.6344C49.9372 30.1071 47.2938 30.6338 44.7945 31.2027Z" fill="#CBD5E1"/>
   <path d="M96.5978 119.011C97.9956 120.031 99.2091 121.228 100.24 122.602L100.374 122.694C100.435 122.799 100.471 122.894 100.488 122.968C100.879 123.472 101.23 123.979 101.515 124.54L102.116 125.516C102.333 125.931 102.513 126.55 102.646 126.844C102.782 127.134 102.938 127.443 103.037 127.74C106.852 127.528 110.612 128.571 113.746 130.749C115.175 131.728 116.466 132.908 117.515 134.295C124.04 142.753 120.855 154.046 112.921 160.392C108.726 163.538 103.866 165.703 98.7456 166.686C91.5097 167.954 84.1693 168.451 76.8139 168.173L76.0165 168.13L75.6739 167.36C72.6617 160.574 70.3747 153.486 68.8367 146.179C67.8656 141.026 68.0413 135.687 69.3599 130.572C72.2174 120.752 81.428 113.583 91.7482 116.586C92.5582 116.808 93.3426 117.112 94.0819 117.488L94.3537 117.675C95.053 118.017 95.7143 118.406 96.3486 118.84L96.5978 119.011ZM111.945 140.03C111.232 139.072 109.875 138.878 108.892 139.603C107.932 140.343 107.727 141.733 108.45 142.724C109.535 144.265 109.541 146.368 108.472 147.961L108.424 148.032C108.031 148.524 107.849 149.135 107.906 149.739C107.963 150.344 108.287 150.895 108.753 151.284C109.699 151.895 110.995 151.688 111.707 150.775L111.889 150.504C114.101 147.357 114.12 143.148 111.945 140.03Z" fill="url(#paint1_linear_2433_7109)"/>
   <path d="M4.0744 70.6554C4.03285 70.6554 3.99171 70.6471 3.95333 70.6311C3.91495 70.615 3.88008 70.5915 3.85071 70.5619C3.82135 70.5322 3.79806 70.497 3.78218 70.4583C3.76631 70.4195 3.75816 70.378 3.75819 70.3361V61.3271C3.75695 61.2844 3.76421 61.2419 3.77955 61.2021C3.79489 61.1623 3.81799 61.1259 3.84749 61.0953C3.87699 61.0646 3.91228 61.0403 3.95128 61.0236C3.99028 61.007 4.03219 60.9984 4.07454 60.9984C4.11688 60.9984 4.15879 61.007 4.19779 61.0236C4.23679 61.0403 4.27209 61.0646 4.30159 61.0953C4.33108 61.1259 4.35419 61.1623 4.36952 61.2021C4.38486 61.2419 4.39212 61.2844 4.39088 61.3271V70.3361C4.39092 70.378 4.38275 70.4196 4.36686 70.4583C4.35097 70.4971 4.32766 70.5323 4.29826 70.562C4.26887 70.5916 4.23397 70.6151 4.19555 70.6312C4.15714 70.6472 4.11597 70.6554 4.0744 70.6554Z" fill="url(#paint2_linear_2433_7109)"/>
   <path d="M6.98766 66.1511H1.16121C1.07727 66.1511 0.996773 66.1174 0.937421 66.0575C0.87807 65.9976 0.844727 65.9164 0.844727 65.8317C0.844727 65.747 0.87807 65.6658 0.937421 65.6059C0.996773 65.546 1.07727 65.5124 1.16121 65.5124H6.98766C7.07159 65.5124 7.15209 65.546 7.21144 65.6059C7.27079 65.6658 7.30414 65.747 7.30414 65.8317C7.30414 65.9164 7.27079 65.9976 7.21144 66.0575C7.15209 66.1174 7.07159 66.1511 6.98766 66.1511Z" fill="url(#paint3_linear_2433_7109)"/>
   <path d="M68.0261 104.796C67.9845 104.796 67.9434 104.787 67.905 104.771C67.8666 104.755 67.8317 104.732 67.8024 104.702C67.773 104.672 67.7497 104.637 67.7338 104.598C67.718 104.56 67.7098 104.518 67.7099 104.476V95.4673C67.7086 95.4246 67.7159 95.382 67.7312 95.3422C67.7465 95.3024 67.7696 95.2661 67.7991 95.2354C67.8286 95.2048 67.8639 95.1804 67.9029 95.1638C67.9419 95.1471 67.9839 95.1385 68.0262 95.1385C68.0685 95.1385 68.1105 95.1471 68.1495 95.1638C68.1885 95.1804 68.2237 95.2048 68.2532 95.2354C68.2827 95.2661 68.3058 95.3024 68.3212 95.3422C68.3365 95.382 68.3438 95.4246 68.3425 95.4673V104.476C68.3426 104.518 68.3344 104.56 68.3185 104.598C68.3026 104.637 68.2793 104.672 68.2499 104.702C68.2205 104.732 68.1856 104.755 68.1472 104.771C68.1088 104.787 68.0676 104.796 68.0261 104.796Z" fill="url(#paint4_linear_2433_7109)"/>
   <path d="M70.9393 100.291H65.1129C65.0289 100.291 64.9484 100.258 64.8891 100.198C64.8297 100.138 64.7964 100.057 64.7964 99.9719C64.7964 99.8872 64.8297 99.8059 64.8891 99.7461C64.9484 99.6862 65.0289 99.6525 65.1129 99.6525H70.9393C71.0233 99.6525 71.1038 99.6862 71.1631 99.7461C71.2225 99.8059 71.2558 99.8872 71.2558 99.9719C71.2558 100.057 71.2225 100.138 71.1631 100.198C71.1038 100.258 71.0233 100.291 70.9393 100.291Z" fill="url(#paint5_linear_2433_7109)"/>
   <path d="M20.4721 193.316C20.4306 193.316 20.3894 193.307 20.351 193.291C20.3127 193.275 20.2778 193.252 20.2484 193.222C20.2191 193.193 20.1958 193.157 20.1799 193.119C20.164 193.08 20.1559 193.038 20.1559 192.996V183.987C20.1547 183.945 20.1619 183.902 20.1773 183.862C20.1926 183.823 20.2157 183.786 20.2452 183.756C20.2747 183.725 20.31 183.701 20.349 183.684C20.388 183.667 20.4299 183.659 20.4722 183.659C20.5146 183.659 20.5565 183.667 20.5955 183.684C20.6345 183.701 20.6698 183.725 20.6993 183.756C20.7288 183.786 20.7519 183.823 20.7672 183.862C20.7826 183.902 20.7898 183.945 20.7886 183.987V192.996C20.7886 193.038 20.7805 193.08 20.7646 193.119C20.7487 193.157 20.7254 193.193 20.696 193.222C20.6666 193.252 20.6317 193.275 20.5933 193.292C20.5548 193.308 20.5137 193.316 20.4721 193.316Z" fill="url(#paint6_linear_2433_7109)"/>
   <path d="M23.3854 188.811H17.5589C17.475 188.811 17.3945 188.778 17.3351 188.718C17.2758 188.658 17.2424 188.577 17.2424 188.492C17.2424 188.407 17.2758 188.326 17.3351 188.266C17.3945 188.206 17.475 188.173 17.5589 188.173H23.3854C23.4693 188.173 23.5498 188.206 23.6091 188.266C23.6685 188.326 23.7018 188.407 23.7018 188.492C23.7018 188.577 23.6685 188.658 23.6091 188.718C23.5498 188.778 23.4693 188.811 23.3854 188.811Z" fill="url(#paint7_linear_2433_7109)"/>
   <path d="M156.051 120.831C155.967 120.831 155.887 120.798 155.827 120.738C155.768 120.678 155.735 120.597 155.735 120.512V106.808C155.735 106.724 155.768 106.642 155.827 106.583C155.887 106.523 155.967 106.489 156.051 106.489C156.135 106.489 156.216 106.523 156.275 106.583C156.334 106.642 156.368 106.724 156.368 106.808V120.512C156.368 120.597 156.334 120.678 156.275 120.738C156.215 120.798 156.135 120.831 156.051 120.831Z" fill="url(#paint8_linear_2433_7109)"/>
   <path d="M160.483 113.98H151.62C151.536 113.98 151.456 113.946 151.396 113.886C151.337 113.826 151.304 113.745 151.304 113.66C151.304 113.576 151.337 113.494 151.396 113.434C151.456 113.375 151.536 113.341 151.62 113.341H160.483C160.567 113.341 160.648 113.375 160.707 113.434C160.766 113.494 160.8 113.576 160.8 113.66C160.8 113.745 160.766 113.826 160.707 113.886C160.648 113.946 160.567 113.98 160.483 113.98Z" fill="url(#paint9_linear_2433_7109)"/>
   <path d="M45.7667 160.773C45.6827 160.773 45.6022 160.739 45.5429 160.68C45.4835 160.62 45.4502 160.538 45.4502 160.454V146.75C45.4502 146.665 45.4835 146.584 45.5429 146.524C45.6022 146.464 45.6827 146.431 45.7667 146.431C45.8506 146.431 45.9311 146.464 45.9905 146.524C46.0498 146.584 46.0831 146.665 46.0831 146.75V160.454C46.0831 160.538 46.0497 160.62 45.9904 160.68C45.9311 160.739 45.8506 160.773 45.7667 160.773Z" fill="url(#paint10_linear_2433_7109)"/>
   <path d="M50.1991 153.921H41.336C41.2521 153.921 41.1716 153.888 41.1122 153.828C41.0529 153.768 41.0195 153.687 41.0195 153.602C41.0195 153.517 41.0529 153.436 41.1122 153.376C41.1716 153.316 41.2521 153.283 41.336 153.283H50.1991C50.283 153.283 50.3635 153.316 50.4229 153.376C50.4822 153.436 50.5156 153.517 50.5156 153.602C50.5156 153.687 50.4822 153.768 50.4229 153.828C50.3635 153.888 50.283 153.921 50.1991 153.921Z" fill="url(#paint11_linear_2433_7109)"/>
   <path d="M137.868 183.662C137.784 183.662 137.704 183.628 137.644 183.568C137.585 183.508 137.552 183.427 137.552 183.342V169.638C137.552 169.554 137.585 169.472 137.644 169.413C137.704 169.353 137.784 169.319 137.868 169.319C137.952 169.319 138.033 169.353 138.092 169.413C138.151 169.472 138.185 169.554 138.185 169.638V183.342C138.185 183.427 138.151 183.508 138.092 183.568C138.033 183.628 137.952 183.661 137.868 183.662Z" fill="url(#paint12_linear_2433_7109)"/>
   <path d="M142.301 176.81H133.438C133.354 176.81 133.273 176.776 133.214 176.716C133.154 176.656 133.121 176.575 133.121 176.49C133.121 176.406 133.154 176.324 133.214 176.264C133.273 176.205 133.354 176.171 133.438 176.171H142.301C142.385 176.171 142.465 176.205 142.524 176.264C142.584 176.324 142.617 176.406 142.617 176.49C142.617 176.575 142.584 176.656 142.524 176.716C142.465 176.776 142.385 176.81 142.301 176.81Z" fill="url(#paint13_linear_2433_7109)"/>
   <path d="M177.623 77.5073C177.581 77.5073 177.54 77.4991 177.502 77.4831C177.463 77.467 177.428 77.4435 177.399 77.4139C177.37 77.3842 177.346 77.349 177.33 77.3102C177.315 77.2715 177.306 77.2299 177.306 77.188V70.3361C177.306 70.2514 177.34 70.1701 177.399 70.1103C177.458 70.0504 177.539 70.0167 177.623 70.0167C177.707 70.0167 177.787 70.0504 177.847 70.1103C177.906 70.1701 177.939 70.2514 177.939 70.3361V77.188C177.939 77.2299 177.931 77.2715 177.915 77.3102C177.899 77.349 177.876 77.3842 177.847 77.4139C177.817 77.4435 177.782 77.467 177.744 77.4831C177.706 77.4991 177.664 77.5073 177.623 77.5073Z" fill="url(#paint14_linear_2433_7109)"/>
   <path d="M179.839 74.0815H175.407C175.366 74.0815 175.325 74.0732 175.286 74.0572C175.248 74.0411 175.213 74.0176 175.184 73.9879C175.154 73.9583 175.131 73.9231 175.115 73.8843C175.099 73.8456 175.091 73.8041 175.091 73.7621C175.091 73.7202 175.099 73.6787 175.115 73.6399C175.131 73.6012 175.154 73.566 175.184 73.5363C175.213 73.5067 175.248 73.4832 175.286 73.4671C175.325 73.4511 175.366 73.4428 175.407 73.4428H179.839C179.923 73.4428 180.003 73.4765 180.063 73.5363C180.122 73.5962 180.155 73.6774 180.155 73.7621C180.155 73.8468 180.122 73.9281 180.063 73.9879C180.003 74.0478 179.923 74.0815 179.839 74.0815Z" fill="url(#paint15_linear_2433_7109)"/>
   <defs>
      <linearGradient id="paint0_linear_2433_7109" x1="159.62" y1="26.208" x2="89.9165" y2="120.773" gradientUnits="userSpaceOnUse">
         <stop stop-color="#F50951"/>
         <stop offset="0.427315" stop-color="#FD3A7E"/>
         <stop offset="1" stop-color="#FF9B06"/>
      </linearGradient>
      <linearGradient id="paint1_linear_2433_7109" x1="125.682" y1="138.919" x2="59.4425" y2="124.446" gradientUnits="userSpaceOnUse">
         <stop stop-color="#F50951"/>
         <stop offset="0.427315" stop-color="#FD3A7E"/>
         <stop offset="1" stop-color="#FF9B06"/>
      </linearGradient>
      <linearGradient id="paint2_linear_2433_7109" x1="4.36313" y1="60.9984" x2="3.5202" y2="61.0192" gradientUnits="userSpaceOnUse">
         <stop stop-color="#F50951"/>
         <stop offset="0.427315" stop-color="#FD3A7E"/>
         <stop offset="1" stop-color="#FF9B06"/>
      </linearGradient>
      <linearGradient id="paint3_linear_2433_7109" x1="7.01952" y1="65.5124" x2="6.46445" y2="67.6265" gradientUnits="userSpaceOnUse">
         <stop stop-color="#F50951"/>
         <stop offset="0.427315" stop-color="#FD3A7E"/>
         <stop offset="1" stop-color="#FF9B06"/>
      </linearGradient>
      <linearGradient id="paint4_linear_2433_7109" x1="68.3148" y1="95.1385" x2="67.4719" y2="95.1594" gradientUnits="userSpaceOnUse">
         <stop stop-color="#F50951"/>
         <stop offset="0.427315" stop-color="#FD3A7E"/>
         <stop offset="1" stop-color="#FF9B06"/>
      </linearGradient>
      <linearGradient id="paint5_linear_2433_7109" x1="70.9712" y1="99.6525" x2="70.4161" y2="101.767" gradientUnits="userSpaceOnUse">
         <stop stop-color="#F50951"/>
         <stop offset="0.427315" stop-color="#FD3A7E"/>
         <stop offset="1" stop-color="#FF9B06"/>
      </linearGradient>
      <linearGradient id="paint6_linear_2433_7109" x1="20.7608" y1="183.659" x2="19.9179" y2="183.68" gradientUnits="userSpaceOnUse">
         <stop stop-color="#F50951"/>
         <stop offset="0.427315" stop-color="#FD3A7E"/>
         <stop offset="1" stop-color="#FF9B06"/>
      </linearGradient>
      <linearGradient id="paint7_linear_2433_7109" x1="23.4172" y1="188.173" x2="22.8622" y2="190.287" gradientUnits="userSpaceOnUse">
         <stop stop-color="#F50951"/>
         <stop offset="0.427315" stop-color="#FD3A7E"/>
         <stop offset="1" stop-color="#FF9B06"/>
      </linearGradient>
      <linearGradient id="paint8_linear_2433_7109" x1="156.34" y1="106.489" x2="155.496" y2="106.503" gradientUnits="userSpaceOnUse">
         <stop stop-color="#F50951"/>
         <stop offset="0.427315" stop-color="#FD3A7E"/>
         <stop offset="1" stop-color="#FF9B06"/>
      </linearGradient>
      <linearGradient id="paint9_linear_2433_7109" x1="160.381" y1="113.341" x2="159.99" y2="115.531" gradientUnits="userSpaceOnUse">
         <stop stop-color="#F50951"/>
         <stop offset="0.427315" stop-color="#FD3A7E"/>
         <stop offset="1" stop-color="#FF9B06"/>
      </linearGradient>
      <linearGradient id="paint10_linear_2433_7109" x1="46.0553" y1="146.431" x2="45.2121" y2="146.445" gradientUnits="userSpaceOnUse">
         <stop stop-color="#F50951"/>
         <stop offset="0.427315" stop-color="#FD3A7E"/>
         <stop offset="1" stop-color="#FF9B06"/>
      </linearGradient>
      <linearGradient id="paint11_linear_2433_7109" x1="50.0971" y1="153.283" x2="49.706" y2="155.473" gradientUnits="userSpaceOnUse">
         <stop stop-color="#F50951"/>
         <stop offset="0.427315" stop-color="#FD3A7E"/>
         <stop offset="1" stop-color="#FF9B06"/>
      </linearGradient>
      <linearGradient id="paint12_linear_2433_7109" x1="138.157" y1="169.319" x2="137.314" y2="169.333" gradientUnits="userSpaceOnUse">
         <stop stop-color="#F50951"/>
         <stop offset="0.427315" stop-color="#FD3A7E"/>
         <stop offset="1" stop-color="#FF9B06"/>
      </linearGradient>
      <linearGradient id="paint13_linear_2433_7109" x1="142.199" y1="176.171" x2="141.808" y2="178.361" gradientUnits="userSpaceOnUse">
         <stop stop-color="#F50951"/>
         <stop offset="0.427315" stop-color="#FD3A7E"/>
         <stop offset="1" stop-color="#FF9B06"/>
      </linearGradient>
      <linearGradient id="paint14_linear_2433_7109" x1="177.911" y1="70.0167" x2="177.069" y2="70.0435" gradientUnits="userSpaceOnUse">
         <stop stop-color="#F50951"/>
         <stop offset="0.427315" stop-color="#FD3A7E"/>
         <stop offset="1" stop-color="#FF9B06"/>
      </linearGradient>
      <linearGradient id="paint15_linear_2433_7109" x1="179.932" y1="73.4428" x2="179.252" y2="75.4748" gradientUnits="userSpaceOnUse">
         <stop stop-color="#F50951"/>
         <stop offset="0.427315" stop-color="#FD3A7E"/>
         <stop offset="1" stop-color="#FF9B06"/>
      </linearGradient>
   </defs>
</svg>
