<svg width="48" height="48" viewBox="0 0 48 48" fill="none" xmlns="http://www.w3.org/2000/svg">
   <path fill-rule="evenodd" clip-rule="evenodd"
         d="M22.8894 0.00828123C22.8311 0.0126434 22.6029 0.0275221 22.3824 0.0413633C18.0757 0.311585 13.863 1.79231 10.2604 4.30214C9.99042 4.49023 9.80963 4.6219 9.5562 4.81497C9.40234 4.93216 9.24846 5.04874 9.21424 5.07401C9.15056 5.12103 8.70403 5.48244 8.59779 5.57296C7.46172 6.54078 6.60179 7.39228 5.7429 8.39993C5.25378 8.97374 5.18859 9.05561 4.73697 9.66318C4.57863 9.8762 4.42885 10.077 4.40413 10.1094C4.3435 10.189 3.85327 10.9211 3.69361 11.1705C3.06485 12.1529 2.40441 13.4035 1.94416 14.4835C1.86678 14.665 1.78907 14.8463 1.77145 14.8863C1.73443 14.9704 1.44744 15.7223 1.32674 16.0515C1.24328 16.2791 1.07048 16.8195 0.964824 17.1833C0.932822 17.2935 0.890678 17.4356 0.871198 17.4989C0.795329 17.7454 0.576992 18.6429 0.486526 19.08C0.334129 19.8164 0.165554 20.8964 0.118292 21.4394C0.10926 21.5432 0.098529 21.6464 0.0944255 21.6689C0.0903219 21.6914 0.0754407 21.8612 0.0613141 22.0462C0.0471876 22.2312 0.0299952 22.4357 0.0231088 22.5005C-0.00830457 22.7957 -0.00745556 24.9653 0.0242172 25.4244C0.113646 26.7197 0.233309 27.6398 0.459688 28.7729C1.20335 32.4951 2.86248 36.0279 5.28312 39.0436C6.16597 40.1434 7.28062 41.292 8.38742 42.2423C8.76556 42.567 9.55512 43.1914 9.8417 43.3925C9.89677 43.4311 9.98167 43.4922 10.0304 43.5282C10.8657 44.1461 12.137 44.9136 13.2421 45.4672C16.2552 46.9763 19.396 47.7996 22.8305 47.9805C23.7399 48.0284 25.6054 47.9835 26.3444 47.8959C26.3963 47.8898 26.5926 47.868 26.7807 47.8476C28.1913 47.6944 29.7916 47.3532 31.2144 46.9023C31.654 46.763 32.1496 46.5942 32.3818 46.5046C32.8175 46.3365 33.3349 46.1286 33.4622 46.0704C33.5425 46.0336 33.6878 45.9705 33.785 45.9299C34.0218 45.8313 35.1241 45.2865 35.4611 45.1016C37.3563 44.0615 39.0645 42.8138 40.576 41.3655C41.0809 40.8817 41.7589 40.1717 42.1423 39.7252C42.2703 39.5761 42.3987 39.4269 42.4276 39.3937C42.5318 39.2735 43.1169 38.5303 43.2524 38.3459C43.3287 38.2422 43.4308 38.1043 43.4794 38.0394C43.6335 37.8338 44.0409 37.2308 44.3398 36.7661C44.6701 36.2526 45.1324 35.4299 45.4725 34.7501C46.9812 31.735 47.8174 28.5437 47.9841 25.165C48.01 24.6388 48.0027 22.7712 47.9738 22.5594C47.9676 22.5141 47.9558 22.3655 47.9474 22.2293C47.8942 21.3628 47.7105 20.0392 47.5119 19.0916C46.8355 15.8631 45.5583 12.9255 43.6324 10.1684C43.4849 9.95722 42.8583 9.12224 42.8007 9.06016C42.7766 9.03422 42.7414 8.99079 42.7224 8.96365C42.6676 8.88541 42.2721 8.41507 41.9812 8.08217C41.1275 7.10527 39.9649 6.01092 38.8083 5.09561C38.2603 4.66187 37.1645 3.89362 36.6961 3.6147C36.6321 3.5766 36.4364 3.45891 36.2613 3.35323C36.0862 3.24752 35.8927 3.13311 35.8312 3.09897C35.7698 3.06483 35.6372 2.99034 35.5365 2.93344C35.0549 2.66138 34.0154 2.15532 33.4245 1.9053C30.9562 0.861035 28.5209 0.268481 25.802 0.0506065C25.3697 0.0159682 23.2074 -0.0154634 22.8894 0.00828123ZM23.1489 12.2316C21.0259 12.3417 18.99 13.0758 17.2765 14.3492C16.191 15.1559 15.2257 16.2095 14.5208 17.3572C13.7454 18.6196 13.2353 20.0375 13.031 21.4984C12.913 22.3421 12.9009 23.3458 12.9978 24.2572C13.086 25.0874 13.3909 26.2763 13.7143 27.0513C13.7684 27.181 13.83 27.3296 13.8512 27.3815C14.0309 27.8221 14.486 28.6224 14.8761 29.1837C15.2546 29.7283 15.5438 30.0714 16.0613 30.5897C16.3973 30.9262 16.5154 31.0378 16.7717 31.261C16.8795 31.355 17.4409 31.7837 17.5713 31.8718C18.1413 32.2566 18.5796 32.5078 19.1279 32.764C20.2189 33.2736 21.317 33.5815 22.5593 33.7261C22.9913 33.7763 24.0636 33.7965 24.4813 33.7622C26.5235 33.5945 28.3009 32.9597 29.9291 31.8164C30.1707 31.6468 30.671 31.2539 30.8607 31.085C31.0012 30.9598 31.674 30.2867 31.7932 30.1521C32.6593 29.1732 33.3796 27.971 33.8273 26.7566C34.2873 25.5089 34.4936 24.3338 34.4933 22.9623C34.4927 20.3793 33.5695 17.9113 31.8685 15.9454C30.9092 14.8367 29.6859 13.9002 28.3803 13.275C27.4186 12.8145 26.2739 12.4697 25.1922 12.3148C24.6718 12.2403 23.7246 12.2017 23.1489 12.2316ZM17.0053 35.7323C14.8311 35.8248 12.946 36.4283 11.2038 37.5897C10.8904 37.7987 10.564 38.0329 10.4255 38.1483C9.8243 38.6493 9.7049 38.7576 9.23393 39.2291C8.81282 39.6507 8.30748 40.2274 7.97964 40.6603C7.96601 40.6784 8.00469 40.7302 8.09404 40.8136C8.16831 40.883 8.24778 40.9577 8.27066 40.9797C8.29356 41.0017 8.47468 41.1611 8.67319 41.3338C10.2109 42.6721 11.8211 43.7542 13.5917 44.6391C13.9013 44.7938 14.1094 44.8907 14.8121 45.207C15.0539 45.3159 15.8511 45.6246 16.2678 45.7707C18.215 46.4536 20.0866 46.8453 22.2645 47.0261C22.8736 47.0766 24.8035 47.0886 25.4365 47.0457C27.691 46.8931 29.7426 46.4744 31.7995 45.747C33.548 45.1287 35.3591 44.2228 36.8745 43.2087C37.3684 42.8782 37.8645 42.5243 38.1339 42.3104C38.1871 42.2682 38.3579 42.1337 38.5136 42.0116C38.6692 41.8895 38.8019 41.7835 38.8083 41.7762C38.8148 41.7688 38.9263 41.6745 39.056 41.5665C39.3614 41.3122 40.0039 40.7351 40.0189 40.7014C40.0357 40.6639 39.7257 40.2758 39.2581 39.7489C39.0074 39.4664 38.4375 38.8967 38.1602 38.6513C38.0436 38.5482 37.9362 38.4527 37.9214 38.439C37.6061 38.1476 36.665 37.4813 36.1654 37.1958C34.7501 36.3868 33.1834 35.8961 31.6271 35.7743C31.5234 35.7662 31.4119 35.753 31.3795 35.7451C31.3218 35.7309 17.3305 35.7185 17.0053 35.7323Z"
         fill="#E2E8F0"/>
</svg>
