<svg xmlns="http://www.w3.org/2000/svg">
    <defs>
        <svg id="location" viewBox="0 0 24 24" fill="none" xmlns="http://www.w3.org/2000/svg">
            <g clip-path="url(#clip0_340_7793)">
                <path d="M12 13C10.343 13 9 11.657 9 10C9 8.343 10.343 7 12 7C13.657 7 15 8.343 15 10C15 11.657 13.657 13 12 13Z" stroke="currentColor" stroke-width="1.5" stroke-linecap="round" stroke-linejoin="round"/>
                <path d="M12 21C12 21 5 15.25 5 10C5 6.134 8.134 3 12 3C15.866 3 19 6.134 19 10C19 15.25 12 21 12 21Z" stroke="currentColor" stroke-width="1.5" stroke-linecap="round" stroke-linejoin="round"/>
            </g>
            <defs>
                <clipPath id="clip0_340_7793">
                    <rect width="24" height="24" fill="white"/>
                </clipPath>
            </defs>
        </svg>

        <svg id="arrow-down" xmlns="http://www.w3.org/2000/svg" viewBox="0 0 24 24" fill="none">
            <g clip-path="url(#clip0_55_1261)">
                <path d="M8 10L12 14L16 10" stroke="currentColor" stroke-width="1.5" stroke-linecap="round" stroke-linejoin="round"/>
            </g>
            <defs>
                <clipPath id="clip0_55_1261">
                    <rect width="24" height="24" fill="white"/>
                </clipPath>
            </defs>
        </svg>

        <svg id="search" viewBox="0 0 24 24" fill="none" xmlns="http://www.w3.org/2000/svg">
            <g clip-path="url(#clip0_458_341)">
                <path d="M11.059 18.118C14.9576 18.118 18.118 14.9576 18.118 11.059C18.118 7.16042 14.9576 4 11.059 4C7.16042 4 4 7.16042 4 11.059C4 14.9576 7.16042 18.118 11.059 18.118Z" stroke="#010101" stroke-width="2" stroke-linecap="round" stroke-linejoin="round"/>
                <path d="M20 20L16.05 16.05" stroke="currentColor" stroke-width="2" stroke-linecap="round" stroke-linejoin="round"/>
            </g>
            <defs>
                <clipPath id="clip0_458_341">
                    <rect width="24" height="24" fill="white"/>
                </clipPath>
            </defs>
        </svg>

        <svg id="hamburger" viewBox="0 0 16 16" fill="none" xmlns="http://www.w3.org/2000/svg">
            <path d="M2 4H14M2 8H14M2 12H14" stroke="currentColor" stroke-width="1.5" stroke-linecap="round" stroke-linejoin="round"/>
        </svg>

       <svg id="bell" viewBox="0 0 24 24" fill="none" xmlns="http://www.w3.org/2000/svg">
          <path d="M9.72729 20.1818C10.9546 21.2727 13.4091 21.2727 14.6364 20.1818" stroke="currentColor" stroke-width="1.5" stroke-linecap="round" stroke-linejoin="round"/>
          <path fill-rule="evenodd" clip-rule="evenodd" d="M12.9989 3.86079C12.9996 3.84668 13 3.83247 13 3.81818C13 3.36631 12.6337 3 12.1818 3C11.7299 3 11.3636 3.36631 11.3636 3.81818C11.3636 3.83248 11.364 3.8467 11.3647 3.86082C8.62574 4.2556 6.04847 7.33594 6.45458 10.7727C6.66492 11.8244 6.00265 12.3816 5.31332 12.9615C4.66195 13.5095 3.98643 14.0778 4.00021 15.1029C4.00021 16.5396 4.81819 17.3182 6.01952 17.7043C6.01952 17.7043 8.21968 18.5455 12.1819 18.5455C16.1442 18.5455 18.3443 17.7043 18.3443 17.7043C19.5456 17.3182 20.3638 16.5 20.3636 15.1029C20.3635 14.069 19.6884 13.5005 19.0406 12.955C18.3544 12.3771 17.6988 11.825 17.9093 10.7727C18.3154 7.33585 15.738 4.25545 12.9989 3.86079ZM7.50742 12.8173C7.90533 12.1882 8.09706 11.4273 7.93882 10.5489C7.79179 9.18224 8.26824 7.86374 9.09065 6.87262C9.93814 5.85127 11.0277 5.31818 11.952 5.31818H12.4118C13.3361 5.31818 14.4257 5.85127 15.2732 6.87262C16.0956 7.86373 16.572 9.18221 16.425 10.5488C16.2675 11.4227 16.4542 12.1812 16.8502 12.8111C17.1968 13.3624 17.6861 13.775 17.9955 14.0359L18.0158 14.0529C18.7814 14.6988 18.8636 14.8396 18.8636 15.1031C18.8637 15.4884 18.7591 15.6936 18.6502 15.8249C18.5251 15.9757 18.2944 16.1448 17.8853 16.2762L17.8466 16.2887L17.8138 16.3012L17.8097 16.3027C17.8017 16.3056 17.7854 16.3114 17.7608 16.3197C17.7116 16.3364 17.6296 16.3631 17.5155 16.3967C17.2872 16.4638 16.9309 16.5582 16.4531 16.6543C15.4978 16.8465 14.0565 17.0455 12.1819 17.0455C10.3074 17.0455 8.86599 16.8465 7.91071 16.6543C7.43295 16.5582 7.0766 16.4638 6.84837 16.3967C6.73426 16.3631 6.65221 16.3364 6.60305 16.3197C6.57847 16.3114 6.56212 16.3056 6.5541 16.3027L6.55006 16.3012L6.51721 16.2887L6.4785 16.2762C6.05248 16.1393 5.82654 15.9741 5.70823 15.8332C5.60926 15.7153 5.50021 15.5162 5.50021 15.1029V15.0928L5.50007 15.0828C5.49688 14.8456 5.56027 14.715 6.33675 14.0607L6.35726 14.0434L6.35727 14.0434C6.66829 13.7815 7.15907 13.3681 7.50742 12.8173Z" fill="currentColor"/>
       </svg>

       <svg id="bell-gradient" xmlns="http://www.w3.org/2000/svg" viewBox="0 0 24 24" fill="none">
          <path d="M9.72656 20.1818C10.9538 21.2727 13.4084 21.2727 14.6357 20.1818" stroke="url(#paint0_linear_663_836)" stroke-width="1.5" stroke-linecap="round" stroke-linejoin="round"/>
          <path fill-rule="evenodd" clip-rule="evenodd" d="M12.9989 3.86079C12.9996 3.84668 13 3.83247 13 3.81818C13 3.36631 12.6337 3 12.1818 3C11.7299 3 11.3636 3.36631 11.3636 3.81818C11.3636 3.83248 11.364 3.8467 11.3647 3.86082C8.62574 4.2556 6.04847 7.33594 6.45458 10.7727C6.66492 11.8244 6.00265 12.3816 5.31332 12.9615C4.66195 13.5095 3.98643 14.0778 4.00021 15.1029C4.00021 16.5396 4.81819 17.3182 6.01952 17.7043C6.01952 17.7043 8.21968 18.5455 12.1819 18.5455C16.1442 18.5455 18.3443 17.7043 18.3443 17.7043C19.5456 17.3182 20.3638 16.5 20.3636 15.1029C20.3635 14.069 19.6884 13.5005 19.0406 12.955C18.3544 12.3771 17.6988 11.825 17.9093 10.7727C18.3154 7.33585 15.738 4.25545 12.9989 3.86079ZM7.50742 12.8173C7.90533 12.1882 8.09706 11.4273 7.93882 10.5489C7.79179 9.18224 8.26824 7.86374 9.09065 6.87262C9.93814 5.85127 11.0277 5.31818 11.952 5.31818H12.4118C13.3361 5.31818 14.4257 5.85127 15.2732 6.87262C16.0956 7.86373 16.572 9.18221 16.425 10.5488C16.2675 11.4227 16.4542 12.1812 16.8502 12.8111C17.1968 13.3624 17.6861 13.775 17.9955 14.0359L18.0158 14.0529C18.7814 14.6988 18.8636 14.8396 18.8636 15.1031C18.8637 15.4884 18.7591 15.6936 18.6502 15.8249C18.5251 15.9757 18.2944 16.1448 17.8853 16.2762L17.8466 16.2887L17.8138 16.3012L17.8097 16.3027C17.8017 16.3056 17.7854 16.3114 17.7608 16.3197C17.7116 16.3364 17.6296 16.3631 17.5155 16.3967C17.2872 16.4638 16.9309 16.5582 16.4531 16.6543C15.4978 16.8465 14.0565 17.0455 12.1819 17.0455C10.3074 17.0455 8.86599 16.8465 7.91071 16.6543C7.43295 16.5582 7.0766 16.4638 6.84837 16.3967C6.73426 16.3631 6.65221 16.3364 6.60305 16.3197C6.57847 16.3114 6.56212 16.3056 6.5541 16.3027L6.55006 16.3012L6.51721 16.2887L6.4785 16.2762C6.05248 16.1393 5.82654 15.9741 5.70823 15.8332C5.60926 15.7153 5.50021 15.5162 5.50021 15.1029V15.0928L5.50007 15.0828C5.49688 14.8456 5.56027 14.715 6.33675 14.0607L6.35726 14.0434L6.35727 14.0434C6.66829 13.7815 7.15907 13.3681 7.50742 12.8173Z" fill="url(#paint1_linear_663_836)"/>
          <defs>
             <linearGradient id="paint0_linear_663_836" x1="14.4193" y1="20.1818" x2="13.348" y2="22.6027" gradientUnits="userSpaceOnUse">
                <stop stop-color="#F50951"/>
                <stop offset="0.427315" stop-color="#FD3A7E"/>
                <stop offset="1" stop-color="#FF9B06"/>
             </linearGradient>
             <linearGradient id="paint1_linear_663_836" x1="19.6426" y1="3" x2="0.798764" y2="10.47" gradientUnits="userSpaceOnUse">
                <stop stop-color="#F50951"/>
                <stop offset="0.427315" stop-color="#FD3A7E"/>
                <stop offset="1" stop-color="#FF9B06"/>
             </linearGradient>
          </defs>
       </svg>

       <svg id="heart" viewBox="0 0 24 24" fill="none" xmlns="http://www.w3.org/2000/svg">
          <path d="M12 5.711C12.689 4.905 13.881 4 15.696 4C18.871 4 21 6.98 21 9.755C21 15.556 13.778 20 12 20C10.222 20 3 15.556 3 9.755C3 6.98 5.129 4 8.304 4C10.119 4 11.311 4.905 12 5.711Z" stroke="#010101" stroke-width="1.5" stroke-linecap="round" stroke-linejoin="round"/>
       </svg>

    </defs>
</svg>
