<svg xmlns="http://www.w3.org/2000/svg">
    <defs>
        <svg id="location" viewBox="0 0 12 14" fill="none" xmlns="http://www.w3.org/2000/svg">
            <path d="M5.99998 13C5.99998 13 1.33331 9.16667 1.33331 5.66667C1.33331 3.08933 3.42265 1 5.99998 1C8.57731 1 10.6666 3.08933 10.6666 5.66667C10.6666 9.16667 5.99998 13 5.99998 13Z"
                  fill="currentColor" stroke="currentColor" stroke-width="1.25" stroke-linecap="round"
                  stroke-linejoin="round"/>
            <path d="M6 7.66663C4.89533 7.66663 4 6.77129 4 5.66663C4 4.56196 4.89533 3.66663 6 3.66663C7.10467 3.66663 8 4.56196 8 5.66663C8 6.77129 7.10467 7.66663 6 7.66663Z"
                  fill="white" stroke="white" stroke-width="1.25" stroke-linecap="round" stroke-linejoin="round"/>
        </svg>

        <svg id="arrow-down" viewBox="0 0 10 6" fill="none" xmlns="http://www.w3.org/2000/svg">
            <path d="M1 1L5 5L9 1" stroke="currentColor" stroke-width="1.5" stroke-linecap="round"
                  stroke-linejoin="round"/>
        </svg>

        <svg id="search" viewBox="0 0 18 18" fill="none" xmlns="http://www.w3.org/2000/svg">
            <path d="M8.059 15.118C11.9576 15.118 15.118 11.9576 15.118 8.059C15.118 4.16042 11.9576 1 8.059 1C4.16042 1 1 4.16042 1 8.059C1 11.9576 4.16042 15.118 8.059 15.118Z"
                  stroke="currentColor" stroke-width="2" stroke-linecap="round" stroke-linejoin="round"/>
            <path d="M17 17L13.05 13.05" stroke="currentColor" stroke-width="2" stroke-linecap="round"
                  stroke-linejoin="round"/>
        </svg>


        <svg id="hamburger" viewBox="0 0 14 10" fill="none" xmlns="http://www.w3.org/2000/svg">
            <path d="M1 1H13M1 5H13M1 9H13" stroke="currentColor" stroke-width="1.5" stroke-linecap="round"
                  stroke-linejoin="round"/>
        </svg>


        <svg id="bell" viewBox="0 0 17 19" fill="none" xmlns="http://www.w3.org/2000/svg">
            <path
                    d="M5.72726 17.1818C6.95454 18.2727 9.40908 18.2727 10.6364 17.1818" stroke="currentColor"
                    stroke-width="1.5" stroke-linecap="round" stroke-linejoin="round"/>
            <path fill-rule="evenodd" clip-rule="evenodd"
                  d="M8.99891 0.860795C8.99963 0.846682 9 0.832475 9 0.818182C9 0.366312 8.63369 0 8.18182 0C7.72995 0 7.36364 0.366312 7.36364 0.818182C7.36364 0.832485 7.364 0.846702 7.36473 0.860824C4.62574 1.2556 2.04847 4.33594 2.45458 7.77273C2.66492 8.82441 2.00265 9.38159 1.31332 9.96152C0.661953 10.5095 -0.013567 11.0778 0.000207154 12.1029C0.000207154 13.5396 0.818191 14.3182 2.01952 14.7043C2.01952 14.7043 4.21968 15.5455 8.18192 15.5455C12.1442 15.5455 14.3443 14.7043 14.3443 14.7043C15.5456 14.3182 16.3638 13.5 16.3636 12.1029C16.3635 11.069 15.6884 10.5005 15.0406 9.955C14.3544 9.37706 13.6988 8.825 13.9093 7.77273C14.3154 4.33585 11.738 1.25545 8.99891 0.860795ZM3.50742 9.81732C3.90533 9.18816 4.09706 8.42735 3.93882 7.54887C3.79179 6.18224 4.26824 4.86374 5.09065 3.87262C5.93814 2.85127 7.02774 2.31818 7.95201 2.31818H8.41183C9.3361 2.31818 10.4257 2.85127 11.2732 3.87262C12.0956 4.86373 12.572 6.18221 12.425 7.54881C12.2675 8.42267 12.4542 9.18124 12.8502 9.81114C13.1968 10.3624 13.6861 10.775 13.9955 11.0359L14.0158 11.0529C14.7814 11.6988 14.8636 11.8396 14.8636 12.1031C14.8637 12.4884 14.7591 12.6936 14.6502 12.8249C14.5251 12.9757 14.2944 13.1448 13.8853 13.2762L13.8466 13.2887L13.8138 13.3012L13.8097 13.3027C13.8017 13.3056 13.7854 13.3114 13.7608 13.3197C13.7116 13.3364 13.6296 13.3631 13.5155 13.3967C13.2872 13.4638 12.9309 13.5582 12.4531 13.6543C11.4978 13.8465 10.0565 14.0455 8.18192 14.0455C6.30737 14.0455 4.86599 13.8465 3.91071 13.6543C3.43295 13.5582 3.0766 13.4638 2.84837 13.3967C2.73426 13.3631 2.65221 13.3364 2.60305 13.3197C2.57847 13.3114 2.56212 13.3056 2.5541 13.3027L2.55006 13.3012L2.51721 13.2887L2.4785 13.2762C2.05248 13.1393 1.82654 12.9741 1.70823 12.8332C1.60926 12.7153 1.50021 12.5162 1.50021 12.1029V12.0928L1.50007 12.0828C1.49688 11.8456 1.56027 11.715 2.33675 11.0607L2.35726 11.0434L2.35727 11.0434C2.66829 10.7815 3.15907 10.3681 3.50742 9.81732Z"
                  fill="currentColor"/>
        </svg>

        <svg id="heart" viewBox="0 0 20 18" fill="none" xmlns="http://www.w3.org/2000/svg">
            <path d="M10 2.711C10.689 1.905 11.881 1 13.696 1C16.871 1 19 3.98 19 6.755C19 12.556 11.778 17 10 17C8.222 17 1 12.556 1 6.755C1 3.98 3.129 1 6.304 1C8.119 1 9.311 1.905 10 2.711Z"
                  stroke="currentColor" stroke-width="1.5" stroke-linecap="round" stroke-linejoin="round"/>
        </svg>


        <svg id="x" viewBox="0 0 14 14" fill="none" xmlns="http://www.w3.org/2000/svg">
            <path d="M13.2987 0.709727C12.9087 0.319727 12.2787 0.319727 11.8887 0.709727L6.99875 5.58973L2.10875 0.699727C1.71875 0.309727 1.08875 0.309727 0.69875 0.699727C0.30875 1.08973 0.30875 1.71973 0.69875 2.10973L5.58875 6.99973L0.69875 11.8897C0.30875 12.2797 0.30875 12.9097 0.69875 13.2997C1.08875 13.6897 1.71875 13.6897 2.10875 13.2997L6.99875 8.40973L11.8887 13.2997C12.2787 13.6897 12.9087 13.6897 13.2987 13.2997C13.6887 12.9097 13.6887 12.2797 13.2987 11.8897L8.40875 6.99973L13.2987 2.10973C13.6787 1.72973 13.6787 1.08973 13.2987 0.709727Z"
                  fill="black"/>
        </svg>

        <svg id="arrow-back" viewBox="0 0 22 16" fill="none" xmlns="http://www.w3.org/2000/svg">
            <path d="M1.66406 8.00001H20.3307" stroke="currentColor" stroke-width="2" stroke-linecap="round"
                  stroke-linejoin="round"/>
            <path d="M8.33073 1.33334L1.66406 8.00001" stroke="currentColor" stroke-width="2" stroke-linecap="round"
                  stroke-linejoin="round"/>
            <path d="M8.33073 14.6667L1.66406 8" stroke="currentColor" stroke-width="2" stroke-linecap="round"
                  stroke-linejoin="round"/>
        </svg>


        <svg id="arrow-right" viewBox="0 0 10 16" fill="none" xmlns="http://www.w3.org/2000/svg">
            <path d="M1.15313 0.489843C1.56146 0.0815097 2.21979 0.0815097 2.62813 0.489843L9.55312 7.41484C9.87812 7.73984 9.87812 8.26484 9.55312 8.58984L2.62812 15.5148C2.21979 15.9232 1.56146 15.9232 1.15312 15.5148C0.744791 15.1065 0.744791 14.4482 1.15312 14.0398L7.18646 7.99818L1.14479 1.95651C0.744794 1.55651 0.744792 0.889843 1.15313 0.489843Z"
                  fill="currentColor"/>
        </svg>


        <svg id="arrow-left" viewBox="0 0 10 16" fill="none" xmlns="http://www.w3.org/2000/svg">
            <path d="M8.84687 15.5102C8.43854 15.9185 7.78021 15.9185 7.37187 15.5102L0.446875 8.58516C0.121875 8.26016 0.121875 7.73516 0.446875 7.41016L7.37187 0.485155C7.78021 0.0768213 8.43854 0.0768213 8.84687 0.485155C9.25521 0.893488 9.25521 1.55182 8.84687 1.96016L2.81354 8.00182L8.85521 14.0435C9.25521 14.4435 9.25521 15.1102 8.84687 15.5102Z"
                  fill="currentColor"/>
        </svg>


        <svg id="eye" viewBox="0 0 20 16" fill="none" xmlns="http://www.w3.org/2000/svg">
            <path d="M1.11775 8.467C0.96075 8.176 0.96075 7.823 1.11775 7.532C3.00975 4.033 6.50475 1 9.99975 1C13.4948 1 16.9898 4.033 18.8818 7.533C19.0388 7.824 19.0388 8.177 18.8818 8.468C16.9898 11.967 13.4948 15 9.99975 15C6.50475 15 3.00975 11.967 1.11775 8.467V8.467Z"
                  stroke="currentColor" stroke-width="1.5" stroke-linecap="round" stroke-linejoin="round"/>
            <path d="M12.1213 5.87868C13.2929 7.05025 13.2929 8.94975 12.1213 10.1213C10.9497 11.2929 9.05025 11.2929 7.87868 10.1213C6.70711 8.94975 6.70711 7.05025 7.87868 5.87868C9.05025 4.70711 10.9497 4.70711 12.1213 5.87868Z"
                  stroke="currentColor" stroke-width="1.5" stroke-linecap="round" stroke-linejoin="round"/>
        </svg>
    </defs>
</svg>
