<svg xmlns="http://www.w3.org/2000/svg">
   <defs>

      <svg id="location" viewBox="0 0 12 14" fill="none" xmlns="http://www.w3.org/2000/svg">
         <path
            d="M6.00065 13C6.00065 13 1.33398 9.16667 1.33398 5.66667C1.33398 3.08933 3.42332 1 6.00065 1C8.57798 1 10.6673 3.08933 10.6673 5.66667C10.6673 9.16667 6.00065 13 6.00065 13Z"
            fill="currentColor" stroke="currentColor" stroke-width="1.25" stroke-linecap="round"
            stroke-linejoin="round"/>
         <path
            d="M6 7.66663C4.89533 7.66663 4 6.77129 4 5.66663C4 4.56196 4.89533 3.66663 6 3.66663C7.10467 3.66663 8 4.56196 8 5.66663C8 6.77129 7.10467 7.66663 6 7.66663Z"
            fill="white" stroke="white" stroke-width="1.25" stroke-linecap="round" stroke-linejoin="round"/>
      </svg>


      <svg id="arrow-down" viewBox="0 0 10 6" fill="none" xmlns="http://www.w3.org/2000/svg">
         <path d="M1 1L5 5L9 1" stroke="currentColor" stroke-width="1.5" stroke-linecap="round"
               stroke-linejoin="round"/>
      </svg>

      <svg id="search" viewBox="0 0 18 18" fill="none" xmlns="http://www.w3.org/2000/svg">
         <path
            d="M8.059 15.118C11.9576 15.118 15.118 11.9576 15.118 8.059C15.118 4.16042 11.9576 1 8.059 1C4.16042 1 1 4.16042 1 8.059C1 11.9576 4.16042 15.118 8.059 15.118Z"
            stroke="currentColor" stroke-width="2" stroke-linecap="round" stroke-linejoin="round"/>
         <path d="M17 17L13.05 13.05" stroke="currentColor" stroke-width="2" stroke-linecap="round"
               stroke-linejoin="round"/>
      </svg>


      <svg id="hamburger" viewBox="0 0 14 10" fill="none" xmlns="http://www.w3.org/2000/svg">
         <path d="M1 1H13M1 5H13M1 9H13" stroke="currentColor" stroke-width="1.5" stroke-linecap="round"
               stroke-linejoin="round"/>
      </svg>


      <svg id="bell" viewBox="0 0 17 19" fill="none" xmlns="http://www.w3.org/2000/svg">
         <path
            d="M5.72726 17.1818C6.95454 18.2727 9.40908 18.2727 10.6364 17.1818" stroke="currentColor"
            stroke-width="1.5" stroke-linecap="round" stroke-linejoin="round"/>
         <path fill-rule="evenodd" clip-rule="evenodd"
               d="M8.99891 0.860795C8.99963 0.846682 9 0.832475 9 0.818182C9 0.366312 8.63369 0 8.18182 0C7.72995 0 7.36364 0.366312 7.36364 0.818182C7.36364 0.832485 7.364 0.846702 7.36473 0.860824C4.62574 1.2556 2.04847 4.33594 2.45458 7.77273C2.66492 8.82441 2.00265 9.38159 1.31332 9.96152C0.661953 10.5095 -0.013567 11.0778 0.000207154 12.1029C0.000207154 13.5396 0.818191 14.3182 2.01952 14.7043C2.01952 14.7043 4.21968 15.5455 8.18192 15.5455C12.1442 15.5455 14.3443 14.7043 14.3443 14.7043C15.5456 14.3182 16.3638 13.5 16.3636 12.1029C16.3635 11.069 15.6884 10.5005 15.0406 9.955C14.3544 9.37706 13.6988 8.825 13.9093 7.77273C14.3154 4.33585 11.738 1.25545 8.99891 0.860795ZM3.50742 9.81732C3.90533 9.18816 4.09706 8.42735 3.93882 7.54887C3.79179 6.18224 4.26824 4.86374 5.09065 3.87262C5.93814 2.85127 7.02774 2.31818 7.95201 2.31818H8.41183C9.3361 2.31818 10.4257 2.85127 11.2732 3.87262C12.0956 4.86373 12.572 6.18221 12.425 7.54881C12.2675 8.42267 12.4542 9.18124 12.8502 9.81114C13.1968 10.3624 13.6861 10.775 13.9955 11.0359L14.0158 11.0529C14.7814 11.6988 14.8636 11.8396 14.8636 12.1031C14.8637 12.4884 14.7591 12.6936 14.6502 12.8249C14.5251 12.9757 14.2944 13.1448 13.8853 13.2762L13.8466 13.2887L13.8138 13.3012L13.8097 13.3027C13.8017 13.3056 13.7854 13.3114 13.7608 13.3197C13.7116 13.3364 13.6296 13.3631 13.5155 13.3967C13.2872 13.4638 12.9309 13.5582 12.4531 13.6543C11.4978 13.8465 10.0565 14.0455 8.18192 14.0455C6.30737 14.0455 4.86599 13.8465 3.91071 13.6543C3.43295 13.5582 3.0766 13.4638 2.84837 13.3967C2.73426 13.3631 2.65221 13.3364 2.60305 13.3197C2.57847 13.3114 2.56212 13.3056 2.5541 13.3027L2.55006 13.3012L2.51721 13.2887L2.4785 13.2762C2.05248 13.1393 1.82654 12.9741 1.70823 12.8332C1.60926 12.7153 1.50021 12.5162 1.50021 12.1029V12.0928L1.50007 12.0828C1.49688 11.8456 1.56027 11.715 2.33675 11.0607L2.35726 11.0434L2.35727 11.0434C2.66829 10.7815 3.15907 10.3681 3.50742 9.81732Z"
               fill="currentColor"/>
      </svg>

      <svg id="heart" viewBox="0 0 20 18" fill="none" xmlns="http://www.w3.org/2000/svg">
         <path
            d="M10 2.711C10.689 1.905 11.881 1 13.696 1C16.871 1 19 3.98 19 6.755C19 12.556 11.778 17 10 17C8.222 17 1 12.556 1 6.755C1 3.98 3.129 1 6.304 1C8.119 1 9.311 1.905 10 2.711Z"
            stroke="currentColor" stroke-width="1.5" stroke-linecap="round" stroke-linejoin="round"/>
      </svg>


      <svg id="x" viewBox="0 0 14 14" fill="none" xmlns="http://www.w3.org/2000/svg">
         <path
            d="M13.2987 0.709727C12.9087 0.319727 12.2787 0.319727 11.8887 0.709727L6.99875 5.58973L2.10875 0.699727C1.71875 0.309727 1.08875 0.309727 0.69875 0.699727C0.30875 1.08973 0.30875 1.71973 0.69875 2.10973L5.58875 6.99973L0.69875 11.8897C0.30875 12.2797 0.30875 12.9097 0.69875 13.2997C1.08875 13.6897 1.71875 13.6897 2.10875 13.2997L6.99875 8.40973L11.8887 13.2997C12.2787 13.6897 12.9087 13.6897 13.2987 13.2997C13.6887 12.9097 13.6887 12.2797 13.2987 11.8897L8.40875 6.99973L13.2987 2.10973C13.6787 1.72973 13.6787 1.08973 13.2987 0.709727Z"
            fill="currentColor"/>
      </svg>

      <svg id="arrow-back" viewBox="0 0 22 16" fill="none" xmlns="http://www.w3.org/2000/svg">
         <path d="M1.66406 8.00001H20.3307" stroke="currentColor" stroke-width="2" stroke-linecap="round"
               stroke-linejoin="round"/>
         <path d="M8.33073 1.33334L1.66406 8.00001" stroke="currentColor" stroke-width="2" stroke-linecap="round"
               stroke-linejoin="round"/>
         <path d="M8.33073 14.6667L1.66406 8" stroke="currentColor" stroke-width="2" stroke-linecap="round"
               stroke-linejoin="round"/>
      </svg>


      <svg id="arrow-right" viewBox="0 0 10 16" fill="none" xmlns="http://www.w3.org/2000/svg">
         <path
            d="M1.15313 0.489843C1.56146 0.0815097 2.21979 0.0815097 2.62813 0.489843L9.55312 7.41484C9.87812 7.73984 9.87812 8.26484 9.55312 8.58984L2.62812 15.5148C2.21979 15.9232 1.56146 15.9232 1.15312 15.5148C0.744791 15.1065 0.744791 14.4482 1.15312 14.0398L7.18646 7.99818L1.14479 1.95651C0.744794 1.55651 0.744792 0.889843 1.15313 0.489843Z"
            fill="currentColor"/>
      </svg>


      <svg id="arrow-left" viewBox="0 0 10 16" fill="none" xmlns="http://www.w3.org/2000/svg">
         <path
            d="M8.84687 15.5102C8.43854 15.9185 7.78021 15.9185 7.37187 15.5102L0.446875 8.58516C0.121875 8.26016 0.121875 7.73516 0.446875 7.41016L7.37187 0.485155C7.78021 0.0768213 8.43854 0.0768213 8.84687 0.485155C9.25521 0.893488 9.25521 1.55182 8.84687 1.96016L2.81354 8.00182L8.85521 14.0435C9.25521 14.4435 9.25521 15.1102 8.84687 15.5102Z"
            fill="currentColor"/>
      </svg>


      <svg id="eye" viewBox="0 0 20 16" fill="none" xmlns="http://www.w3.org/2000/svg">
         <path
            d="M1.11775 8.467C0.96075 8.176 0.96075 7.823 1.11775 7.532C3.00975 4.033 6.50475 1 9.99975 1C13.4948 1 16.9898 4.033 18.8818 7.533C19.0388 7.824 19.0388 8.177 18.8818 8.468C16.9898 11.967 13.4948 15 9.99975 15C6.50475 15 3.00975 11.967 1.11775 8.467V8.467Z"
            stroke="currentColor" stroke-width="1.5" stroke-linecap="round" stroke-linejoin="round"/>
         <path
            d="M12.1213 5.87868C13.2929 7.05025 13.2929 8.94975 12.1213 10.1213C10.9497 11.2929 9.05025 11.2929 7.87868 10.1213C6.70711 8.94975 6.70711 7.05025 7.87868 5.87868C9.05025 4.70711 10.9497 4.70711 12.1213 5.87868Z"
            stroke="currentColor" stroke-width="1.5" stroke-linecap="round" stroke-linejoin="round"/>
      </svg>

      <svg id="calendar" xmlns="http://www.w3.org/2000/svg" viewBox="0 0 24 24" fill="none">
         <path d="M15.3307 3.66663V6.99996" stroke="currentColor" stroke-width="1.5" stroke-linecap="round"
               stroke-linejoin="round"/>
         <path d="M8.66667 3.66663V6.99996" stroke="currentColor" stroke-width="1.5" stroke-linecap="round"
               stroke-linejoin="round"/>
         <path d="M4.5 9.50001H19.5" stroke="currentColor" stroke-width="1.5" stroke-linecap="round"
               stroke-linejoin="round"/>
         <path fill-rule="evenodd" clip-rule="evenodd"
               d="M17.8333 5.33337H6.16667C5.24583 5.33337 4.5 6.07921 4.5 7.00004V17.8334C4.5 18.7542 5.24583 19.5 6.16667 19.5H17.8333C18.7542 19.5 19.5 18.7542 19.5 17.8334V7.00004C19.5 6.07921 18.7542 5.33337 17.8333 5.33337Z"
               stroke="currentColor" stroke-width="1.5" stroke-linecap="round" stroke-linejoin="round"/>
         <path
            d="M7.84552 12.6075C7.73052 12.6075 7.63719 12.7008 7.63802 12.8158C7.63802 12.9308 7.73136 13.0242 7.84636 13.0242C7.96136 13.0242 8.05469 12.9308 8.05469 12.8158C8.05469 12.7008 7.96136 12.6075 7.84552 12.6075"
            stroke="currentColor" stroke-width="1.5" stroke-linecap="round" stroke-linejoin="round"/>
         <path
            d="M12.0096 12.6075C11.8946 12.6075 11.8013 12.7008 11.8021 12.8158C11.8021 12.9308 11.8954 13.0242 12.0104 13.0242C12.1254 13.0242 12.2188 12.9308 12.2188 12.8158C12.2188 12.7008 12.1254 12.6075 12.0096 12.6075"
            stroke="currentColor" stroke-width="1.5" stroke-linecap="round" stroke-linejoin="round"/>
         <path
            d="M16.1776 12.6075C16.0626 12.6075 15.9692 12.7008 15.9701 12.8158C15.9701 12.9308 16.0634 13.0242 16.1784 13.0242C16.2934 13.0242 16.3867 12.9308 16.3867 12.8158C16.3867 12.7008 16.2934 12.6075 16.1776 12.6075"
            stroke="currentColor" stroke-width="1.5" stroke-linecap="round" stroke-linejoin="round"/>
         <path
            d="M7.84552 15.9408C7.73052 15.9408 7.63719 16.0341 7.63802 16.1491C7.63802 16.2641 7.73136 16.3575 7.84636 16.3575C7.96136 16.3575 8.05469 16.2641 8.05469 16.1491C8.05469 16.0341 7.96136 15.9408 7.84552 15.9408"
            stroke="currentColor" stroke-width="1.5" stroke-linecap="round" stroke-linejoin="round"/>
         <path
            d="M12.0096 15.9408C11.8946 15.9408 11.8013 16.0341 11.8021 16.1491C11.8021 16.2641 11.8954 16.3575 12.0104 16.3575C12.1254 16.3575 12.2188 16.2641 12.2188 16.1491C12.2188 16.0341 12.1254 15.9408 12.0096 15.9408"
            stroke="currentColor" stroke-width="1.5" stroke-linecap="round" stroke-linejoin="round"/>
      </svg>

      <svg id="like" viewBox="0 0 24 24" fill="none" xmlns="http://www.w3.org/2000/svg">
         <path
            d="M2.39844 12.5994C2.39844 12.363 2.445 12.129 2.53545 11.9106C2.62591 11.6922 2.7585 11.4938 2.92565 11.3266C3.09279 11.1595 3.29122 11.0269 3.50961 10.9364C3.72799 10.846 3.96206 10.7994 4.19844 10.7994C4.43482 10.7994 4.66888 10.846 4.88727 10.9364C5.10565 11.0269 5.30408 11.1595 5.47123 11.3266C5.63838 11.4938 5.77096 11.6922 5.86142 11.9106C5.95188 12.129 5.99844 12.363 5.99844 12.5994V19.7994C5.99844 20.2768 5.8088 20.7346 5.47123 21.0722C5.13366 21.4098 4.67583 21.5994 4.19844 21.5994C3.72105 21.5994 3.26321 21.4098 2.92565 21.0722C2.58808 20.7346 2.39844 20.2768 2.39844 19.7994V12.5994ZM7.19844 12.399V18.915C7.19823 19.361 7.3223 19.7982 7.55673 20.1777C7.79116 20.5571 8.12668 20.8637 8.52564 21.063L8.58564 21.093C9.2515 21.4258 9.98564 21.5992 10.73 21.5994H17.2292C17.7843 21.5996 18.3222 21.4075 18.7515 21.0556C19.1808 20.7038 19.4748 20.2141 19.5836 19.6698L21.0236 12.4698C21.0932 12.1217 21.0847 11.7624 20.9987 11.4179C20.9127 11.0735 20.7513 10.7524 20.5262 10.4778C20.3011 10.2033 20.0179 9.98206 19.697 9.83016C19.3761 9.67826 19.0255 9.59945 18.6704 9.59941H14.3984V4.79941C14.3984 4.16289 14.1456 3.55244 13.6955 3.10236C13.2454 2.65227 12.635 2.39941 11.9984 2.39941C11.6802 2.39941 11.375 2.52584 11.1499 2.75089C10.9249 2.97593 10.7984 3.28115 10.7984 3.59941V4.39981C10.7984 5.43839 10.4616 6.44895 9.83844 7.27981L8.15844 9.51901C7.53529 10.3499 7.19844 11.3604 7.19844 12.399Z"
            fill="currentColor"/>
      </svg>


      <svg id="dislike" xmlns="http://www.w3.org/2000/svg" viewBox="0 0 24 24" fill="none">
         <path
            d="M21.5948 11.3994C21.5948 11.8768 21.4052 12.3346 21.0676 12.6722C20.7301 13.0098 20.2722 13.1994 19.7948 13.1994C19.3174 13.1994 18.8596 13.0098 18.522 12.6722C18.1845 12.3346 17.9948 11.8768 17.9948 11.3994V4.19941C17.9948 3.72202 18.1845 3.26419 18.522 2.92662C18.8596 2.58906 19.3174 2.39941 19.7948 2.39941C20.2722 2.39941 20.7301 2.58906 21.0676 2.92662C21.4052 3.26419 21.5948 3.72202 21.5948 4.19941V11.3994ZM16.7948 11.5998V5.08381C16.7951 4.63794 16.6713 4.2008 16.437 3.8214C16.2028 3.442 15.8676 3.13534 15.4688 2.93581L15.4088 2.90581C14.7419 2.57247 14.0064 2.39909 13.2608 2.39941H6.76283C6.20779 2.39919 5.66984 2.59136 5.24056 2.94318C4.81128 3.29501 4.51721 3.78475 4.40843 4.32901L2.96843 11.529C2.89882 11.8773 2.90737 12.2366 2.99345 12.5812C3.07954 12.9257 3.24102 13.2469 3.46625 13.5215C3.69147 13.7961 3.97483 14.0172 4.29588 14.1691C4.61694 14.3209 4.96768 14.3996 5.32283 14.3994H9.59483V19.1994C9.59483 19.8359 9.84768 20.4464 10.2978 20.8965C10.7479 21.3466 11.3583 21.5994 11.9948 21.5994C12.3131 21.5994 12.6183 21.473 12.8434 21.2479C13.0684 21.0229 13.1948 20.7177 13.1948 20.3994V19.599C13.1948 18.5604 13.5317 17.5499 14.1548 16.719L15.8348 14.4798C16.458 13.649 16.7948 12.6384 16.7948 11.5998Z"
            fill="currentColor"/>
      </svg>

      <svg id="info" xmlns="http://www.w3.org/2000/svg" viewBox="0 0 24 24" fill="none">
         <g clip-path="url(#clip0_562_28235)">
            <path
               d="M12 3C16.971 3 21 7.029 21 12C21 16.971 16.971 21 12 21C7.029 21 3 16.971 3 12C3 7.029 7.029 3 12 3Z"
               stroke="currentColor" stroke-width="1.43023" stroke-linecap="round" stroke-linejoin="round"/>
            <path d="M12 12.5V7.5" stroke="currentColor" stroke-width="1.43023" stroke-linecap="round"
                  stroke-linejoin="round"/>
            <path
               d="M11.998 15.8C11.7772 15.8 11.598 15.9792 11.5996 16.2C11.5996 16.4208 11.7788 16.6 11.9996 16.6C12.2204 16.6 12.3996 16.4208 12.3996 16.2C12.3996 15.9792 12.2204 15.8 11.998 15.8Z"
               stroke="currentColor" stroke-width="1.43023" stroke-linecap="round" stroke-linejoin="round"/>
         </g>
         <defs>
            <clipPath id="clip0_562_28235">
               <rect width="24" height="24" fill="white"/>
            </clipPath>
         </defs>
      </svg>

      <svg id="gradient-man" xmlns="http://www.w3.org/2000/svg" viewBox="0 0 14 14" fill="none">
         <g clip-path="url(#clip0_1814_3350)">
            <path
               d="M8.6431 2.43068C9.55068 3.33826 9.55068 4.80974 8.6431 5.71732C7.73552 6.6249 6.26404 6.6249 5.35647 5.71732C4.44889 4.80974 4.44889 3.33826 5.35647 2.43068C6.26404 1.52311 7.73552 1.52311 8.6431 2.43068Z"
               fill="url(#paint0_linear_1814_3350)" stroke="url(#paint1_linear_1814_3350)" stroke-width="1.5"
               stroke-linecap="round" stroke-linejoin="round"/>
            <path
               d="M7 8.17133C9.6565 8.17133 12.25 9.31874 12.25 11.0833V11.6667C12.25 11.9887 11.9887 12.25 11.6667 12.25H2.33333C2.01133 12.25 1.75 11.9887 1.75 11.6667V11.0833C1.75 9.31816 4.3435 8.17133 7 8.17133Z"
               fill="url(#paint2_linear_1814_3350)" stroke="url(#paint3_linear_1814_3350)" stroke-width="1.5"
               stroke-linecap="round" stroke-linejoin="round"/>
         </g>
         <defs>
            <linearGradient id="paint0_linear_1814_3350" x1="9.11898" y1="1.75" x2="3.69466" y2="3.79276"
                            gradientUnits="userSpaceOnUse">
               <stop stop-color="#F50951"/>
               <stop offset="0.427315" stop-color="#FD3A7E"/>
               <stop offset="1" stop-color="#FF9B06"/>
            </linearGradient>
            <linearGradient id="paint1_linear_1814_3350" x1="9.11898" y1="1.75" x2="3.69466" y2="3.79276"
                            gradientUnits="userSpaceOnUse">
               <stop stop-color="#F50951"/>
               <stop offset="0.427315" stop-color="#FD3A7E"/>
               <stop offset="1" stop-color="#FF9B06"/>
            </linearGradient>
            <linearGradient id="paint2_linear_1814_3350" x1="11.7873" y1="8.17133" x2="4.57487" y2="15.1638"
                            gradientUnits="userSpaceOnUse">
               <stop stop-color="#F50951"/>
               <stop offset="0.427315" stop-color="#FD3A7E"/>
               <stop offset="1" stop-color="#FF9B06"/>
            </linearGradient>
            <linearGradient id="paint3_linear_1814_3350" x1="11.7873" y1="8.17133" x2="4.57487" y2="15.1638"
                            gradientUnits="userSpaceOnUse">
               <stop stop-color="#F50951"/>
               <stop offset="0.427315" stop-color="#FD3A7E"/>
               <stop offset="1" stop-color="#FF9B06"/>
            </linearGradient>
            <clipPath id="clip0_1814_3350">
               <rect width="14" height="14" fill="white"/>
            </clipPath>
         </defs>
      </svg>

      <svg id="gradient-heart" xmlns="http://www.w3.org/2000/svg" viewBox="0 0 14 14" fill="none">
         <path
            d="M7 3.06938C7.45933 2.56562 8.254 2 9.464 2C11.5807 2 13 3.8625 13 5.59688C13 9.2225 8.18533 12 7 12C5.81467 12 1 9.2225 1 5.59688C1 3.8625 2.41933 2 4.536 2C5.746 2 6.54067 2.56562 7 3.06938Z"
            fill="#FF034C"/>
         <path
            d="M7 3.06938C7.45933 2.56562 8.254 2 9.464 2C11.5807 2 13 3.8625 13 5.59688C13 9.2225 8.18533 12 7 12C5.81467 12 1 9.2225 1 5.59688C1 3.8625 2.41933 2 4.536 2C5.746 2 6.54067 2.56562 7 3.06938Z"
            fill="url(#paint0_linear_1814_3358)"/>
         <defs>
            <linearGradient id="paint0_linear_1814_3358" x1="12.4712" y1="2" x2="-0.807312" y2="8.00075"
                            gradientUnits="userSpaceOnUse">
               <stop stop-color="#F50951"/>
               <stop offset="0.427315" stop-color="#FD3A7E"/>
               <stop offset="1" stop-color="#FFBF06"/>
            </linearGradient>
         </defs>
      </svg>

      <svg id="grey-star" xmlns="http://www.w3.org/2000/svg" viewBox="0 0 24 24" fill="none">
         <g clip-path="url(#clip0_1814_3385)">
            <path
               d="M12 17.235L6.179 20L7.388 13.88L3 9.392L9.179 8.621L12 3L14.821 8.621L21 9.392L16.612 13.88L17.821 20L12 17.235Z"
               fill="#E2E8F0" stroke="#E2E8F0" stroke-width="1.5" stroke-linecap="round" stroke-linejoin="round"/>
         </g>
         <defs>
            <clipPath id="clip0_1814_3385">
               <rect width="24" height="24" fill="white"/>
            </clipPath>
         </defs>
      </svg>

      <svg id="gradient-star" xmlns="http://www.w3.org/2000/svg" viewBox="0 0 24 24" fill="none">
         <g clip-path="url(#clip0_1814_3381)">
            <path
               d="M12 17.235L6.179 20L7.388 13.88L3 9.392L9.179 8.621L12 3L14.821 8.621L21 9.392L16.612 13.88L17.821 20L12 17.235Z"
               fill="url(#paint0_linear_1814_3381)" stroke="url(#paint1_linear_1814_3381)" stroke-width="1.5"
               stroke-linecap="round" stroke-linejoin="round"/>
         </g>
         <defs>
            <linearGradient id="paint0_linear_1814_3381" x1="20.2069" y1="3" x2="-0.488199" y2="11.2521"
                            gradientUnits="userSpaceOnUse">
               <stop stop-color="#F50951"/>
               <stop offset="0.427315" stop-color="#FD3A7E"/>
               <stop offset="1" stop-color="#FF9B06"/>
            </linearGradient>
            <linearGradient id="paint1_linear_1814_3381" x1="20.2069" y1="3" x2="-0.488199" y2="11.2521"
                            gradientUnits="userSpaceOnUse">
               <stop stop-color="#F50951"/>
               <stop offset="0.427315" stop-color="#FD3A7E"/>
               <stop offset="1" stop-color="#FF9B06"/>
            </linearGradient>
            <clipPath id="clip0_1814_3381">
               <rect width="24" height="24" fill="white"/>
            </clipPath>
         </defs>
      </svg>

      <svg id="dots" xmlns="http://www.w3.org/2000/svg" viewBox="0 0 4 16" fill="none">
         <path
            d="M2 14.5C1.72386 14.5 1.5 14.2761 1.5 14C1.5 13.7239 1.72386 13.5 2 13.5C2.27614 13.5 2.5 13.7239 2.5 14V14C2.5 14.2761 2.27614 14.5 2 14.5"
            stroke="currentColor" stroke-width="2.5" stroke-linecap="round" stroke-linejoin="round"/>
         <path
            d="M2 8.5C1.72386 8.5 1.5 8.27614 1.5 8C1.5 7.72386 1.72386 7.5 2 7.5C2.27614 7.5 2.5 7.72386 2.5 8V8C2.5 8.27614 2.27614 8.5 2 8.5"
            stroke="currentColor" stroke-width="2.5" stroke-linecap="round" stroke-linejoin="round"/>
         <path
            d="M2 2.5C1.72386 2.5 1.5 2.27614 1.5 2C1.5 1.72386 1.72386 1.5 2 1.5C2.27614 1.5 2.5 1.72386 2.5 2V2C2.5 2.27614 2.27614 2.5 2 2.5"
            stroke="currentColor" stroke-width="2.5" stroke-linecap="round" stroke-linejoin="round"/>
      </svg>

      <svg id="outline-plus" xmlns="http://www.w3.org/2000/svg" viewBox="0 0 16 16" fill="none">
         <circle cx="8" cy="8" r="7.625" stroke="currentColor" stroke-width="0.75"/>
         <path fill-rule="evenodd" clip-rule="evenodd"
               d="M7.88889 4C7.70479 4 7.55556 4.14924 7.55556 4.33333V7.55556H4.33333C4.14924 7.55556 4 7.70479 4 7.88889C4 8.07298 4.14924 8.22222 4.33333 8.22222H7.55556V11.6667C7.55556 11.8508 7.70479 12 7.88889 12C8.07298 12 8.22222 11.8508 8.22222 11.6667V8.22222H11.6667C11.8508 8.22222 12 8.07298 12 7.88889C12 7.70479 11.8508 7.55556 11.6667 7.55556H8.22222V4.33333C8.22222 4.14924 8.07298 4 7.88889 4Z"
               fill="currentColor"/>
      </svg>

      <svg id="grid-icon" xmlns="http://www.w3.org/2000/svg" width="20" height="20" viewBox="0 0 20 20" fill="none">
         <path opacity="0.4"
               d="M14.0756 0H17.4616C18.8639 0 20.0001 1.14585 20.0001 2.55996V5.97452C20.0001 7.38864 18.8639 8.53449 17.4616 8.53449H14.0756C12.6734 8.53449 11.5371 7.38864 11.5371 5.97452V2.55996C11.5371 1.14585 12.6734 0 14.0756 0Z"
               fill="currentColor"/>
         <path fill-rule="evenodd" clip-rule="evenodd"
               d="M2.53852 0H5.92449C7.32676 0 8.46301 1.14585 8.46301 2.55996V5.97452C8.46301 7.38864 7.32676 8.53449 5.92449 8.53449H2.53852C1.13626 8.53449 0 7.38864 0 5.97452V2.55996C0 1.14585 1.13626 0 2.53852 0ZM2.53852 11.4655H5.92449C7.32676 11.4655 8.46301 12.6114 8.46301 14.0255V17.44C8.46301 18.8532 7.32676 20 5.92449 20H2.53852C1.13626 20 0 18.8532 0 17.44V14.0255C0 12.6114 1.13626 11.4655 2.53852 11.4655ZM17.4614 11.4655H14.0755C12.6732 11.4655 11.537 12.6114 11.537 14.0255V17.44C11.537 18.8532 12.6732 20 14.0755 20H17.4614C18.8637 20 20 18.8532 20 17.44V14.0255C20 12.6114 18.8637 11.4655 17.4614 11.4655Z"
               fill="currentColor"/>
      </svg>

      <svg id="electronics" xmlns="http://www.w3.org/2000/svg" viewBox="0 0 24 24" fill="none">
         <g clip-path="url(#clip0_320_12727)">
            <path d="M9.5 3V4.8C9.5 5.131 9.724 5.4 10 5.4H14C14.276 5.4 14.5 5.131 14.5 4.8V3" stroke="currentColor"
                  stroke-width="1.5" stroke-linecap="round" stroke-linejoin="round"/>
            <path
               d="M8 3H16C17.105 3 18 3.895 18 5V19C18 20.105 17.105 21 16 21H8C6.895 21 6 20.105 6 19V5C6 3.895 6.895 3 8 3Z"
               stroke="currentColor" stroke-width="1.5" stroke-linecap="round" stroke-linejoin="round"/>
         </g>
         <defs>
            <clipPath id="clip0_320_12727">
               <rect width="24" height="24" fill="white"/>
            </clipPath>
         </defs>
      </svg>

      <svg id="my-information" viewBox="0 0 18 20" fill="none" xmlns="http://www.w3.org/2000/svg">
         <path
            d="M15 10V5.828C15 5.298 14.789 4.789 14.414 4.414L11.586 1.586C11.211 1.211 10.702 1 10.172 1H3C1.895 1 1 1.895 1 3V17C1 18.105 1.895 19 3 19H9"
            stroke="currentColor" stroke-width="1.5" stroke-linecap="round" stroke-linejoin="round"/>
         <path d="M4 9H10" stroke="currentColor" stroke-width="1.5" stroke-linecap="round" stroke-linejoin="round"/>
         <path d="M4 12H10" stroke="currentColor" stroke-width="1.5" stroke-linecap="round" stroke-linejoin="round"/>
         <path d="M4 15H8.33" stroke="currentColor" stroke-width="1.5" stroke-linecap="round" stroke-linejoin="round"/>
         <path d="M15 6H11C10.448 6 10 5.552 10 5V1" stroke="currentColor" stroke-width="1.5" stroke-linecap="round"
               stroke-linejoin="round"/>
         <path
            d="M16.4211 18.6842V18.4278C16.4201 18.0773 16.2804 17.7415 16.0326 17.4937C15.7848 17.2459 15.449 17.1063 15.0985 17.1053H13.3225C12.9721 17.1063 12.6363 17.2459 12.3885 17.4937C12.1407 17.7415 12.001 18.0773 12 18.4278V18.6842C12 18.768 12.0333 18.8483 12.0925 18.9075C12.1517 18.9667 12.232 19 12.3158 19H16.1053C16.189 19 16.2693 18.9667 16.3286 18.9075C16.3878 18.8483 16.4211 18.768 16.4211 18.6842Z"
            stroke="currentColor" stroke-width="1.25" stroke-linecap="round" stroke-linejoin="round"/>
         <path
            d="M14.2124 15.5263C14.91 15.5263 15.4755 14.9608 15.4755 14.2632C15.4755 13.5655 14.91 13 14.2124 13C13.5148 13 12.9492 13.5655 12.9492 14.2632C12.9492 14.9608 13.5148 15.5263 14.2124 15.5263Z"
            stroke="currentColor" stroke-width="1.25" stroke-linecap="round" stroke-linejoin="round"/>
      </svg>


      <svg id="favourite-companies" viewBox="0 0 20 20" fill="none" xmlns="http://www.w3.org/2000/svg">
         <path
            d="M4.77389 13.1575L5 13.3871L5.22614 13.1574C5.4298 12.9493 5.67298 12.7839 5.94141 12.6711C6.20984 12.5582 6.49811 12.5 6.78931 12.5C7.08051 12.5 7.36879 12.5582 7.63721 12.6711C7.90564 12.7839 8.14882 12.9493 8.35249 13.1574V13.1574C8.76755 13.5815 8.99998 14.1513 8.99998 14.7447C8.99998 15.3381 8.76755 15.9079 8.35249 16.3319L6.23743 18.4795C6.0762 18.6443 5.8837 18.7752 5.67121 18.8646C5.45872 18.954 5.23052 19 5 19C4.76948 19 4.54128 18.954 4.32879 18.8646C4.11629 18.7752 3.92379 18.6443 3.76257 18.4795L1.64751 16.332C1.23244 15.9079 1 15.3381 1 14.7447C1 14.1513 1.23244 13.5816 1.64751 13.1575V13.1575C1.85117 12.9494 2.09435 12.784 2.36278 12.6711C2.63121 12.5582 2.91949 12.5 3.21069 12.5C3.5019 12.5 3.79017 12.5582 4.05861 12.6711C4.32704 12.784 4.57022 12.9493 4.77389 13.1575Z"
            stroke="currentColor" stroke-width="1.5" stroke-linecap="round" stroke-linejoin="round"/>
         <path
            d="M10 19H14C15.3261 19 16.5979 18.4732 17.5355 17.5355C18.4732 16.5979 19 15.3261 19 14V6C19 4.67392 18.4732 3.40215 17.5355 2.46447C16.5979 1.52678 15.3261 1 14 1H6C4.67392 1 3.40215 1.52678 2.46447 2.46447C1.52678 3.40215 1 4.67392 1 6V10"
            stroke="currentColor" stroke-width="1.5" stroke-linecap="round" stroke-linejoin="round"/>
         <path d="M12 14H15" stroke="currentColor" stroke-width="1.5" stroke-linecap="round" stroke-linejoin="round"/>
         <path d="M14 14V8.86575" stroke="currentColor" stroke-width="1.5" stroke-linecap="round"
               stroke-linejoin="round"/>
         <path
            d="M6.64521 8.99963C6.88765 8.99952 7.12701 8.94527 7.34581 8.84084C7.5646 8.7364 7.75731 8.58443 7.90987 8.396C7.9524 8.32439 8.01283 8.26508 8.08521 8.22388C8.1576 8.18269 8.23945 8.16102 8.32274 8.16102C8.40602 8.16102 8.48788 8.18269 8.56026 8.22388C8.63265 8.26508 8.69307 8.32439 8.7356 8.396C8.88809 8.58451 9.08078 8.73654 9.2996 8.84098C9.51841 8.94542 9.7578 8.99962 10.0003 8.99962C10.2427 8.99962 10.4821 8.94542 10.7009 8.84098C10.9197 8.73654 11.1124 8.58451 11.2649 8.396C11.3075 8.32439 11.3679 8.26508 11.4403 8.22388C11.5126 8.18268 11.5945 8.16102 11.6778 8.16102C11.7611 8.16102 11.8429 8.18268 11.9153 8.22388C11.9877 8.26508 12.0481 8.32439 12.0906 8.396C12.2432 8.58442 12.4359 8.7364 12.6547 8.84083C12.8735 8.94526 13.1129 8.99951 13.3553 8.99962C13.7251 8.99695 14.0834 8.87093 14.3734 8.64153C14.6635 8.41214 14.8687 8.09249 14.9564 7.73326C15.0426 7.36608 14.9903 6.98 14.8095 6.649L14.3929 5.82423C14.2677 5.57635 14.0762 5.36806 13.8396 5.22255C13.6031 5.07703 13.3308 4.99999 13.0531 5H6.94732C6.66979 5 6.3977 5.07699 6.16132 5.22242C5.92495 5.36784 5.73355 5.576 5.60842 5.82372L5.19135 6.64942C5.01056 6.98042 4.95825 7.36648 5.04444 7.73365C5.13223 8.09287 5.33741 8.41251 5.62745 8.6419C5.91749 8.8713 6.2758 8.99732 6.64558 9"
            stroke="currentColor" stroke-width="1.5" stroke-linecap="round" stroke-linejoin="round"/>
      </svg>

      <svg id="like-outline" viewBox="0 0 18 16" fill="none" xmlns="http://www.w3.org/2000/svg">
         <path
            d="M3.944 15H2.056C1.473 15 1 14.527 1 13.944V6.556C1 5.973 1.473 5.5 2.056 5.5H3.944C4.527 5.5 5 5.973 5 6.556V13.944C5 14.527 4.527 15 3.944 15V15Z"
            stroke="currentColor" stroke-width="1.5" stroke-linecap="round" stroke-linejoin="round"/>
         <path
            d="M5 6.572L8.649 1.821C9.328 0.936004 10.654 0.914004 11.363 1.775C11.628 2.096 11.772 2.5 11.772 2.916V6.187H14.868C15.469 6.187 16.03 6.487 16.364 6.986L16.693 7.477C16.988 7.918 17.074 8.467 16.927 8.976L15.568 13.698C15.346 14.469 14.641 15 13.839 15H7.55C7.05 15 6.572 14.792 6.232 14.426L5 13.1"
            stroke="currentColor" stroke-width="1.5" stroke-linecap="round" stroke-linejoin="round"/>
      </svg>

      <svg id="settings" viewBox="0 0 20 20" fill="none" xmlns="http://www.w3.org/2000/svg">
         <path
            d="M1.90032 13.647L3.29832 13.861C4.33032 14.019 5.06732 14.943 4.99132 15.984L4.88832 17.395C4.85832 17.806 5.08232 18.193 5.45332 18.372L6.48732 18.87C6.85832 19.049 7.30132 18.982 7.60432 18.703L8.64332 17.743C9.40932 17.035 10.5913 17.035 11.3583 17.743L12.3973 18.703C12.7003 18.983 13.1423 19.049 13.5143 18.87L14.5503 18.371C14.9203 18.193 15.1433 17.807 15.1133 17.397L15.0103 15.984C14.9343 14.943 15.6713 14.019 16.7033 13.861L18.1013 13.647C18.5083 13.585 18.8363 13.28 18.9283 12.878L19.1833 11.76C19.2753 11.358 19.1123 10.941 18.7723 10.709L17.6053 9.90999C16.7443 9.31999 16.4813 8.16799 17.0013 7.26299L17.7063 6.03699C17.9113 5.67999 17.8773 5.23299 17.6203 4.91099L16.9053 4.01399C16.6483 3.69199 16.2203 3.55899 15.8263 3.67999L14.4743 4.09399C13.4753 4.39999 12.4103 3.88699 12.0263 2.91599L11.5083 1.60299C11.3563 1.21899 10.9853 0.96699 10.5723 0.96799L9.42632 0.97099C9.01332 0.97199 8.64332 1.22599 8.49332 1.61099L7.98832 2.90899C7.60832 3.88599 6.53832 4.40299 5.53632 4.09499L4.12832 3.66299C3.73332 3.54099 3.30332 3.67499 3.04632 3.99899L2.33632 4.89699C2.07932 5.22199 2.04832 5.66999 2.25732 6.02699L2.97832 7.25599C3.50932 8.16199 3.24932 9.32499 2.38332 9.91799L1.23032 10.708C0.890317 10.941 0.727317 11.358 0.819317 11.759L1.07432 12.877C1.16532 13.28 1.49332 13.585 1.90032 13.647V13.647Z"
            stroke="currentColor" stroke-width="1.5" stroke-linecap="round" stroke-linejoin="round"/>
         <path
            d="M11.9165 8.084C12.9745 9.142 12.9745 10.858 11.9165 11.916C10.8585 12.974 9.14252 12.974 8.08452 11.916C7.02652 10.858 7.02652 9.142 8.08452 8.084C9.14252 7.026 10.8585 7.026 11.9165 8.084Z"
            stroke="currentColor" stroke-width="1.5" stroke-linecap="round" stroke-linejoin="round"/>
      </svg>

      <svg id="logout" viewBox="0 0 18 20" fill="none" xmlns="http://www.w3.org/2000/svg">
         <path
            d="M7.33333 18.3333H3.16667C2.24619 18.3333 1.5 17.5871 1.5 16.6667V3.33332C1.5 2.41285 2.24619 1.66666 3.16667 1.66666H7.33333"
            stroke="currentColor" stroke-width="1.5" stroke-linecap="round" stroke-linejoin="round"/>
         <path d="M13.168 13.3333L16.5013 10L13.168 6.66667" stroke="currentColor" stroke-width="1.5"
               stroke-linecap="round"
               stroke-linejoin="round"/>
         <path d="M16.5 10H6.5" stroke="currentColor" stroke-width="1.5" stroke-linecap="round"
               stroke-linejoin="round"/>
      </svg>

      <svg id="solid-plus" viewBox="0 0 20 20" fill="none" xmlns="http://www.w3.org/2000/svg">
         <path fill-rule="evenodd" clip-rule="evenodd"
               d="M10 0C4.48 0 0 4.48 0 10C0 15.52 4.48 20 10 20C15.52 20 20 15.52 20 10C20 4.48 15.52 0 10 0ZM14 11H11V14C11 14.55 10.55 15 10 15C9.45 15 9 14.55 9 14V11H6C5.45 11 5 10.55 5 10C5 9.45 5.45 9 6 9H9V6C9 5.45 9.45 5 10 5C10.55 5 11 5.45 11 6V9H14C14.55 9 15 9.45 15 10C15 10.55 14.55 11 14 11Z"
               fill="currentColor"/>
      </svg>

      <svg id="camera" viewBox="0 0 14 12" fill="none" xmlns="http://www.w3.org/2000/svg">
         <path
            d="M8.9203 4.77853C9.95832 5.81655 9.95832 7.4995 8.9203 8.53751C7.88229 9.57553 6.19934 9.57553 5.16132 8.53751C4.12331 7.4995 4.12331 5.81655 5.16132 4.77853C6.19934 3.74052 7.88229 3.74052 8.9203 4.77853"
            stroke="currentColor" stroke-width="1" stroke-linecap="round" stroke-linejoin="round"/>
         <path
            d="M13 4V10C13 10.7367 12.4033 11.3333 11.6667 11.3333H2.33333C1.59667 11.3333 1 10.7367 1 10V4C1 3.26333 1.59667 2.66666 2.33333 2.66666H3.66667L4.64133 0.997331C4.76067 0.792664 4.98 0.666664 5.21733 0.666664H8.75333C8.98733 0.666664 9.204 0.789331 9.32467 0.989331L10.3333 2.66666H11.6667C12.4033 2.66666 13 3.26333 13 4Z"
            stroke="currentColor" stroke-width="1" stroke-linecap="round" stroke-linejoin="round"/>
      </svg>

      <svg id="pencil" viewBox="0 0 16 16" fill="none" xmlns="http://www.w3.org/2000/svg">
         <path
            d="M1.293 11.619L11.619 1.29299C12.009 0.902988 12.642 0.902988 13.032 1.29299L14.708 2.96899C15.098 3.35899 15.098 3.99199 14.708 4.38199L4.381 14.707C4.194 14.895 3.94 15 3.675 15H1V12.325C1 12.06 1.105 11.806 1.293 11.619V11.619Z"
            stroke="currentColor" stroke-width="1.5" stroke-linecap="round" stroke-linejoin="round"/>
         <path d="M9.75 3.16003L12.84 6.25003" stroke="currentColor" stroke-width="1.5" stroke-linecap="round"
               stroke-linejoin="round"/>
      </svg>

      <svg id="trash" viewBox="0 0 14 14" fill="none" xmlns="http://www.w3.org/2000/svg">
         <path
            d="M9.36095 13H4.63905C4.26114 13 3.89715 12.8574 3.61987 12.6006C3.34259 12.3438 3.17245 11.9918 3.14347 11.615L2.5 3.25H11.5L10.8565 11.615C10.8275 11.9918 10.6574 12.3438 10.3801 12.6006C10.1028 12.8574 9.73886 13 9.36095 13V13Z"
            stroke="currentColor" stroke-width="1.5" stroke-linecap="round" stroke-linejoin="round"/>
         <path d="M12.3307 3.25H1.66406" stroke="currentColor" stroke-width="1.5" stroke-linecap="round"
               stroke-linejoin="round"/>
         <path
            d="M5.125 1H8.875C9.07391 1 9.26468 1.07902 9.40533 1.21967C9.54598 1.36032 9.625 1.55109 9.625 1.75V3.25H4.375V1.75C4.375 1.55109 4.45402 1.36032 4.59467 1.21967C4.73532 1.07902 4.92609 1 5.125 1V1Z"
            stroke="currentColor" stroke-width="1.5" stroke-linecap="round" stroke-linejoin="round"/>
         <path d="M8.3125 6.25V10" stroke="currentColor" stroke-width="1.5" stroke-linecap="round"
               stroke-linejoin="round"/>
         <path d="M5.6875 6.25V10" stroke="currentColor" stroke-width="1.5" stroke-linecap="round"
               stroke-linejoin="round"/>
      </svg>

      <svg id="verified" viewBox="0 0 23 28" fill="none" xmlns="http://www.w3.org/2000/svg">
         <path
            d="M11.25 0L0 5V12.5C0 19.4375 4.8 25.925 11.25 27.5C17.7 25.925 22.5 19.4375 22.5 12.5V5L11.25 0ZM8.75 20L3.75 15L5.5125 13.2375L8.75 16.4625L16.9875 8.225L18.75 10L8.75 20Z"
            fill="#06BB54"/>
      </svg>

      <svg id="phone" viewBox="0 0 16 17" fill="none" xmlns="http://www.w3.org/2000/svg">
         <path
            d="M8.40042 0.551137C8.05595 0.710638 7.95615 1.14848 8.20404 1.4237C8.34569 1.58007 8.45514 1.61448 8.85756 1.63637C10.5155 1.72707 11.8966 2.3119 13.0233 3.40339C13.8378 4.19776 14.3787 5.12975 14.662 6.23375C14.7586 6.60904 14.794 6.84673 14.8262 7.33149C14.8551 7.80686 14.8938 7.93509 15.0386 8.06957C15.2994 8.30413 15.7147 8.25409 15.9111 7.96636C15.998 7.83501 16.0012 7.8225 15.998 7.42531C15.9819 5.98668 15.441 4.52302 14.4624 3.26265C14.2274 2.96241 13.5481 2.29314 13.2326 2.05232C11.9835 1.10157 10.5187 0.569902 8.9638 0.507352C8.5807 0.491715 8.51631 0.49797 8.40042 0.551137Z"
            fill="currentColor"/>
         <path
            d="M2.40367 2.94989C1.65679 3.11565 0.868064 3.62229 0.46565 4.19462C-0.113826 5.0234 -0.152457 5.9679 0.349755 7.12506C1.66323 10.1618 3.67852 12.62 6.29904 14.3808C7.64149 15.2815 9.61815 16.2541 10.468 16.4293C11.8266 16.7107 13.021 16.1415 13.6584 14.9093C14.0544 14.1368 14.093 13.5364 13.7743 13.0016C13.5554 12.6357 12.6829 11.8538 11.965 11.3878C11.0636 10.7998 10.5196 10.5653 10.0592 10.5653C9.61815 10.5653 9.26402 10.7216 8.93244 11.0594C8.44632 11.5598 8.37871 11.8819 8.69743 12.1822C8.80366 12.2791 8.87449 12.3167 8.98394 12.3323C9.24793 12.3729 9.41855 12.2791 9.66644 11.9695C9.92076 11.6474 10.0495 11.6255 10.4713 11.8288C11.2632 12.2134 12.596 13.2361 12.7731 13.5895C12.8375 13.7209 12.8407 13.749 12.8085 13.9054C12.7312 14.2682 12.4415 14.7467 12.1485 15.0094C11.8749 15.2471 11.3791 15.4035 11.0153 15.3659C10.5936 15.3222 10.2717 15.2064 9.31231 14.7655C6.72399 13.5708 4.65719 11.8788 3.09583 9.67394C2.53567 8.8827 1.88537 7.72866 1.47329 6.78416C1.21575 6.20558 1.17068 6.01168 1.18678 5.5926C1.19965 5.30487 1.21253 5.2392 1.30267 5.04842C1.45398 4.73255 1.77913 4.43231 2.17832 4.23841C2.74814 3.96632 2.91555 3.9757 3.26323 4.28845C3.90387 4.87328 4.94693 6.37447 4.94693 6.71849C4.94693 6.86235 4.89542 6.93116 4.61856 7.14382C4.28697 7.4034 4.20327 7.6192 4.33204 7.89129C4.4415 8.12898 4.71836 8.28222 4.95659 8.23844C5.24633 8.18527 5.78073 7.71928 5.96423 7.35962C6.10588 7.07815 6.15417 6.71849 6.08657 6.43076C5.92238 5.74272 5.06604 4.46671 4.20005 3.61291C3.83305 3.25013 3.54975 3.05622 3.28577 2.98116C3.02822 2.90923 2.65156 2.89672 2.40367 2.94989Z"
            fill="currentColor"/>
         <path
            d="M8.5305 3.81283C8.03794 3.90978 7.90595 4.55717 8.32446 4.82613C8.42426 4.89181 8.50796 4.91057 8.80092 4.93559C9.65082 5.00752 10.3269 5.34842 10.8291 5.95514C11.2025 6.40237 11.3957 6.89651 11.444 7.5095C11.4762 7.90356 11.5566 8.05993 11.782 8.16001C12.0395 8.2726 12.2907 8.22256 12.4709 8.0224C12.5997 7.88166 12.6222 7.75969 12.5997 7.37814C12.5128 5.8707 11.4247 4.50087 9.92124 4.00048C9.48019 3.85661 8.78482 3.76279 8.5305 3.81283Z"
            fill="currentColor"/>
      </svg>

      <svg id="clock" viewBox="0 0 14 15" fill="none" xmlns="http://www.w3.org/2000/svg">
         <path
            d="M6.99203 0.833496C3.31203 0.833496 0.332031 3.82016 0.332031 7.50016C0.332031 11.1802 3.31203 14.1668 6.99203 14.1668C10.6787 14.1668 13.6654 11.1802 13.6654 7.50016C13.6654 3.82016 10.6787 0.833496 6.99203 0.833496ZM6.9987 12.8335C4.05203 12.8335 1.66536 10.4468 1.66536 7.50016C1.66536 4.5535 4.05203 2.16683 6.9987 2.16683C9.94537 2.16683 12.332 4.5535 12.332 7.50016C12.332 10.4468 9.94537 12.8335 6.9987 12.8335Z"
            fill="currentColor"/>
         <path d="M7.33203 4.1665H6.33203V8.1665L9.83203 10.2665L10.332 9.4465L7.33203 7.6665V4.1665Z"
               fill="currentColor"/>
      </svg>

      <svg id="location-outline" viewBox="0 0 11 13" fill="none" xmlns="http://www.w3.org/2000/svg">
         <path
            d="M4.72733 0.568446C3.46245 0.711481 2.25086 1.36215 1.43752 2.32974C0.0548521 3.97604 -0.14708 6.29826 0.92989 8.12967C1.15145 8.50548 3.97569 12.2665 4.16921 12.4432C4.57868 12.8162 5.15643 12.9592 5.69211 12.8218C5.96696 12.7517 6.20816 12.6226 6.40729 12.4432C6.60081 12.2665 9.42505 8.50548 9.64661 8.12967C10.373 6.89284 10.5301 5.39517 10.0813 4.00128C9.97475 3.67315 9.68587 3.08698 9.46992 2.76726C8.43782 1.22472 6.57276 0.360905 4.72733 0.568446ZM6.07915 1.74358C6.59239 1.85015 7.04393 2.04367 7.5123 2.35218C7.77594 2.52606 8.35088 3.10101 8.52757 3.37025C8.83047 3.8274 9.04081 4.33784 9.14739 4.87071C9.22311 5.25214 9.2175 5.98414 9.13617 6.36276C9.05484 6.74419 8.93143 7.08355 8.75755 7.4201C8.56684 7.7847 5.71455 11.599 5.56591 11.6859C5.43409 11.7616 5.14241 11.7616 5.01059 11.6859C4.86195 11.599 2.00966 7.7847 1.81895 7.4201C1.64506 7.08355 1.52447 6.74419 1.44033 6.36276C1.35339 5.9561 1.35339 5.22129 1.44033 4.80901C1.55532 4.27614 1.74603 3.82459 2.05454 3.36464C2.22562 3.10942 2.65472 2.65788 2.91555 2.46156C3.46245 2.05208 4.12153 1.78004 4.78903 1.69029C5.09754 1.64822 5.75942 1.67626 6.07915 1.74358Z"
            fill="currentColor"/>
         <path
            d="M4.87166 3.95931C4.56596 4.04064 4.3472 4.16685 4.1088 4.40805C3.8648 4.64924 3.7414 4.8652 3.66007 5.18212C3.5591 5.57757 3.60958 6.00667 3.80591 6.37969C3.9237 6.60686 4.26586 6.94902 4.49304 7.06682C4.86605 7.26314 5.29515 7.31362 5.6906 7.21265C6.00752 7.13132 6.22348 7.00792 6.46468 6.76392C6.70868 6.52272 6.83208 6.30677 6.91341 5.98985C7.01438 5.5944 6.9639 5.16529 6.76757 4.79228C6.64978 4.56511 6.30762 4.22294 6.08044 4.10515C5.71024 3.91163 5.2643 3.85834 4.87166 3.95931ZM5.59525 5.12042C5.76072 5.2298 5.83364 5.37003 5.83364 5.58598C5.83364 5.80474 5.76072 5.94217 5.58683 6.05716C5.42978 6.16093 5.15773 6.16654 4.99787 6.06557C4.78472 5.93375 4.68655 5.67293 4.75106 5.42332C4.79032 5.28028 4.96141 5.09518 5.09603 5.05591C5.24467 5.01104 5.47465 5.03908 5.59525 5.12042Z"
            fill="currentColor"/>
      </svg>

      <svg id="toaster-error" viewBox="0 0 32 32" fill="none" xmlns="http://www.w3.org/2000/svg">
         <rect width="32" height="32" rx="16" fill="#F04248" fill-opacity="0.1"/>
         <mask id="mask0_435_3427" style="mask-type:alpha" maskUnits="userSpaceOnUse" x="4" y="4" width="24"
               height="24">
            <rect x="4" y="4" width="24" height="24" fill="#D9D9D9"/>
         </mask>
         <g mask="url(#mask0_435_3427)">
            <path
               d="M12.4 21L16 17.4L19.6 21L21 19.6L17.4 16L21 12.4L19.6 11L16 14.6L12.4 11L11 12.4L14.6 16L11 19.6L12.4 21ZM16 26C14.6167 26 13.3167 25.7373 12.1 25.212C10.8833 24.6873 9.825 23.975 8.925 23.075C8.025 22.175 7.31267 21.1167 6.788 19.9C6.26267 18.6833 6 17.3833 6 16C6 14.6167 6.26267 13.3167 6.788 12.1C7.31267 10.8833 8.025 9.825 8.925 8.925C9.825 8.025 10.8833 7.31233 12.1 6.787C13.3167 6.26233 14.6167 6 16 6C17.3833 6 18.6833 6.26233 19.9 6.787C21.1167 7.31233 22.175 8.025 23.075 8.925C23.975 9.825 24.6873 10.8833 25.212 12.1C25.7373 13.3167 26 14.6167 26 16C26 17.3833 25.7373 18.6833 25.212 19.9C24.6873 21.1167 23.975 22.175 23.075 23.075C22.175 23.975 21.1167 24.6873 19.9 25.212C18.6833 25.7373 17.3833 26 16 26Z"
               fill="#F04248"/>
         </g>
      </svg>

      <svg id="toaster-success" viewBox="0 0 32 32" fill="none" xmlns="http://www.w3.org/2000/svg">
         <rect width="32" height="32" rx="16" fill="#06BB54" fill-opacity="0.1"/>
         <mask id="mask0_2356_12585" style="mask-type:alpha" maskUnits="userSpaceOnUse" x="4" y="4" width="24"
               height="24">
            <rect x="4" y="4" width="24" height="24" fill="#D9D9D9"/>
         </mask>
         <g mask="url(#mask0_2356_12585)">
            <path
               d="M14.6 20.6L21.65 13.55L20.25 12.15L14.6 17.8L11.75 14.95L10.35 16.35L14.6 20.6ZM16 26C14.6167 26 13.3167 25.7373 12.1 25.212C10.8833 24.6873 9.825 23.975 8.925 23.075C8.025 22.175 7.31267 21.1167 6.788 19.9C6.26267 18.6833 6 17.3833 6 16C6 14.6167 6.26267 13.3167 6.788 12.1C7.31267 10.8833 8.025 9.825 8.925 8.925C9.825 8.025 10.8833 7.31233 12.1 6.787C13.3167 6.26233 14.6167 6 16 6C17.3833 6 18.6833 6.26233 19.9 6.787C21.1167 7.31233 22.175 8.025 23.075 8.925C23.975 9.825 24.6873 10.8833 25.212 12.1C25.7373 13.3167 26 14.6167 26 16C26 17.3833 25.7373 18.6833 25.212 19.9C24.6873 21.1167 23.975 22.175 23.075 23.075C22.175 23.975 21.1167 24.6873 19.9 25.212C18.6833 25.7373 17.3833 26 16 26Z"
               fill="#06BB54"/>
         </g>
      </svg>

      <svg id="toaster-warning" viewBox="0 0 32 32" fill="none" xmlns="http://www.w3.org/2000/svg">
         <rect width="32" height="32" rx="16" fill="#FFC900" fill-opacity="0.1"/>
         <g clip-path="url(#clip0_2356_12670)">
            <path
               d="M16 6C10.48 6 6 10.48 6 16C6 21.52 10.48 26 16 26C21.52 26 26 21.52 26 16C26 10.48 21.52 6 16 6ZM17 21H15V19H17V21ZM17 17H15V11H17V17Z"
               fill="#FFC900"/>
         </g>
         <defs>
            <clipPath id="clip0_2356_12670">
               <rect width="24" height="24" fill="white" transform="translate(4 4)"/>
            </clipPath>
         </defs>
      </svg>

      <svg id="toaster-info" width="32" height="32" viewBox="0 0 32 32" fill="none" xmlns="http://www.w3.org/2000/svg">
         <rect width="32" height="32" rx="16" fill="#0CA4FA" fill-opacity="0.1"/>
         <path
            d="M16 26C21.52 26 26 21.52 26 16C26 10.48 21.52 6 16 6C10.48 6 6 10.48 6 16C6 21.52 10.48 26 16 26ZM15 11L17 11L17 13L15 13L15 11ZM15 15L17 15L17 21L15 21L15 15Z"
            fill="#0CA4FA"/>
      </svg>

      <svg id="play" viewBox="0 0 20 20" fill="none" xmlns="http://www.w3.org/2000/svg">
         <path d="M19 10C19 14.971 14.971 19 10 19C5.029 19 1 14.971 1 10C1 5.029 5.029 1 10 1C14.971 1 19 5.029 19 10Z"
               stroke="currentColor" stroke-width="1.5" stroke-linecap="round" stroke-linejoin="round"/>
         <path
            d="M8.94059 7.05801L12.8226 9.35401C13.3136 9.64401 13.3136 10.355 12.8226 10.645L8.94059 12.941C8.44059 13.237 7.80859 12.876 7.80859 12.295V7.70401C7.80859 7.12301 8.44059 6.76201 8.94059 7.05801V7.05801Z"
            stroke="currentColor" stroke-width="1.5" stroke-linecap="round" stroke-linejoin="round"/>
      </svg>

      <svg id="full-screen" viewBox="0 0 21 20" fill="none" xmlns="http://www.w3.org/2000/svg">
         <path d="M6.49828 1H3.99828H3.98828C2.87828 1 1.98828 1.89 1.98828 3V5.49" stroke="currentColor"
               stroke-width="2"
               stroke-linecap="round" stroke-linejoin="round"/>
         <path d="M2 14.5V17C2 18.1 2.89 18.99 4 18.99H6.49" stroke="currentColor" stroke-width="2"
               stroke-linecap="round"
               stroke-linejoin="round"/>
         <path d="M15.5 19H18L17.99 18.999C19.09 18.999 19.99 18.099 19.99 16.999V14.489" stroke="currentColor"
               stroke-width="2" stroke-linecap="round" stroke-linejoin="round"/>
         <path d="M20 5.5V3C20 1.89 19.1 1 18 1H15.5" stroke="currentColor" stroke-width="2" stroke-linecap="round"
               stroke-linejoin="round"/>
      </svg>

      <svg id="filter" viewBox="0 0 20 20" fill="none" xmlns="http://www.w3.org/2000/svg">
         <path d="M16 3H19" stroke="currentColor" stroke-width="1.5" stroke-linecap="round" stroke-linejoin="round"/>
         <path d="M1 3H12" stroke="currentColor" stroke-width="1.5" stroke-linecap="round" stroke-linejoin="round"/>
         <path d="M8 10H19" stroke="currentColor" stroke-width="1.5" stroke-linecap="round" stroke-linejoin="round"/>
         <path d="M1 10H4" stroke="currentColor" stroke-width="1.5" stroke-linecap="round" stroke-linejoin="round"/>
         <path d="M16 17H19" stroke="currentColor" stroke-width="1.5" stroke-linecap="round" stroke-linejoin="round"/>
         <path d="M1 17H12" stroke="currentColor" stroke-width="1.5" stroke-linecap="round" stroke-linejoin="round"/>
         <path
            d="M15.4142 1.58579C16.1953 2.36684 16.1953 3.63317 15.4142 4.41422C14.6332 5.19527 13.3668 5.19527 12.5858 4.41422C11.8047 3.63317 11.8047 2.36684 12.5858 1.58579C13.3668 0.804738 14.6332 0.804738 15.4142 1.58579Z"
            stroke="currentColor" stroke-width="1.5" stroke-linecap="round" stroke-linejoin="round"/>
         <path
            d="M7.41422 8.58579C8.19527 9.36684 8.19527 10.6332 7.41422 11.4142C6.63317 12.1953 5.36684 12.1953 4.58579 11.4142C3.80474 10.6332 3.80474 9.36684 4.58579 8.58579C5.36684 7.80474 6.63317 7.80474 7.41422 8.58579"
            stroke="currentColor" stroke-width="1.5" stroke-linecap="round" stroke-linejoin="round"/>
         <path
            d="M15.4142 15.5858C16.1953 16.3668 16.1953 17.6332 15.4142 18.4142C14.6332 19.1953 13.3668 19.1953 12.5858 18.4142C11.8047 17.6332 11.8047 16.3668 12.5858 15.5858C13.3668 14.8047 14.6332 14.8047 15.4142 15.5858Z"
            stroke="currentColor" stroke-width="1.5" stroke-linecap="round" stroke-linejoin="round"/>
      </svg>

      <svg id="solid-camera" xmlns="http://www.w3.org/2000/svg" width="14" height="13" viewBox="0 0 14 13" fill="none">
         <path fill-rule="evenodd" clip-rule="evenodd"
               d="M6.99922 9C5.89465 9 4.99922 8.10457 4.99922 7C4.99922 5.89543 5.89465 5 6.99922 5C8.10379 5 8.99922 5.89543 8.99922 7C8.99922 8.10457 8.10379 9 6.99922 9ZM12.332 1.66654C13.0654 1.66654 13.6654 2.26654 13.6654 2.99987V10.9999C13.6654 11.7332 13.0654 12.3332 12.332 12.3332H1.66536C0.932031 12.3332 0.332031 11.7332 0.332031 10.9999V2.99987C0.332031 2.26654 0.932031 1.66654 1.66536 1.66654H3.7787L4.5987 0.766539C4.85203 0.493206 5.21203 0.333206 5.58536 0.333206H8.41203C8.78537 0.333206 9.14536 0.493206 9.39203 0.766539L10.2187 1.66654H12.332ZM6.99818 10.3331C8.83818 10.3331 10.3315 8.83974 10.3315 6.99974C10.3315 5.15974 8.83818 3.66641 6.99818 3.66641C5.15818 3.66641 3.66484 5.15974 3.66484 6.99974C3.66484 8.83974 5.15818 10.3331 6.99818 10.3331Z"
               fill="currentColor"/>
      </svg>

      <svg id="solid-trash" viewBox="0 0 12 16" fill="none" xmlns="http://www.w3.org/2000/svg">
         <path fill-rule="evenodd" clip-rule="evenodd"
               d="M0.857143 14.2222C0.857143 15.2 1.62857 16 2.57143 16H9.42857C10.3714 16 11.1429 15.2 11.1429 14.2222V5.33333C11.1429 4.35556 10.3714 3.55556 9.42857 3.55556H2.57143C1.62857 3.55556 0.857143 4.35556 0.857143 5.33333V14.2222ZM11.1429 0.888889H9L8.39143 0.257778C8.23714 0.0977778 8.01429 0 7.79143 0H4.20857C3.98571 0 3.76286 0.0977778 3.60857 0.257778L3 0.888889H0.857143C0.385714 0.888889 0 1.28889 0 1.77778C0 2.26667 0.385714 2.66667 0.857143 2.66667H11.1429C11.6143 2.66667 12 2.26667 12 1.77778C12 1.28889 11.6143 0.888889 11.1429 0.888889Z"
               fill="currentColor"/>
      </svg>

      <svg id="success" viewBox="0 0 32 32" fill="none" xmlns="http://www.w3.org/2000/svg">
         <circle cx="16" cy="16" r="16" fill="#06BB54"/>
         <path d="M23.6738 10.7168L13.7548 20.6359L9.24609 16.1272" stroke="white" stroke-width="2"
               stroke-linecap="round" stroke-linejoin="round"/>
      </svg>

   </defs>
</svg>
