<svg xmlns="http://www.w3.org/2000/svg">
    <defs>
        <svg id="location" viewBox="0 0 24 24" fill="none" xmlns="http://www.w3.org/2000/svg">
            <g clip-path="url(#clip0_340_7793)">
                <path d="M12 13C10.343 13 9 11.657 9 10C9 8.343 10.343 7 12 7C13.657 7 15 8.343 15 10C15 11.657 13.657 13 12 13Z" stroke="currentColor" stroke-width="1.5" stroke-linecap="round" stroke-linejoin="round"/>
                <path d="M12 21C12 21 5 15.25 5 10C5 6.134 8.134 3 12 3C15.866 3 19 6.134 19 10C19 15.25 12 21 12 21Z" stroke="currentColor" stroke-width="1.5" stroke-linecap="round" stroke-linejoin="round"/>
            </g>
            <defs>
                <clipPath id="clip0_340_7793">
                    <rect width="24" height="24" fill="white"/>
                </clipPath>
            </defs>
        </svg>

        <svg id="arrow-down" xmlns="http://www.w3.org/2000/svg" viewBox="0 0 24 24" fill="none">
            <g clip-path="url(#clip0_55_1261)">
                <path d="M8 10L12 14L16 10" stroke="currentColor" stroke-width="1.5" stroke-linecap="round" stroke-linejoin="round"/>
            </g>
            <defs>
                <clipPath id="clip0_55_1261">
                    <rect width="24" height="24" fill="white"/>
                </clipPath>
            </defs>
        </svg>

        <svg id="search" viewBox="0 0 24 24" fill="none" xmlns="http://www.w3.org/2000/svg">
            <g clip-path="url(#clip0_458_341)">
                <path d="M11.059 18.118C14.9576 18.118 18.118 14.9576 18.118 11.059C18.118 7.16042 14.9576 4 11.059 4C7.16042 4 4 7.16042 4 11.059C4 14.9576 7.16042 18.118 11.059 18.118Z" stroke="#010101" stroke-width="2" stroke-linecap="round" stroke-linejoin="round"/>
                <path d="M20 20L16.05 16.05" stroke="currentColor" stroke-width="2" stroke-linecap="round" stroke-linejoin="round"/>
            </g>
            <defs>
                <clipPath id="clip0_458_341">
                    <rect width="24" height="24" fill="white"/>
                </clipPath>
            </defs>
        </svg>

        <svg id="hamburger" viewBox="0 0 16 16" fill="none" xmlns="http://www.w3.org/2000/svg">
            <path d="M2 4H14M2 8H14M2 12H14" stroke="currentColor" stroke-width="1.5" stroke-linecap="round" stroke-linejoin="round"/>
        </svg>

    </defs>
</svg>
