<svg width="106" height="80" viewBox="0 0 106 80" fill="none" xmlns="http://www.w3.org/2000/svg">
   <path d="M68.9214 71.0816C67.0587 75.5644 61.6675 79.2002 56.8833 79.2002C52.099 79.2002 49.7295 75.5644 51.5922 71.0816C53.4549 66.5988 58.8461 62.963 63.6303 62.963C68.4146 62.963 70.7841 66.5988 68.9214 71.0816ZM82.5736 47.966H28.9622C25.5791 47.966 21.7697 50.5371 20.4526 53.7041C19.1355 56.8741 20.8109 59.4422 24.1941 59.4422H77.8055C81.1887 59.4422 84.998 56.8711 86.3152 53.7041C87.6323 50.5341 85.9568 47.966 82.5736 47.966ZM93.6271 32.2461H27.8582C24.475 32.2461 20.6657 34.8172 19.3485 37.9842C18.0314 41.1542 19.7069 43.7222 23.0901 43.7222H88.8622C92.2454 43.7222 96.0548 41.1511 97.3719 37.9842C98.689 34.8142 97.0135 32.2461 93.6304 32.2461H93.6271ZM101.336 16.5231H22.2572C18.874 16.5231 15.0647 19.0942 13.7476 22.2612C12.4304 25.4312 14.1059 27.9993 17.4891 27.9993H96.5713C99.9545 27.9993 103.764 25.4282 105.081 22.2612C106.398 19.0912 104.723 16.5231 101.339 16.5231H101.336ZM29.4659 63.2958C24.7784 63.2958 19.5003 66.8559 17.6731 71.248C15.8491 75.64 18.167 79.2002 22.8544 79.2002C27.5418 79.2002 32.82 75.64 34.6472 71.248C36.4711 66.8559 34.1533 63.2958 29.4659 63.2958ZM37.1878 6.53825C38.5049 3.36826 36.8295 0.800194 33.4463 0.800194H9.68965C6.30646 0.800194 2.49714 3.37128 1.18001 6.53825C-0.137109 9.70825 1.53835 12.2763 4.92154 12.2763H28.6782C32.0614 12.2763 35.8707 9.70523 37.1878 6.53825Z" fill="#E4002B"/>
</svg>
