<svg xmlns="http://www.w3.org/2000/svg" viewBox="0 0 606 140" fill="none">
    <path d="M64.5569 0.84887C60.6796 1.66264 57.1852 3.45772 54.0019 6.3059C50.8426 9.08229 49.0714 10.3747 46.7737 11.4997C43.8777 12.9357 41.4842 13.5101 37.3196 13.7734C33.1311 14.0606 30.6898 14.5154 28.2485 15.4728C23.0069 17.5551 18.7945 21.3606 16.1856 26.3629C14.5341 29.594 13.864 32.1311 13.6246 36.3435C13.2896 41.8963 12.6673 44.3376 10.7286 47.9756C9.65153 50.034 8.90957 50.9913 6.10925 54.1507C3.90728 56.6159 2.42335 59.0333 1.41811 61.8336C-0.472704 67.0274 -0.472704 72.5323 1.41811 77.726C2.42335 80.5263 3.90728 82.9437 6.10925 85.409C8.90957 88.5683 9.65153 89.5257 10.7286 91.584C12.6673 95.222 13.2896 97.6633 13.6246 103.216C13.864 107.429 14.5341 109.966 16.1856 113.197C18.7945 118.199 23.0069 122.005 28.2485 124.087C30.7138 125.044 33.1551 125.499 37.3196 125.762C44.2845 126.217 47.8508 127.821 54.0019 133.254C58.5016 137.251 63.5278 139.189 69.4635 139.189C75.5668 139.189 80.8084 137.083 85.5713 132.703C90.7172 127.988 94.8578 126.193 101.583 125.762C105.533 125.523 107.017 125.284 109.362 124.542C112.952 123.393 116.112 121.406 118.84 118.582C123.124 114.106 124.967 109.535 125.398 102.45C125.805 95.3178 127.576 91.1293 132.411 85.8637C135.498 82.5129 137.15 79.4972 138.251 75.3087C139.112 72.0296 139.112 67.53 138.251 64.251C137.15 60.0625 135.498 57.0467 132.411 53.6959C127.576 48.4304 125.805 44.2419 125.398 37.1094C124.967 30.0249 123.124 25.4534 118.84 20.9777C116.112 18.1534 112.952 16.1669 109.362 15.018C107.017 14.276 105.533 14.0367 101.583 13.7974C94.8578 13.3665 90.7172 11.5715 85.5713 6.85639C82.0051 3.57739 78.3431 1.66264 73.8674 0.753133C71.4261 0.250512 67.2137 0.274446 64.5569 0.84887ZM92.0815 37.5402C96.629 39.1199 100.435 43.1409 101.799 47.7602C102.421 49.8186 102.541 52.8582 102.086 54.9405C101.464 57.9084 100.028 60.4933 97.7778 62.7192C95.2647 65.2084 93.3021 66.2136 89.3769 67.0513C81.2153 68.7985 77.5294 70.5218 73.6999 74.3752C70.1815 77.9175 68.3146 81.8427 67.094 88.1853C66.376 91.9909 65.6579 94.0014 64.3176 96.0597C62.4986 98.8601 59.9376 100.775 56.3475 101.995C53.7386 102.881 49.7894 102.953 47.2524 102.163C39.9524 99.8414 35.381 92.4217 36.6734 85.026C37.3196 81.3162 39.4737 77.6782 42.2262 75.5959C44.6675 73.7529 46.5583 73.011 50.9622 72.1733C56.874 71.0483 60.3445 69.5883 63.6953 66.812C67.6445 63.533 70.3251 58.6025 71.5218 52.4274C71.8091 50.9674 72.1441 49.1963 72.2877 48.4782C72.6468 46.6114 74.2264 43.5238 75.6146 41.9681C77.7448 39.5747 80.7605 37.7317 83.6087 37.0855C85.9064 36.5589 89.9034 36.7743 92.0815 37.5402ZM56.2996 37.6838C61.1104 39.3832 64.6288 42.9733 66.1127 47.6405C66.5196 48.9569 66.6392 49.8904 66.6392 52.0684C66.6392 54.2464 66.5196 55.1799 66.1127 56.4963C64.6527 61.1156 61.1343 64.7057 56.4193 66.3811C54.0019 67.2428 49.7894 67.2906 47.2524 66.5008C43.758 65.3998 40.5029 62.8149 38.6839 59.7274C34.3279 52.2599 37.176 42.4228 44.7632 38.6891C47.755 37.2291 48.9278 36.9658 52.159 37.0855C54.1216 37.1573 55.2944 37.3248 56.2996 37.6838ZM92.1054 73.37C95.3365 74.5188 98.4719 77.1995 100.195 80.2391C101.607 82.8001 102.014 84.3558 102.038 87.4912C102.062 91.9909 100.794 95.1263 97.6342 98.2617C94.6903 101.23 91.172 102.666 86.9834 102.642C79.9707 102.618 74.1546 98.0463 72.3835 91.2011C71.9287 89.3821 71.9287 85.8398 72.3835 84.0208C72.8622 82.106 74.1786 79.4972 75.3513 78.085C77.3379 75.7155 80.4254 73.7051 83.1779 73.011C85.332 72.4844 90.1188 72.6759 92.1054 73.37Z"
          fill="#FF034C"/>
    <path d="M50.5549 48.5024C49.5018 48.8136 48.4008 49.9864 48.0897 51.1352C47.7307 52.4037 48.1136 53.6723 49.1428 54.6775C52.2543 57.6932 57.0651 53.6962 54.7674 49.9624C54.0254 48.7418 52.0389 48.0477 50.5549 48.5024Z"
          fill="#FF034C"/>
    <path d="M85.5475 84.236C83.3216 85.1934 82.6275 88.0655 84.1593 89.9084C86.4092 92.5651 90.6934 91.177 90.6934 87.7543C90.6934 84.978 88.0128 83.1589 85.5475 84.236Z"
          fill="#FF034C"/>
    <path d="M318.237 26.3161C315.006 27.4649 313.043 30.6003 313.355 34.023C313.737 37.9961 316.825 40.8203 320.798 40.8203C322.88 40.8203 324.316 40.2698 325.824 38.8816C327.524 37.3259 328.194 35.7941 328.218 33.4007C328.218 32.0364 328.098 31.3184 327.691 30.4089C326.925 28.7335 325.202 27.0341 323.622 26.4597C322.138 25.9092 319.601 25.8374 318.237 26.3161Z"
          fill="#FF034C"/>
    <path d="M544.322 26.3625C543.053 26.8173 541.306 28.3491 540.492 29.7612C539.654 31.1973 539.439 34.1651 540.037 35.9842C540.564 37.5159 542.048 39.2153 543.628 40.053C544.705 40.6274 545.112 40.6992 547.122 40.6992C549.731 40.6992 550.736 40.3163 552.411 38.6409C553.704 37.3484 554.35 35.8166 554.494 33.7583C554.685 30.6707 553.201 28.0858 550.425 26.7216C549.156 26.0753 548.726 25.9796 547.146 26.0035C546.141 26.0035 544.872 26.1711 544.322 26.3625Z"
          fill="#FF034C"/>
    <path d="M221.136 60.5645V94.4316H227.359H233.582V86.1025V77.7973L236.238 75.1645C238.751 72.6514 238.895 72.5556 239.23 73.0104C239.398 73.2737 242.988 78.1802 247.152 83.9005L254.764 94.312L261.776 94.3838C265.606 94.4077 268.765 94.3838 268.765 94.3359C268.765 94.288 264.122 87.7779 258.449 79.9035C252.753 72.0291 247.942 65.3514 247.751 65.0403C247.392 64.4898 247.559 64.3222 256.463 55.3468L265.534 46.2039L257.516 46.1321L249.498 46.0842L241.552 54.0304L233.582 62.0006V44.337V26.6974H227.359H221.136V60.5645Z"
          fill="#FF034C"/>
    <path d="M186.598 45.3915C181.428 45.9419 176.019 48.479 172.285 52.117C164.219 59.9914 162.233 71.6714 167.283 81.5084C170.753 88.234 177 93.0448 184.3 94.6005C187.005 95.1749 191.72 95.151 193.85 94.5766C196.483 93.8585 198.852 92.59 200.36 91.0582L201.748 89.6939V92.0635V94.433H207.971H214.194V80.7904C214.194 66.2143 214.146 65.5681 212.95 62.0019C212.184 59.7281 210.389 56.5209 208.761 54.4865C204.596 49.2688 198.661 46.0616 191.911 45.3675C189.255 45.1042 189.302 45.1042 186.598 45.3915ZM192.821 57.9091C194.831 58.4357 196.196 59.2255 197.775 60.6855C200.528 63.2944 201.748 66.1904 201.748 70.1396C201.748 73.5861 200.935 76.0035 198.9 78.5645C195.262 83.112 187.842 84.1651 182.697 80.8382C180.854 79.6415 179.441 78.014 178.412 75.9078C177.455 73.9691 177.096 72.3415 177.096 70.0438C177.12 64.2517 180.686 59.5127 186.191 57.9331C187.651 57.5022 191.289 57.5022 192.821 57.9091Z"
          fill="#FF034C"/>
    <path d="M284.441 45.3899C276.926 46.108 270.799 49.7939 268.429 54.9637C266.993 58.0751 267.065 62.4791 268.549 65.7341C269.123 66.9787 269.722 67.7925 270.942 68.9413C273.815 71.6459 277.237 72.9144 286.236 74.542C294.111 75.978 295.81 76.8157 295.81 79.281C295.81 81.9138 293.297 83.5652 288.965 83.8285C286.236 83.9961 283.915 83.6131 282 82.6797C280.325 81.8659 279.439 80.9564 279.032 79.5921L278.745 78.6348H272.761H266.802L266.969 80.2384C267.592 86.2459 271.373 90.9131 277.476 93.2587C281.043 94.6229 283.245 95.0059 287.912 95.0059C291.311 94.9819 292.579 94.8862 294.566 94.4554C303.373 92.5885 307.849 88.2085 308.4 80.9085C308.711 76.9115 307.658 73.5128 305.384 71.239C302.201 68.0558 299.161 66.883 289.468 65.0879C283.484 63.9869 281.809 63.4843 280.803 62.4791C278.841 60.5164 280.54 57.6922 284.25 56.7348C288.773 55.562 294.446 57.4768 294.996 60.325L295.14 61.1627H301.1H307.059V60.0138C307.059 58.3863 306.246 55.4184 305.36 53.743C304.594 52.307 302.344 49.8896 300.765 48.8125C298.012 46.9696 294.326 45.7729 290.09 45.366C287.314 45.1027 287.242 45.1027 284.441 45.3899Z"
          fill="#FF034C"/>
    <path d="M406.148 45.2961C399.471 45.9184 394.085 48.4554 389.801 53.003C384.967 58.1249 382.645 64.4436 383.004 71.4324C383.195 74.9986 383.866 77.6553 385.326 80.7668C388.82 88.0428 395.163 93.0212 403.157 94.6966C405.287 95.1514 410.241 95.1035 412.132 94.6009C414.717 93.9307 417.398 92.4707 418.786 90.9868L420.006 89.6943L420.078 91.992L420.15 94.3137L426.445 94.3855L432.739 94.4333L432.668 80.3839L432.572 66.3105L431.95 63.9888C429.125 53.6013 420.724 46.3971 410.217 45.3679C407.943 45.1525 407.704 45.1285 406.148 45.2961ZM411.294 57.9334C413.329 58.4839 414.908 59.4174 416.584 61.0688C418.858 63.3426 420.27 66.7891 420.27 70.14C420.27 75.3816 417.039 80.2642 412.395 82.0832C409.906 83.0406 405.933 83.0166 403.252 82.0114C400.644 81.0061 397.891 78.3734 396.575 75.6209C394.827 71.8872 395.258 66.478 397.556 63.0075C399.112 60.638 401.84 58.6754 404.545 57.9334C406.22 57.5026 409.547 57.4787 411.294 57.9334Z"
          fill="#FF034C"/>
    <path d="M478.191 45.2944C472.974 45.7731 469.024 47.281 465.674 50.0334C462.251 52.8577 460.121 56.735 458.9 62.3596C458.565 63.8914 458.493 66.4284 458.397 79.3051L458.302 94.4316L464.596 94.3838L470.891 94.312L471.011 79.5923C471.131 66.2609 471.178 64.753 471.585 63.5563C472.447 60.8757 473.835 59.2242 476.013 58.219C476.947 57.7881 477.593 57.7163 480.106 57.6924C482.739 57.6924 483.241 57.7642 484.294 58.2429C486.401 59.2003 487.861 60.9953 488.746 63.676C488.986 64.418 489.081 68.0799 489.201 79.4727L489.321 94.312L495.615 94.3838L501.886 94.4316V80.7412C501.886 72.5556 501.982 66.4284 502.126 65.5189C502.724 61.8809 504.04 59.7986 506.529 58.5301C508.157 57.7163 508.229 57.6924 511.077 57.6924C513.877 57.6924 514.045 57.7163 515.577 58.4822C517.779 59.5593 518.88 60.9953 519.741 63.9153C520.124 65.2078 520.172 66.8593 520.244 79.8796L520.34 94.4316H526.563H532.762V80.095C532.762 62.4793 532.594 60.9714 530.153 55.9931C527.089 49.7941 521.321 46.0842 513.59 45.3662C507.104 44.7439 501.192 46.4911 497.219 50.2009L495.448 51.8524L495.041 51.2301C494.419 50.2967 491.906 48.4059 489.991 47.4246C487.861 46.3714 485.443 45.7013 482.619 45.3662C480.513 45.1269 479.867 45.1269 478.191 45.2944Z"
          fill="#FF034C"/>
    <path d="M314.527 70.1861L314.599 94.312L320.894 94.3838L327.165 94.4316V70.2579V46.0842H320.822H314.479L314.527 70.1861Z"
          fill="#FF034C"/>
    <path d="M335.063 60.0396C335.063 68.2491 335.159 74.8071 335.303 76.0038C335.997 81.5805 337.744 85.8169 340.616 88.8326C344.757 93.1887 349.352 94.9837 356.245 94.9837C359.836 94.9837 360.673 94.8401 364.598 93.5477C365.005 93.4041 365.029 93.4998 364.886 94.5768C364.431 97.6883 363.378 99.268 360.984 100.465C359.429 101.231 359.261 101.255 356.604 101.255C353.397 101.255 352.44 100.919 350.477 99.0765L349.328 98.0234L342.316 98.0713L335.327 98.1431L336.38 100.345C337.768 103.313 338.893 104.964 341.023 107.19C344.015 110.326 347.629 112.384 351.626 113.198C353.924 113.676 358.376 113.7 360.721 113.246C369.72 111.522 376.35 104.127 377.403 94.6008C377.571 93.1169 377.667 84.0936 377.667 69.1825V46.0858H371.324H364.981V59.896C364.981 68.1533 364.886 74.3284 364.742 75.2379C364.335 77.751 363.593 79.3307 362.229 80.7189C360.673 82.2507 359.118 82.7772 356.126 82.7533C351.602 82.7293 349.137 80.7189 347.988 76.1235C347.773 75.2618 347.653 71.0015 347.581 60.4943L347.461 46.0858H341.262H335.063V60.0396Z"
          fill="#FF034C"/>
    <path d="M540.898 70.2579V94.4316H547.121H553.344V70.2579V46.0842H547.121H540.898V70.2579Z" fill="#FF034C"/>
    <path d="M559.089 46.18C559.089 46.2278 562.56 51.3737 566.796 57.6206C571.033 63.8435 574.479 69.0612 574.479 69.2048C574.479 69.3484 570.745 74.9251 566.174 81.6028C561.602 88.2566 557.821 93.8812 557.749 94.0726C557.629 94.3838 558.539 94.4316 564.666 94.4316H571.751L576.729 87.1317C579.457 83.1107 581.755 79.8317 581.827 79.8317C581.899 79.8317 584.149 83.0628 586.829 87.0359C589.51 90.9851 591.808 94.2641 591.975 94.3359C592.119 94.3838 595.35 94.4077 599.131 94.3838L606.001 94.312L597.6 81.9858C592.98 75.2124 589.151 69.5399 589.079 69.3724C589.031 69.2288 591.808 64.9206 595.278 59.7986C598.772 54.7006 602.267 49.5068 603.081 48.2862L604.589 46.0842H597.528H590.467L586.494 51.8764C584.316 55.0836 582.354 57.9557 582.114 58.2429L581.707 58.8173L577.423 52.4508L573.115 46.0842H566.102C562.249 46.0842 559.089 46.1321 559.089 46.18Z"
          fill="#FF034C"/>
</svg>
